<svg width="269" height="372" viewBox="0 0 269 372" fill="none" xmlns="http://www.w3.org/2000/svg">
<g opacity="0.2" clip-path="url(#clip0_315_29)">
<mask id="path-1-inside-1_315_29" fill="white">
<path d="M256.916 44.1708C260.855 43.358 264.799 42.5452 268.743 41.7324C268.02 41.5583 267.32 41.5107 266.63 41.5688C260.254 42.1124 253.878 42.6402 247.502 43.2366C240.318 43.9122 233.134 44.5772 225.96 45.3689C219.049 46.1342 212.147 47.0315 205.249 47.9129C198.54 48.7679 191.831 49.6229 185.135 50.5835C177.933 51.6233 170.754 52.795 163.561 53.8875C162.551 54.0406 161.532 54.067 160.485 54.1514C161.471 52.6208 162.316 51.2486 163.218 49.9132C166.843 44.5614 169.88 38.7504 173.693 33.5199C177.515 28.2789 180.844 22.5787 184.356 17.0527C186.3 13.9968 188.173 10.8934 190.07 7.80575C191.746 5.07705 193.333 2.26391 195.765 0.168559C195.535 0.084112 195.399 -0.0267249 195.305 0.00494276C191.647 1.24526 187.736 1.57777 184.431 4.06896C183.346 4.88705 182.097 5.44651 180.881 6.02708C177.116 7.83214 173.322 9.55803 169.561 11.3684C166.716 12.7354 163.903 14.171 161.086 15.596C156.72 17.8022 152.306 19.8975 148.024 22.2832C144.681 24.141 141.502 26.363 138.253 28.432C131.21 32.9182 124.158 37.3834 117.139 41.9224C115.895 42.7299 114.683 43.7064 113.674 44.8517C108.518 50.726 103.297 56.5054 97.4752 61.5775C94.1885 64.4434 91.0756 67.5627 87.911 70.5975C86.662 71.7956 85.507 73.1257 84.2581 74.3238C79.5253 78.847 75.2479 83.8768 71.2523 89.2128C70.5762 90.1154 70.0315 91.1498 69.4258 92.121C69.4869 92.1685 69.5479 92.216 69.6137 92.2582C72.0223 90.0468 74.431 87.8353 76.8443 85.6238C76.9429 85.7558 77.0462 85.8877 77.1448 86.0197C74.1211 89.9834 70.4494 93.1713 66.9515 96.5861C63.4019 100.043 59.9321 103.585 55.9364 106.461C62.0637 104.894 67.4257 101.41 72.9895 98.1009C71.9894 101.901 71.0363 105.675 69.5338 109.148C67.5524 113.713 65.064 118.004 62.937 122.496C61.4486 125.636 60.3781 129.03 58.7864 132.096C57.7347 134.128 57.885 135.701 58.8804 137.564C60.6364 140.858 62.2703 144.235 63.9794 147.561C64.5475 148.664 64.9842 150.057 65.8434 150.717C66.9561 151.567 66.8388 152.4 66.6932 153.847C59.8006 148.516 51.9737 147.028 44.1373 145.138C46.1985 143.433 48.4147 142.272 50.166 140.166C48.7668 139.074 47.6071 139.718 46.4802 139.997C43.0856 140.826 39.7097 141.744 36.3104 142.557C34.3572 143.022 33.9862 143.349 34.5591 145.581C36.2118 152.01 37.9819 158.407 39.7848 164.783C39.9539 165.384 40.6394 166.028 41.1981 166.213C42.6442 166.693 44.1937 166.783 45.6257 167.3C47.8841 168.118 50.3867 168.05 52.4432 169.644C52.847 169.955 53.3775 170.071 53.8518 170.261C57.1525 171.581 60.4767 172.821 63.7446 174.235C65.6978 175.085 67.5618 176.199 69.4681 177.191C69.4071 177.407 69.3507 177.624 69.2944 177.84C68.5197 177.756 67.7215 177.777 66.9749 177.571C64.0921 176.769 61.228 175.872 58.3498 175.048C55.1054 174.119 51.8516 173.217 48.5978 172.33C47.7573 172.103 46.8981 171.976 46.4662 171.892C45.8605 172.779 45.5741 173.465 45.0998 173.834C43.2546 175.27 41.3484 176.61 39.2026 178.173C42.3766 180.352 44.4519 183.287 46.2737 186.354C48.7199 186.865 51.1614 187.161 53.4808 187.926C55.805 188.692 58.4202 188.824 60.2514 191.035C57.8803 191.035 55.5561 190.908 53.2367 190.639C51.1238 190.391 49.0298 189.853 46.9122 189.673C44.8698 189.504 42.9682 188.966 41.0807 188.079C40.0759 187.604 38.9256 187.013 37.5969 187.678C37.5969 189.483 37.625 191.257 37.5828 193.025C37.564 193.632 37.5217 194.35 37.2353 194.819C35.6061 197.49 33.7749 200.008 32.2584 202.752C30.6949 205.581 29.1642 208.5 28.0796 211.587C27.1688 214.168 25.8306 216.148 23.9525 217.789C23.6004 218.1 23.2013 218.364 22.9196 218.734C22.4266 219.393 21.9993 220.122 21.3655 221.104C19.2244 221.521 17.4215 223.289 15.6044 225.083C13.1864 227.469 10.5758 229.242 7.11073 229.026C4.93684 228.889 2.73947 229.3 0.551494 229.469C3.24656 230.567 5.95101 231.396 8.8104 231.432C10.6979 231.459 12.6793 231.227 14.44 231.797C15.9143 232.277 17.1867 232.398 18.5953 231.939C19.1211 231.77 19.6705 231.691 20.5391 231.496C19.8583 233.227 19.2996 234.652 18.6986 236.172C21.8585 235.475 25.0512 234.89 28.0984 233.486C30.385 232.43 32.6528 231.021 35.2962 231.876C35.0755 232.763 34.9488 233.697 34.6248 234.525C34.0567 235.966 34.545 236.811 35.6483 237.476C37.5969 238.658 39.5031 239.93 41.4704 241.07C47.3113 244.458 53.2836 247.588 59.0024 251.225C64.8339 254.93 70.4259 259.115 76.1259 263.084C76.4452 263.306 76.8114 263.433 77.1542 263.602C77.2293 263.475 77.3091 263.354 77.3842 263.227C73.952 259.168 70.548 255.072 67.0688 251.066C62.6506 245.979 58.2887 240.817 53.6686 235.961C50.3444 232.472 48.7058 227.764 46.0013 223.859C45.8886 223.695 45.8135 223.468 45.7947 223.262C45.5694 221.119 44.682 219.235 44.0387 217.245C42.9541 213.889 41.9446 210.532 41.3812 206.916C40.7755 203.016 40.7708 199.216 40.7802 195.305C41.6395 196.967 42.3015 198.709 43.0246 200.414C44.5787 204.093 44.5881 204.087 45.8088 204.895C45.5459 203.818 45.3064 202.831 45.0482 201.776C45.9403 201.295 46.6634 200.91 47.0484 200.699C49.2129 202.172 51.0581 203.491 52.9597 204.694C54.1053 205.417 55.3214 206.03 56.5421 206.584C61.5707 208.864 66.5805 211.186 71.0504 214.712C75.2761 218.048 79.4736 221.436 83.6712 224.819C84.4365 225.437 85.1408 226.244 85.9249 225.321C88.033 229.754 90.1365 234.172 92.24 238.589C93.1931 240.595 94.1087 242.622 95.1228 244.585C98.1043 250.349 101.137 256.081 104.124 261.839C106.551 266.51 108.946 271.197 111.335 275.889C111.969 277.129 112.556 278.401 113.167 279.662C113.007 279.773 112.847 279.884 112.688 280C110.453 276.696 108.218 273.387 105.978 270.083C105.88 270.157 105.781 270.231 105.682 270.305L105.682 272.199C104.33 270.78 102.861 269.439 101.602 267.877C97.5033 262.794 93.5077 257.606 89.4181 252.513C87.6527 250.317 85.8169 248.211 83.488 246.68C82.0842 245.757 81.0043 244.189 79.5816 243.318C74.5483 240.252 70.8344 235.592 67.2144 230.804C64.571 227.3 61.9792 223.737 59.3593 220.212C59.1761 219.964 58.9273 219.779 58.7113 219.562C58.608 219.663 58.5047 219.763 58.4061 219.868C61.1153 224.761 63.8056 229.675 66.5524 234.541C67.3834 236.014 68.5056 237.291 69.2615 238.801C70.2851 240.843 71.0786 243.028 71.9847 245.145C73.1491 247.852 74.5765 250.354 76.4922 252.497C77.9665 254.144 79.4126 255.843 80.7038 257.664C83.6289 261.791 86.4648 265.993 89.3101 270.183C91.6296 273.603 94.104 276.781 97.8085 278.396C98.4987 278.702 99.0621 279.351 99.7335 279.736C101.161 280.549 102.476 282.037 104.415 280.734C107.73 284.613 111.035 288.498 114.373 292.356C114.894 292.958 115.547 293.422 116.157 293.923C116.66 294.34 117.275 294.636 117.693 295.137C119.848 297.745 121.956 300.399 124.083 303.028C124.506 303.556 124.9 304.147 125.412 304.537C129.069 307.345 132.52 310.523 136.671 312.665C136.497 311.879 136.333 311.145 136.169 310.417C136.267 310.37 136.37 310.327 136.474 310.28C138.094 312.354 139.713 314.434 141.385 316.571C141.624 315.832 141.756 315.436 141.883 315.035C142.169 315.225 142.484 315.378 142.737 315.605C142.925 315.779 143.08 316.038 143.183 316.291C144.648 319.859 147.616 321.363 150.39 323.169C150.996 322.741 151.513 322.382 152.132 321.944C154.283 325.285 156.151 328.784 159.922 330.647C159.081 329.043 158.396 327.729 157.71 326.42C157.79 326.319 157.875 326.224 157.954 326.124C158.17 326.224 158.405 326.298 158.602 326.43C163.781 329.845 168.965 333.26 174.134 336.696C177.782 339.119 181.416 341.567 185.051 344.016C189.45 346.972 193.854 349.912 198.225 352.92C204.489 357.227 210.705 361.624 217.373 365.134C221.27 367.187 225.143 369.298 229.026 371.388C229.143 371.446 229.251 371.53 229.374 371.562C229.735 371.662 230.101 371.742 230.669 371.879C229.491 370.369 228.5 369.103 227.5 367.825C229.266 366.374 228.989 366.432 228.172 364.447C227.486 362.79 226.214 363.656 225.486 362.785C225.199 363.466 224.974 363.994 224.683 364.685C223.744 363.54 222.941 362.568 222.072 361.508C222.702 360.969 223.171 360.51 223.692 360.135C224.415 359.618 224.378 358.995 223.918 358.351C223.378 357.591 222.781 356.889 222.148 356.087C221.537 357.148 220.936 358.188 220.162 359.528C218.269 357.486 216.434 355.665 214.776 353.654C213.541 352.155 212.612 350.345 211.419 348.793C209.527 346.339 207.466 344.048 205.597 341.573C201.47 336.105 197.455 330.521 193.319 325.058C189.553 320.076 185.656 315.225 181.872 310.259C177.726 304.822 174.036 298.943 169.425 293.955C169.153 293.66 168.796 293.311 168.749 292.947C168.448 290.493 167.026 288.508 166.575 286.112C166.288 284.587 165.753 283.125 165.331 281.631C165.486 281.531 165.64 281.431 165.791 281.33C167.134 283.051 168.472 284.771 169.81 286.492C169.786 285.98 169.655 285.521 169.43 285.13C168.514 283.521 167.42 282.011 166.659 280.312C165.471 277.657 164.049 274.976 163.575 272.131C163.138 269.545 162.344 267.238 161.368 264.953C160.255 262.351 159.011 259.812 157.818 257.252C157.17 255.864 156.508 254.492 155.865 253.104C155.696 252.734 155.588 252.333 155.391 251.779C155.874 251.747 156.382 251.547 156.551 251.732C157.677 253.003 159.232 253.88 159.368 256.059C159.419 256.904 159.931 257.78 160.391 258.514C161.8 260.773 163.312 262.952 164.744 265.19C167.181 268.996 169.514 272.896 172.04 276.622C174.247 279.884 176.702 282.935 178.98 286.133C181.107 289.12 183.149 292.187 185.224 295.217C186.304 296.795 187.394 298.362 188.45 299.951C188.971 300.743 189.398 301.613 189.938 302.384C190.431 303.086 191.018 303.698 191.798 304.632C191.713 305.799 191.934 306.559 193.497 307.108C195.235 307.709 196.347 309.087 197.62 310.322C198.648 311.32 199.376 312.46 199.287 313.637C199.869 313.747 200.395 313.663 200.643 313.922C203.559 316.951 206.47 319.991 209.301 323.116C211.198 325.206 212.959 327.454 214.79 329.613C216.88 332.072 219.086 334.421 221.063 336.992C223.758 340.491 226.284 344.154 228.871 347.759C229.115 348.107 229.261 348.54 229.453 348.936C229.604 348.777 229.754 348.624 229.904 348.471C228.42 345.025 226.941 341.573 225.448 338.126C222.847 332.136 220.208 326.172 217.645 320.16C215.95 316.186 214.372 312.143 212.715 308.142C210.658 303.192 208.564 298.267 206.503 293.316C206.221 292.641 206.048 291.902 205.822 291.195L206.245 290.894C209.597 295.47 212.527 300.421 215.879 304.997C219.269 309.631 222.664 314.254 226.059 318.883C226.157 318.835 226.256 318.783 226.355 318.735C223.81 312.122 221.27 305.514 218.725 298.901C218.837 298.837 218.945 298.774 219.058 298.711C219.302 299.154 219.579 299.581 219.791 300.046C220.974 302.648 222.227 305.208 223.279 307.873C224.946 312.095 227.495 315.769 229.04 320.076C229.904 322.482 231.214 324.678 232.303 326.985C232.81 328.045 233.238 329.154 233.768 330.199C234.548 331.745 235.421 333.234 236.191 334.785C237.52 337.456 238.792 340.169 240.112 342.845C240.332 343.288 240.684 343.652 241.234 344.407C241.201 343.636 241.252 343.346 241.173 343.109C240.168 340.079 239.323 336.97 238.097 334.062C235.172 327.138 232.055 320.313 229.04 313.431C226.322 307.24 223.664 301.022 220.913 294.852C220.5 293.918 219.725 293.185 219.002 292.203C219.011 292.171 219.157 291.765 219.321 291.295C218.711 291.084 218.236 290.926 217.772 290.767C217.872 289.43 217.315 288.73 216.1 288.667C214.494 288.577 214.339 288.45 213.997 286.624C213.706 285.099 213.447 283.563 213.213 282.027C212.696 278.58 212.086 275.208 210.33 272.184C208.86 269.645 207.606 266.943 206.325 264.272C202.55 256.397 198.7 248.57 195.103 240.595C193.197 236.367 191.065 232.277 189.581 227.759C187.915 222.682 186.445 217.467 183.426 212.976C181.247 209.73 179.806 205.856 178.059 202.251C177.369 200.826 176.745 199.364 176.087 197.912C177.36 197.274 179.074 197.522 179.44 195.453C177.764 194.719 175.881 191.22 176.256 189.124C181.308 196.292 186.224 203.264 191.168 210.273C191.69 210.11 192.159 209.967 192.647 209.814C192.577 208.985 192.516 208.268 192.422 207.191C194.939 211.894 197.263 216.248 199.587 220.597C199.714 220.534 199.841 220.465 199.963 220.396C199.897 220.08 199.864 219.742 199.761 219.441C199.357 218.322 198.878 217.235 198.549 216.095C198.446 215.731 198.723 215.229 198.822 214.796C199.16 215.118 199.61 215.377 199.794 215.789C199.953 216.142 199.639 216.929 199.817 217.076C201.737 218.633 202.132 221.272 203.385 223.299C204.517 225.141 205.221 227.31 206.259 229.242C206.728 230.118 207.498 230.826 208.231 231.464C208.484 231.686 209.161 231.649 209.424 231.417C209.654 231.211 209.757 230.477 209.616 230.139C209.353 229.527 208.931 228.957 208.47 228.498C207.301 227.337 207.203 226.535 208.315 224.835C209.409 227.115 210.602 229.216 211.471 231.48C212.95 235.328 214.161 239.302 215.602 243.171C217.128 247.266 218.786 251.299 220.387 255.357C220.734 254.983 220.777 254.724 220.73 254.487C219.983 250.75 219.251 247.018 218.467 243.297C217.8 240.115 217.124 236.927 216.363 233.771C214.213 224.856 212.015 215.958 209.846 207.048C208.945 203.343 207.837 199.691 207.799 195.775C207.785 194.429 207.752 193.014 207.4 191.753C206.447 188.37 206.512 184.881 206.348 181.419C206.325 180.907 206.775 180.368 207.005 179.841C208.827 184.538 209.879 189.299 211.776 193.584C213.72 197.981 214.443 202.8 216.288 207.217C216.161 204.737 215.814 202.325 215.448 199.918C215.081 197.469 214.696 195.02 214.321 192.571C213.959 190.201 213.598 187.826 213.236 185.456C212.87 183.007 212.499 180.553 212.133 178.104C211.785 175.74 211.226 173.391 211.405 170.609C211.781 171.074 211.935 171.195 212.015 171.369C213.668 174.974 215.316 178.584 216.964 182.195C217.598 183.588 218.251 184.95 219.556 185.757C220.035 186.058 220.387 186.623 220.777 187.082C225.387 192.455 229.993 197.833 234.609 203.201C234.656 203.254 234.815 203.18 234.952 203.164C234.041 200.947 233.13 198.73 232.219 196.519C232.322 196.461 232.425 196.397 232.529 196.339C235.421 200.72 238.313 205.101 241.206 209.482C241.328 209.387 241.45 209.297 241.567 209.202C241.473 208.964 241.393 208.716 241.276 208.495C239.041 204.272 236.82 200.039 234.548 195.843C232.538 192.138 230.716 188.333 229.416 184.248C228.007 179.819 226.819 175.302 225.303 170.926C222.495 162.824 220.631 154.406 218.509 146.077C217.391 141.697 216.65 137.2 215.776 132.745C215.372 130.676 215.053 128.586 214.64 126.201C216.344 127.188 217.743 127.948 219.1 128.787C220.748 129.811 222.401 130.835 223.979 131.98C225.514 133.099 226.932 134.408 228.439 135.569C230.308 136.999 232.543 137.68 234.275 139.48C235.172 140.409 236.623 140.673 237.717 141.185C234.167 136.582 230.58 132.006 227.087 127.346C225.833 125.678 224.847 123.752 223.645 122.026C221.913 119.529 220.021 117.17 218.326 114.647C216.645 112.146 215.119 109.517 213.537 106.936C213.274 106.514 213.072 106.05 212.842 105.606C212.889 105.585 212.936 105.559 212.983 105.538C216.8 109.459 220.612 113.375 224.429 117.297L224.556 117.123C217.589 106.609 210.616 96.09 203.583 85.4708C205.188 84.4891 206.555 83.6499 208.02 82.7526C207.405 81.5862 207.94 80.9423 208.733 80.2984C212.781 77.0208 216.79 73.6904 220.828 70.4022C225.678 66.4491 230.627 62.67 235.881 59.4188C239.365 57.2549 242.83 55.0592 246.3 52.8636C248.995 51.1536 251.69 49.4488 254.362 47.6965C255.676 46.8362 256.944 45.8756 258.493 44.7725C257.667 44.5983 257.277 44.5139 256.888 44.4295C256.897 44.345 256.906 44.2606 256.916 44.1708V44.1708ZM159.264 271.197C159.537 271.582 159.687 272.147 160.03 272.389C162.551 274.184 162.814 277.282 163.598 280.079C163.899 281.145 164.223 282.201 164.537 283.257C162.213 280.692 156.518 271.682 156.48 267.782C157.865 268.721 158.461 270.067 159.264 271.197ZM149.597 135.595C150.616 134.74 151.48 133.458 152.067 132.165C153.043 130.022 153.705 127.694 154.574 125.483C155.114 124.095 155.785 122.77 156.541 121.097C157.461 121.904 158.194 122.337 158.673 123.002C161.504 126.897 164.495 130.661 166.396 135.305C166.932 136.619 166.894 137.802 165.856 138.683C163.176 140.979 160.25 142.494 156.748 142.045C153.424 141.618 150.095 141.264 146.77 140.836C145.456 140.668 144.155 140.383 143.132 139.031C145.813 138.984 147.7 137.189 149.597 135.595V135.595ZM126.651 98.0059C129.393 100.165 132.102 102.371 134.802 104.598C136.07 105.648 137.263 106.815 138.516 107.881C139.235 108.488 139.366 109.19 139.108 110.124C138.511 112.288 137.934 114.457 137.422 116.648C137.248 117.392 137.324 118.205 137.234 118.98C137.047 120.585 136.755 122.179 136.638 123.794C136.563 124.765 136.718 125.763 136.788 126.744C136.892 128.111 137.432 129.505 136.469 131.093C136.018 130.434 135.544 129.953 135.309 129.357C133.657 125.129 131.783 120.981 131.98 116.125C132.013 115.296 131.337 114.304 130.774 113.608C128.867 111.259 126.853 109.016 124.905 106.715C124.576 106.329 124.346 105.844 124.074 105.406C124.153 105.274 124.233 105.136 124.313 105.004C127.421 105.506 129.905 107.76 132.732 109.19C130.403 104.419 127.257 100.439 124.05 96.4014C124.919 96.9292 125.844 97.3726 126.651 98.0059V98.0059ZM65.5898 134.102C65.8387 140.361 68.4633 145.439 69.7076 150.949C69.8578 151.619 70.102 152.263 70.3461 153.071C64.8855 149.017 62.0262 143.069 65.5898 134.102V134.102ZM76.4264 176.61C76.0179 176.447 75.4076 176.141 75.1728 176.331C73.614 177.619 72.2758 176.494 70.9471 175.898C68.4962 174.795 66.0781 173.591 63.6836 172.346C59.2184 170.024 54.7955 167.606 50.3209 165.3C49.4242 164.835 48.3771 164.434 47.4193 164.492C46.1798 164.571 45.5788 163.891 44.9167 162.925C45.4614 162.455 45.9591 162.054 46.4239 161.61C46.8746 161.178 47.2925 160.703 47.8278 160.138C48.5321 160.439 49.3913 160.803 50.3491 161.209C50.8374 158.813 48.3959 159.848 48.1001 158.655C48.7621 158.322 49.3678 158.011 49.9782 157.705C50.0486 157.457 50.6919 158.349 51.7389 157.335C52.0065 157.077 52.7343 157.367 53.2367 157.483C53.7109 157.594 54.1851 157.995 54.6265 157.942C57.284 157.61 59.2841 159.019 61.3453 160.66C63.1295 162.075 65.1579 163.157 67.1721 164.144C70.872 165.96 74.6328 167.606 78.3796 169.29C79.145 169.633 79.9619 169.818 80.901 170.124C77.3936 164.703 73.2571 160.439 69.177 156.116C69.2427 155.979 69.3132 155.847 69.3789 155.715C70.6842 156.443 71.9894 157.166 73.2994 157.895C73.3511 157.805 73.4074 157.721 73.4637 157.631C73.2008 157.309 72.9379 156.982 72.4308 156.354C73.4168 156.718 74.1305 156.934 74.8113 157.246C80.6615 159.906 86.5822 162.402 92.3198 165.342C95.3388 166.888 98.0386 169.211 100.879 171.185C102.316 172.188 103.781 173.153 105.166 174.241C105.988 174.885 106.715 175.703 107.438 176.494C110.007 179.323 112.58 182.147 115.101 185.023C116.298 186.396 117.383 187.889 118.66 189.51C115.852 194.629 112.19 198.994 108.528 203.897C107.565 202.034 106.593 200.562 105.997 198.91C103.837 192.94 100.184 188.375 95.7238 184.501C93.0898 182.21 90.5168 179.83 87.7419 177.65C88.958 179.466 90.1694 181.281 91.4746 183.229C90.3853 183.846 89.5965 183.319 88.958 182.395C87.756 180.659 86.5071 178.949 85.446 177.112C83.8167 174.304 81.4691 172.853 78.6848 172.082C78.1965 171.945 77.7317 171.654 77.2387 171.596C76.8725 171.549 76.2856 171.628 76.1541 171.881C76.0086 172.172 76.1353 172.826 76.356 173.138C77.0509 174.135 77.8679 175.022 78.5768 176.009C78.774 176.283 78.7506 176.758 78.8304 177.138C78.4876 177.202 78.1167 177.392 77.8068 177.307C77.3279 177.17 76.9006 176.8 76.4264 176.61V176.61ZM95.1041 190.549C94.9773 190.634 94.8458 190.724 94.7144 190.813C93.9913 189.663 93.2682 188.512 92.4888 187.272C92.8597 186.823 93.0663 186.565 93.3293 186.248C93.9302 187.699 94.5172 189.124 95.1041 190.549V190.549ZM89.7327 195.067C86.2629 194.92 83.0138 194.17 79.8305 192.756C83.3942 191.721 87.0376 191.436 89.7327 195.067ZM143.385 301.645C142.85 300.838 142.244 300.083 141.798 299.217C140.85 297.391 139.986 295.507 139.089 293.644C136.591 288.455 133.981 283.331 131.642 278.047C130.22 274.833 129.149 271.424 127.299 268.447C126.064 266.457 124.83 264.457 123.717 262.382C122.36 259.849 121.116 257.242 119.857 254.645C118.167 251.172 116.51 247.678 114.829 244.195C114.749 244.031 114.566 243.931 114.204 243.915C115.495 248.021 116.791 252.127 118.083 256.234C118.003 256.292 117.923 256.344 117.843 256.402C117.106 255.051 116.369 253.7 115.627 252.349C115.477 252.433 115.326 252.523 115.176 252.608C116.951 257.595 119.449 262.229 121.374 267.148C121.238 267.228 121.106 267.312 120.97 267.396C120.017 265.723 119.13 264.003 118.101 262.393C114.693 257.031 111.256 251.689 107.781 246.38C107.18 245.461 106.903 244.606 106.96 243.445C107.129 240.062 108.021 236.7 107.232 233.259C107.11 232.715 107.448 231.913 107.776 231.385C108.542 230.134 108.523 229.179 107.293 228.714C105.851 228.165 105.377 227.078 105.232 225.595C105.006 223.336 103.983 221.895 102.283 220.528C100.039 218.728 98.2217 216.264 96.2309 214.068C95.752 213.546 95.3952 212.96 96.1088 212.205C99.095 213.477 100.551 216.95 103.598 218.723C103.26 218.027 103.1 217.557 102.837 217.182C102.574 216.802 102.17 216.549 101.898 216.179C100.762 214.649 99.541 213.176 98.555 211.529C96.8929 208.743 94.3575 207.502 91.747 206.436C88.3758 205.053 84.9483 203.834 81.5348 202.567C80.361 202.135 79.1637 201.77 78.0228 200.973C80.1075 201.174 82.225 201.195 84.2769 201.617C88.5683 202.499 92.8597 203.449 97.0807 204.684C98.5269 205.111 99.7523 206.484 101.095 207.402C101.499 207.676 101.997 208.157 102.363 208.067C103.635 207.756 104.391 208.6 105.222 209.365C106.682 210.722 108.152 212.062 109.523 213.582C109.34 212.659 109.772 211.471 108.903 210.199C108.335 209.365 108.359 208.173 109.091 207.233C111.077 204.684 113.059 202.124 115.054 199.585C116.228 198.097 117.435 196.64 118.618 195.157C119.247 194.371 119.853 193.563 120.468 192.761C120.665 192.872 120.857 192.983 121.055 193.093C121.017 193.537 121.125 194.117 120.918 194.402C118.989 197.036 117.059 199.68 115.002 202.193C114.42 202.9 113.42 203.174 112.195 203.887C115.134 204.626 117.702 205.275 120.111 205.882C118.961 210.579 117.815 215.198 116.702 219.826C115.589 224.434 114.514 229.057 113.383 233.855C114.143 233.918 114.876 233.982 115.768 234.056C116.143 235.539 116.425 237.133 116.951 238.616C118.519 243.039 120.139 247.446 121.829 251.816C122.764 254.223 123.867 256.545 124.919 258.894C128.05 265.861 131.271 272.78 134.3 279.805C135.333 282.206 136.474 284.518 137.563 286.877C139.76 291.638 141.77 296.504 143.855 301.328C143.7 301.434 143.54 301.54 143.385 301.645ZM140.831 224.149C141.361 225.157 140.887 225.722 140.648 226.44C139.657 229.4 137.601 231.116 135.253 232.467C135.103 232.377 134.957 232.288 134.807 232.193C135.173 231.116 135.413 229.949 135.929 228.968C137.286 226.403 137.535 223.816 136.624 220.998C136.333 220.101 136.323 219.024 136.394 218.053C136.441 217.404 136.704 216.533 137.131 216.206C138.408 215.245 138.22 213.804 137.826 212.764C136.483 209.218 136.323 205.37 135.342 201.739C134.572 198.894 134.121 195.944 133.549 193.035C133.459 192.576 133.464 192.096 133.422 191.626C133.525 191.605 133.633 191.579 133.736 191.552C134.403 194.197 135.028 196.851 135.746 199.48C136.45 202.05 137.305 204.573 137.995 207.149C138.432 208.78 138.657 210.479 139.042 212.131C139.338 213.424 139.831 214.664 140.061 215.968C140.361 217.646 140.521 219.357 140.671 221.061C140.765 222.101 140.413 223.363 140.831 224.149V224.149ZM147.625 207.486C147.55 207.354 147.47 207.223 147.395 207.091C148.113 206.536 148.789 205.898 149.559 205.454C150.921 204.668 151.174 204.246 150.564 202.625C149.329 199.369 148.005 196.149 146.733 192.909C146.282 191.748 145.869 190.565 145.7 189.225C146.888 191.394 148.118 193.537 149.249 195.743C150.404 197.986 151.466 200.293 152.719 202.884C152.16 200.198 151.635 197.796 151.17 195.379C151.043 194.698 151.095 193.98 151.268 193.236C153.776 196.033 154.297 199.87 155.945 203.306C153.405 205.381 150.512 206.431 147.625 207.486V207.486ZM167.256 167.849C163.1 166.989 158.879 166.524 154.682 165.923C152.733 165.648 150.766 165.511 148.827 165.168C147.822 164.994 146.991 165.147 146.132 165.748C142.164 168.525 138.183 171.274 134.173 173.982C133.272 174.589 132.248 174.974 131.234 175.486C131.408 178.637 131.577 181.672 131.76 184.981C130.483 181.266 129.281 177.766 127.994 174.03C128.173 173.84 128.365 173.539 128.628 173.37C131.699 171.412 134.812 169.538 137.845 167.517C140.39 165.822 142.859 163.996 145.324 162.175C146.395 161.384 147.428 161.31 148.709 161.468C154.705 162.223 160.396 164.534 166.307 165.685C168.542 166.123 170.786 166.519 173.467 167.015C171.148 167.743 169.354 168.287 167.256 167.849V167.849ZM188.844 161.811C187.957 162.091 187.079 162.418 186.196 162.724C186.131 162.587 186.065 162.45 185.999 162.312C186.253 162.122 186.501 161.927 186.755 161.742C190.098 159.346 189.417 160.28 188.722 156.016C188.436 154.242 188.013 152.501 187.652 150.748C187.821 150.69 187.994 150.632 188.168 150.58C188.999 153.002 189.797 155.441 190.666 157.847C191.69 160.708 191.596 160.951 188.844 161.811V161.811Z"/>
</mask>
<path d="M256.916 44.1708C260.855 43.358 264.799 42.5452 268.743 41.7324C268.02 41.5583 267.32 41.5107 266.63 41.5688C260.254 42.1124 253.878 42.6402 247.502 43.2366C240.318 43.9122 233.134 44.5772 225.96 45.3689C219.049 46.1342 212.147 47.0315 205.249 47.9129C198.54 48.7679 191.831 49.6229 185.135 50.5835C177.933 51.6233 170.754 52.795 163.561 53.8875C162.551 54.0406 161.532 54.067 160.485 54.1514C161.471 52.6208 162.316 51.2486 163.218 49.9132C166.843 44.5614 169.88 38.7504 173.693 33.5199C177.515 28.2789 180.844 22.5787 184.356 17.0527C186.3 13.9968 188.173 10.8934 190.07 7.80575C191.746 5.07705 193.333 2.26391 195.765 0.168559C195.535 0.084112 195.399 -0.0267249 195.305 0.00494276C191.647 1.24526 187.736 1.57777 184.431 4.06896C183.346 4.88705 182.097 5.44651 180.881 6.02708C177.116 7.83214 173.322 9.55803 169.561 11.3684C166.716 12.7354 163.903 14.171 161.086 15.596C156.72 17.8022 152.306 19.8975 148.024 22.2832C144.681 24.141 141.502 26.363 138.253 28.432C131.21 32.9182 124.158 37.3834 117.139 41.9224C115.895 42.7299 114.683 43.7064 113.674 44.8517C108.518 50.726 103.297 56.5054 97.4752 61.5775C94.1885 64.4434 91.0756 67.5627 87.911 70.5975C86.662 71.7956 85.507 73.1257 84.2581 74.3238C79.5253 78.847 75.2479 83.8768 71.2523 89.2128C70.5762 90.1154 70.0315 91.1498 69.4258 92.121C69.4869 92.1685 69.5479 92.216 69.6137 92.2582C72.0223 90.0468 74.431 87.8353 76.8443 85.6238C76.9429 85.7558 77.0462 85.8877 77.1448 86.0197C74.1211 89.9834 70.4494 93.1713 66.9515 96.5861C63.4019 100.043 59.9321 103.585 55.9364 106.461C62.0637 104.894 67.4257 101.41 72.9895 98.1009C71.9894 101.901 71.0363 105.675 69.5338 109.148C67.5524 113.713 65.064 118.004 62.937 122.496C61.4486 125.636 60.3781 129.03 58.7864 132.096C57.7347 134.128 57.885 135.701 58.8804 137.564C60.6364 140.858 62.2703 144.235 63.9794 147.561C64.5475 148.664 64.9842 150.057 65.8434 150.717C66.9561 151.567 66.8388 152.4 66.6932 153.847C59.8006 148.516 51.9737 147.028 44.1373 145.138C46.1985 143.433 48.4147 142.272 50.166 140.166C48.7668 139.074 47.6071 139.718 46.4802 139.997C43.0856 140.826 39.7097 141.744 36.3104 142.557C34.3572 143.022 33.9862 143.349 34.5591 145.581C36.2118 152.01 37.9819 158.407 39.7848 164.783C39.9539 165.384 40.6394 166.028 41.1981 166.213C42.6442 166.693 44.1937 166.783 45.6257 167.3C47.8841 168.118 50.3867 168.05 52.4432 169.644C52.847 169.955 53.3775 170.071 53.8518 170.261C57.1525 171.581 60.4767 172.821 63.7446 174.235C65.6978 175.085 67.5618 176.199 69.4681 177.191C69.4071 177.407 69.3507 177.624 69.2944 177.84C68.5197 177.756 67.7215 177.777 66.9749 177.571C64.0921 176.769 61.228 175.872 58.3498 175.048C55.1054 174.119 51.8516 173.217 48.5978 172.33C47.7573 172.103 46.8981 171.976 46.4662 171.892C45.8605 172.779 45.5741 173.465 45.0998 173.834C43.2546 175.27 41.3484 176.61 39.2026 178.173C42.3766 180.352 44.4519 183.287 46.2737 186.354C48.7199 186.865 51.1614 187.161 53.4808 187.926C55.805 188.692 58.4202 188.824 60.2514 191.035C57.8803 191.035 55.5561 190.908 53.2367 190.639C51.1238 190.391 49.0298 189.853 46.9122 189.673C44.8698 189.504 42.9682 188.966 41.0807 188.079C40.0759 187.604 38.9256 187.013 37.5969 187.678C37.5969 189.483 37.625 191.257 37.5828 193.025C37.564 193.632 37.5217 194.35 37.2353 194.819C35.6061 197.49 33.7749 200.008 32.2584 202.752C30.6949 205.581 29.1642 208.5 28.0796 211.587C27.1688 214.168 25.8306 216.148 23.9525 217.789C23.6004 218.1 23.2013 218.364 22.9196 218.734C22.4266 219.393 21.9993 220.122 21.3655 221.104C19.2244 221.521 17.4215 223.289 15.6044 225.083C13.1864 227.469 10.5758 229.242 7.11073 229.026C4.93684 228.889 2.73947 229.3 0.551494 229.469C3.24656 230.567 5.95101 231.396 8.8104 231.432C10.6979 231.459 12.6793 231.227 14.44 231.797C15.9143 232.277 17.1867 232.398 18.5953 231.939C19.1211 231.77 19.6705 231.691 20.5391 231.496C19.8583 233.227 19.2996 234.652 18.6986 236.172C21.8585 235.475 25.0512 234.89 28.0984 233.486C30.385 232.43 32.6528 231.021 35.2962 231.876C35.0755 232.763 34.9488 233.697 34.6248 234.525C34.0567 235.966 34.545 236.811 35.6483 237.476C37.5969 238.658 39.5031 239.93 41.4704 241.07C47.3113 244.458 53.2836 247.588 59.0024 251.225C64.8339 254.93 70.4259 259.115 76.1259 263.084C76.4452 263.306 76.8114 263.433 77.1542 263.602C77.2293 263.475 77.3091 263.354 77.3842 263.227C73.952 259.168 70.548 255.072 67.0688 251.066C62.6506 245.979 58.2887 240.817 53.6686 235.961C50.3444 232.472 48.7058 227.764 46.0013 223.859C45.8886 223.695 45.8135 223.468 45.7947 223.262C45.5694 221.119 44.682 219.235 44.0387 217.245C42.9541 213.889 41.9446 210.532 41.3812 206.916C40.7755 203.016 40.7708 199.216 40.7802 195.305C41.6395 196.967 42.3015 198.709 43.0246 200.414C44.5787 204.093 44.5881 204.087 45.8088 204.895C45.5459 203.818 45.3064 202.831 45.0482 201.776C45.9403 201.295 46.6634 200.91 47.0484 200.699C49.2129 202.172 51.0581 203.491 52.9597 204.694C54.1053 205.417 55.3214 206.03 56.5421 206.584C61.5707 208.864 66.5805 211.186 71.0504 214.712C75.2761 218.048 79.4736 221.436 83.6712 224.819C84.4365 225.437 85.1408 226.244 85.9249 225.321C88.033 229.754 90.1365 234.172 92.24 238.589C93.1931 240.595 94.1087 242.622 95.1228 244.585C98.1043 250.349 101.137 256.081 104.124 261.839C106.551 266.51 108.946 271.197 111.335 275.889C111.969 277.129 112.556 278.401 113.167 279.662C113.007 279.773 112.847 279.884 112.688 280C110.453 276.696 108.218 273.387 105.978 270.083C105.88 270.157 105.781 270.231 105.682 270.305L105.682 272.199C104.33 270.78 102.861 269.439 101.602 267.877C97.5033 262.794 93.5077 257.606 89.4181 252.513C87.6527 250.317 85.8169 248.211 83.488 246.68C82.0842 245.757 81.0043 244.189 79.5816 243.318C74.5483 240.252 70.8344 235.592 67.2144 230.804C64.571 227.3 61.9792 223.737 59.3593 220.212C59.1761 219.964 58.9273 219.779 58.7113 219.562C58.608 219.663 58.5047 219.763 58.4061 219.868C61.1153 224.761 63.8056 229.675 66.5524 234.541C67.3834 236.014 68.5056 237.291 69.2615 238.801C70.2851 240.843 71.0786 243.028 71.9847 245.145C73.1491 247.852 74.5765 250.354 76.4922 252.497C77.9665 254.144 79.4126 255.843 80.7038 257.664C83.6289 261.791 86.4648 265.993 89.3101 270.183C91.6296 273.603 94.104 276.781 97.8085 278.396C98.4987 278.702 99.0621 279.351 99.7335 279.736C101.161 280.549 102.476 282.037 104.415 280.734C107.73 284.613 111.035 288.498 114.373 292.356C114.894 292.958 115.547 293.422 116.157 293.923C116.66 294.34 117.275 294.636 117.693 295.137C119.848 297.745 121.956 300.399 124.083 303.028C124.506 303.556 124.9 304.147 125.412 304.537C129.069 307.345 132.52 310.523 136.671 312.665C136.497 311.879 136.333 311.145 136.169 310.417C136.267 310.37 136.37 310.327 136.474 310.28C138.094 312.354 139.713 314.434 141.385 316.571C141.624 315.832 141.756 315.436 141.883 315.035C142.169 315.225 142.484 315.378 142.737 315.605C142.925 315.779 143.08 316.038 143.183 316.291C144.648 319.859 147.616 321.363 150.39 323.169C150.996 322.741 151.513 322.382 152.132 321.944C154.283 325.285 156.151 328.784 159.922 330.647C159.081 329.043 158.396 327.729 157.71 326.42C157.79 326.319 157.875 326.224 157.954 326.124C158.17 326.224 158.405 326.298 158.602 326.43C163.781 329.845 168.965 333.26 174.134 336.696C177.782 339.119 181.416 341.567 185.051 344.016C189.45 346.972 193.854 349.912 198.225 352.92C204.489 357.227 210.705 361.624 217.373 365.134C221.27 367.187 225.143 369.298 229.026 371.388C229.143 371.446 229.251 371.53 229.374 371.562C229.735 371.662 230.101 371.742 230.669 371.879C229.491 370.369 228.5 369.103 227.5 367.825C229.266 366.374 228.989 366.432 228.172 364.447C227.486 362.79 226.214 363.656 225.486 362.785C225.199 363.466 224.974 363.994 224.683 364.685C223.744 363.54 222.941 362.568 222.072 361.508C222.702 360.969 223.171 360.51 223.692 360.135C224.415 359.618 224.378 358.995 223.918 358.351C223.378 357.591 222.781 356.889 222.148 356.087C221.537 357.148 220.936 358.188 220.162 359.528C218.269 357.486 216.434 355.665 214.776 353.654C213.541 352.155 212.612 350.345 211.419 348.793C209.527 346.339 207.466 344.048 205.597 341.573C201.47 336.105 197.455 330.521 193.319 325.058C189.553 320.076 185.656 315.225 181.872 310.259C177.726 304.822 174.036 298.943 169.425 293.955C169.153 293.66 168.796 293.311 168.749 292.947C168.448 290.493 167.026 288.508 166.575 286.112C166.288 284.587 165.753 283.125 165.331 281.631C165.486 281.531 165.64 281.431 165.791 281.33C167.134 283.051 168.472 284.771 169.81 286.492C169.786 285.98 169.655 285.521 169.43 285.13C168.514 283.521 167.42 282.011 166.659 280.312C165.471 277.657 164.049 274.976 163.575 272.131C163.138 269.545 162.344 267.238 161.368 264.953C160.255 262.351 159.011 259.812 157.818 257.252C157.17 255.864 156.508 254.492 155.865 253.104C155.696 252.734 155.588 252.333 155.391 251.779C155.874 251.747 156.382 251.547 156.551 251.732C157.677 253.003 159.232 253.88 159.368 256.059C159.419 256.904 159.931 257.78 160.391 258.514C161.8 260.773 163.312 262.952 164.744 265.19C167.181 268.996 169.514 272.896 172.04 276.622C174.247 279.884 176.702 282.935 178.98 286.133C181.107 289.12 183.149 292.187 185.224 295.217C186.304 296.795 187.394 298.362 188.45 299.951C188.971 300.743 189.398 301.613 189.938 302.384C190.431 303.086 191.018 303.698 191.798 304.632C191.713 305.799 191.934 306.559 193.497 307.108C195.235 307.709 196.347 309.087 197.62 310.322C198.648 311.32 199.376 312.46 199.287 313.637C199.869 313.747 200.395 313.663 200.643 313.922C203.559 316.951 206.47 319.991 209.301 323.116C211.198 325.206 212.959 327.454 214.79 329.613C216.88 332.072 219.086 334.421 221.063 336.992C223.758 340.491 226.284 344.154 228.871 347.759C229.115 348.107 229.261 348.54 229.453 348.936C229.604 348.777 229.754 348.624 229.904 348.471C228.42 345.025 226.941 341.573 225.448 338.126C222.847 332.136 220.208 326.172 217.645 320.16C215.95 316.186 214.372 312.143 212.715 308.142C210.658 303.192 208.564 298.267 206.503 293.316C206.221 292.641 206.048 291.902 205.822 291.195L206.245 290.894C209.597 295.47 212.527 300.421 215.879 304.997C219.269 309.631 222.664 314.254 226.059 318.883C226.157 318.835 226.256 318.783 226.355 318.735C223.81 312.122 221.27 305.514 218.725 298.901C218.837 298.837 218.945 298.774 219.058 298.711C219.302 299.154 219.579 299.581 219.791 300.046C220.974 302.648 222.227 305.208 223.279 307.873C224.946 312.095 227.495 315.769 229.04 320.076C229.904 322.482 231.214 324.678 232.303 326.985C232.81 328.045 233.238 329.154 233.768 330.199C234.548 331.745 235.421 333.234 236.191 334.785C237.52 337.456 238.792 340.169 240.112 342.845C240.332 343.288 240.684 343.652 241.234 344.407C241.201 343.636 241.252 343.346 241.173 343.109C240.168 340.079 239.323 336.97 238.097 334.062C235.172 327.138 232.055 320.313 229.04 313.431C226.322 307.24 223.664 301.022 220.913 294.852C220.5 293.918 219.725 293.185 219.002 292.203C219.011 292.171 219.157 291.765 219.321 291.295C218.711 291.084 218.236 290.926 217.772 290.767C217.872 289.43 217.315 288.73 216.1 288.667C214.494 288.577 214.339 288.45 213.997 286.624C213.706 285.099 213.447 283.563 213.213 282.027C212.696 278.58 212.086 275.208 210.33 272.184C208.86 269.645 207.606 266.943 206.325 264.272C202.55 256.397 198.7 248.57 195.103 240.595C193.197 236.367 191.065 232.277 189.581 227.759C187.915 222.682 186.445 217.467 183.426 212.976C181.247 209.73 179.806 205.856 178.059 202.251C177.369 200.826 176.745 199.364 176.087 197.912C177.36 197.274 179.074 197.522 179.44 195.453C177.764 194.719 175.881 191.22 176.256 189.124C181.308 196.292 186.224 203.264 191.168 210.273C191.69 210.11 192.159 209.967 192.647 209.814C192.577 208.985 192.516 208.268 192.422 207.191C194.939 211.894 197.263 216.248 199.587 220.597C199.714 220.534 199.841 220.465 199.963 220.396C199.897 220.08 199.864 219.742 199.761 219.441C199.357 218.322 198.878 217.235 198.549 216.095C198.446 215.731 198.723 215.229 198.822 214.796C199.16 215.118 199.61 215.377 199.794 215.789C199.953 216.142 199.639 216.929 199.817 217.076C201.737 218.633 202.132 221.272 203.385 223.299C204.517 225.141 205.221 227.31 206.259 229.242C206.728 230.118 207.498 230.826 208.231 231.464C208.484 231.686 209.161 231.649 209.424 231.417C209.654 231.211 209.757 230.477 209.616 230.139C209.353 229.527 208.931 228.957 208.47 228.498C207.301 227.337 207.203 226.535 208.315 224.835C209.409 227.115 210.602 229.216 211.471 231.48C212.95 235.328 214.161 239.302 215.602 243.171C217.128 247.266 218.786 251.299 220.387 255.357C220.734 254.983 220.777 254.724 220.73 254.487C219.983 250.75 219.251 247.018 218.467 243.297C217.8 240.115 217.124 236.927 216.363 233.771C214.213 224.856 212.015 215.958 209.846 207.048C208.945 203.343 207.837 199.691 207.799 195.775C207.785 194.429 207.752 193.014 207.4 191.753C206.447 188.37 206.512 184.881 206.348 181.419C206.325 180.907 206.775 180.368 207.005 179.841C208.827 184.538 209.879 189.299 211.776 193.584C213.72 197.981 214.443 202.8 216.288 207.217C216.161 204.737 215.814 202.325 215.448 199.918C215.081 197.469 214.696 195.02 214.321 192.571C213.959 190.201 213.598 187.826 213.236 185.456C212.87 183.007 212.499 180.553 212.133 178.104C211.785 175.74 211.226 173.391 211.405 170.609C211.781 171.074 211.935 171.195 212.015 171.369C213.668 174.974 215.316 178.584 216.964 182.195C217.598 183.588 218.251 184.95 219.556 185.757C220.035 186.058 220.387 186.623 220.777 187.082C225.387 192.455 229.993 197.833 234.609 203.201C234.656 203.254 234.815 203.18 234.952 203.164C234.041 200.947 233.13 198.73 232.219 196.519C232.322 196.461 232.425 196.397 232.529 196.339C235.421 200.72 238.313 205.101 241.206 209.482C241.328 209.387 241.45 209.297 241.567 209.202C241.473 208.964 241.393 208.716 241.276 208.495C239.041 204.272 236.82 200.039 234.548 195.843C232.538 192.138 230.716 188.333 229.416 184.248C228.007 179.819 226.819 175.302 225.303 170.926C222.495 162.824 220.631 154.406 218.509 146.077C217.391 141.697 216.65 137.2 215.776 132.745C215.372 130.676 215.053 128.586 214.64 126.201C216.344 127.188 217.743 127.948 219.1 128.787C220.748 129.811 222.401 130.835 223.979 131.98C225.514 133.099 226.932 134.408 228.439 135.569C230.308 136.999 232.543 137.68 234.275 139.48C235.172 140.409 236.623 140.673 237.717 141.185C234.167 136.582 230.58 132.006 227.087 127.346C225.833 125.678 224.847 123.752 223.645 122.026C221.913 119.529 220.021 117.17 218.326 114.647C216.645 112.146 215.119 109.517 213.537 106.936C213.274 106.514 213.072 106.05 212.842 105.606C212.889 105.585 212.936 105.559 212.983 105.538C216.8 109.459 220.612 113.375 224.429 117.297L224.556 117.123C217.589 106.609 210.616 96.09 203.583 85.4708C205.188 84.4891 206.555 83.6499 208.02 82.7526C207.405 81.5862 207.94 80.9423 208.733 80.2984C212.781 77.0208 216.79 73.6904 220.828 70.4022C225.678 66.4491 230.627 62.67 235.881 59.4188C239.365 57.2549 242.83 55.0592 246.3 52.8636C248.995 51.1536 251.69 49.4488 254.362 47.6965C255.676 46.8362 256.944 45.8756 258.493 44.7725C257.667 44.5983 257.277 44.5139 256.888 44.4295C256.897 44.345 256.906 44.2606 256.916 44.1708V44.1708ZM159.264 271.197C159.537 271.582 159.687 272.147 160.03 272.389C162.551 274.184 162.814 277.282 163.598 280.079C163.899 281.145 164.223 282.201 164.537 283.257C162.213 280.692 156.518 271.682 156.48 267.782C157.865 268.721 158.461 270.067 159.264 271.197ZM149.597 135.595C150.616 134.74 151.48 133.458 152.067 132.165C153.043 130.022 153.705 127.694 154.574 125.483C155.114 124.095 155.785 122.77 156.541 121.097C157.461 121.904 158.194 122.337 158.673 123.002C161.504 126.897 164.495 130.661 166.396 135.305C166.932 136.619 166.894 137.802 165.856 138.683C163.176 140.979 160.25 142.494 156.748 142.045C153.424 141.618 150.095 141.264 146.77 140.836C145.456 140.668 144.155 140.383 143.132 139.031C145.813 138.984 147.7 137.189 149.597 135.595V135.595ZM126.651 98.0059C129.393 100.165 132.102 102.371 134.802 104.598C136.07 105.648 137.263 106.815 138.516 107.881C139.235 108.488 139.366 109.19 139.108 110.124C138.511 112.288 137.934 114.457 137.422 116.648C137.248 117.392 137.324 118.205 137.234 118.98C137.047 120.585 136.755 122.179 136.638 123.794C136.563 124.765 136.718 125.763 136.788 126.744C136.892 128.111 137.432 129.505 136.469 131.093C136.018 130.434 135.544 129.953 135.309 129.357C133.657 125.129 131.783 120.981 131.98 116.125C132.013 115.296 131.337 114.304 130.774 113.608C128.867 111.259 126.853 109.016 124.905 106.715C124.576 106.329 124.346 105.844 124.074 105.406C124.153 105.274 124.233 105.136 124.313 105.004C127.421 105.506 129.905 107.76 132.732 109.19C130.403 104.419 127.257 100.439 124.05 96.4014C124.919 96.9292 125.844 97.3726 126.651 98.0059V98.0059ZM65.5898 134.102C65.8387 140.361 68.4633 145.439 69.7076 150.949C69.8578 151.619 70.102 152.263 70.3461 153.071C64.8855 149.017 62.0262 143.069 65.5898 134.102V134.102ZM76.4264 176.61C76.0179 176.447 75.4076 176.141 75.1728 176.331C73.614 177.619 72.2758 176.494 70.9471 175.898C68.4962 174.795 66.0781 173.591 63.6836 172.346C59.2184 170.024 54.7955 167.606 50.3209 165.3C49.4242 164.835 48.3771 164.434 47.4193 164.492C46.1798 164.571 45.5788 163.891 44.9167 162.925C45.4614 162.455 45.9591 162.054 46.4239 161.61C46.8746 161.178 47.2925 160.703 47.8278 160.138C48.5321 160.439 49.3913 160.803 50.3491 161.209C50.8374 158.813 48.3959 159.848 48.1001 158.655C48.7621 158.322 49.3678 158.011 49.9782 157.705C50.0486 157.457 50.6919 158.349 51.7389 157.335C52.0065 157.077 52.7343 157.367 53.2367 157.483C53.7109 157.594 54.1851 157.995 54.6265 157.942C57.284 157.61 59.2841 159.019 61.3453 160.66C63.1295 162.075 65.1579 163.157 67.1721 164.144C70.872 165.96 74.6328 167.606 78.3796 169.29C79.145 169.633 79.9619 169.818 80.901 170.124C77.3936 164.703 73.2571 160.439 69.177 156.116C69.2427 155.979 69.3132 155.847 69.3789 155.715C70.6842 156.443 71.9894 157.166 73.2994 157.895C73.3511 157.805 73.4074 157.721 73.4637 157.631C73.2008 157.309 72.9379 156.982 72.4308 156.354C73.4168 156.718 74.1305 156.934 74.8113 157.246C80.6615 159.906 86.5822 162.402 92.3198 165.342C95.3388 166.888 98.0386 169.211 100.879 171.185C102.316 172.188 103.781 173.153 105.166 174.241C105.988 174.885 106.715 175.703 107.438 176.494C110.007 179.323 112.58 182.147 115.101 185.023C116.298 186.396 117.383 187.889 118.66 189.51C115.852 194.629 112.19 198.994 108.528 203.897C107.565 202.034 106.593 200.562 105.997 198.91C103.837 192.94 100.184 188.375 95.7238 184.501C93.0898 182.21 90.5168 179.83 87.7419 177.65C88.958 179.466 90.1694 181.281 91.4746 183.229C90.3853 183.846 89.5965 183.319 88.958 182.395C87.756 180.659 86.5071 178.949 85.446 177.112C83.8167 174.304 81.4691 172.853 78.6848 172.082C78.1965 171.945 77.7317 171.654 77.2387 171.596C76.8725 171.549 76.2856 171.628 76.1541 171.881C76.0086 172.172 76.1353 172.826 76.356 173.138C77.0509 174.135 77.8679 175.022 78.5768 176.009C78.774 176.283 78.7506 176.758 78.8304 177.138C78.4876 177.202 78.1167 177.392 77.8068 177.307C77.3279 177.17 76.9006 176.8 76.4264 176.61V176.61ZM95.1041 190.549C94.9773 190.634 94.8458 190.724 94.7144 190.813C93.9913 189.663 93.2682 188.512 92.4888 187.272C92.8597 186.823 93.0663 186.565 93.3293 186.248C93.9302 187.699 94.5172 189.124 95.1041 190.549V190.549ZM89.7327 195.067C86.2629 194.92 83.0138 194.17 79.8305 192.756C83.3942 191.721 87.0376 191.436 89.7327 195.067ZM143.385 301.645C142.85 300.838 142.244 300.083 141.798 299.217C140.85 297.391 139.986 295.507 139.089 293.644C136.591 288.455 133.981 283.331 131.642 278.047C130.22 274.833 129.149 271.424 127.299 268.447C126.064 266.457 124.83 264.457 123.717 262.382C122.36 259.849 121.116 257.242 119.857 254.645C118.167 251.172 116.51 247.678 114.829 244.195C114.749 244.031 114.566 243.931 114.204 243.915C115.495 248.021 116.791 252.127 118.083 256.234C118.003 256.292 117.923 256.344 117.843 256.402C117.106 255.051 116.369 253.7 115.627 252.349C115.477 252.433 115.326 252.523 115.176 252.608C116.951 257.595 119.449 262.229 121.374 267.148C121.238 267.228 121.106 267.312 120.97 267.396C120.017 265.723 119.13 264.003 118.101 262.393C114.693 257.031 111.256 251.689 107.781 246.38C107.18 245.461 106.903 244.606 106.96 243.445C107.129 240.062 108.021 236.7 107.232 233.259C107.11 232.715 107.448 231.913 107.776 231.385C108.542 230.134 108.523 229.179 107.293 228.714C105.851 228.165 105.377 227.078 105.232 225.595C105.006 223.336 103.983 221.895 102.283 220.528C100.039 218.728 98.2217 216.264 96.2309 214.068C95.752 213.546 95.3952 212.96 96.1088 212.205C99.095 213.477 100.551 216.95 103.598 218.723C103.26 218.027 103.1 217.557 102.837 217.182C102.574 216.802 102.17 216.549 101.898 216.179C100.762 214.649 99.541 213.176 98.555 211.529C96.8929 208.743 94.3575 207.502 91.747 206.436C88.3758 205.053 84.9483 203.834 81.5348 202.567C80.361 202.135 79.1637 201.77 78.0228 200.973C80.1075 201.174 82.225 201.195 84.2769 201.617C88.5683 202.499 92.8597 203.449 97.0807 204.684C98.5269 205.111 99.7523 206.484 101.095 207.402C101.499 207.676 101.997 208.157 102.363 208.067C103.635 207.756 104.391 208.6 105.222 209.365C106.682 210.722 108.152 212.062 109.523 213.582C109.34 212.659 109.772 211.471 108.903 210.199C108.335 209.365 108.359 208.173 109.091 207.233C111.077 204.684 113.059 202.124 115.054 199.585C116.228 198.097 117.435 196.64 118.618 195.157C119.247 194.371 119.853 193.563 120.468 192.761C120.665 192.872 120.857 192.983 121.055 193.093C121.017 193.537 121.125 194.117 120.918 194.402C118.989 197.036 117.059 199.68 115.002 202.193C114.42 202.9 113.42 203.174 112.195 203.887C115.134 204.626 117.702 205.275 120.111 205.882C118.961 210.579 117.815 215.198 116.702 219.826C115.589 224.434 114.514 229.057 113.383 233.855C114.143 233.918 114.876 233.982 115.768 234.056C116.143 235.539 116.425 237.133 116.951 238.616C118.519 243.039 120.139 247.446 121.829 251.816C122.764 254.223 123.867 256.545 124.919 258.894C128.05 265.861 131.271 272.78 134.3 279.805C135.333 282.206 136.474 284.518 137.563 286.877C139.76 291.638 141.77 296.504 143.855 301.328C143.7 301.434 143.54 301.54 143.385 301.645ZM140.831 224.149C141.361 225.157 140.887 225.722 140.648 226.44C139.657 229.4 137.601 231.116 135.253 232.467C135.103 232.377 134.957 232.288 134.807 232.193C135.173 231.116 135.413 229.949 135.929 228.968C137.286 226.403 137.535 223.816 136.624 220.998C136.333 220.101 136.323 219.024 136.394 218.053C136.441 217.404 136.704 216.533 137.131 216.206C138.408 215.245 138.22 213.804 137.826 212.764C136.483 209.218 136.323 205.37 135.342 201.739C134.572 198.894 134.121 195.944 133.549 193.035C133.459 192.576 133.464 192.096 133.422 191.626C133.525 191.605 133.633 191.579 133.736 191.552C134.403 194.197 135.028 196.851 135.746 199.48C136.45 202.05 137.305 204.573 137.995 207.149C138.432 208.78 138.657 210.479 139.042 212.131C139.338 213.424 139.831 214.664 140.061 215.968C140.361 217.646 140.521 219.357 140.671 221.061C140.765 222.101 140.413 223.363 140.831 224.149V224.149ZM147.625 207.486C147.55 207.354 147.47 207.223 147.395 207.091C148.113 206.536 148.789 205.898 149.559 205.454C150.921 204.668 151.174 204.246 150.564 202.625C149.329 199.369 148.005 196.149 146.733 192.909C146.282 191.748 145.869 190.565 145.7 189.225C146.888 191.394 148.118 193.537 149.249 195.743C150.404 197.986 151.466 200.293 152.719 202.884C152.16 200.198 151.635 197.796 151.17 195.379C151.043 194.698 151.095 193.98 151.268 193.236C153.776 196.033 154.297 199.87 155.945 203.306C153.405 205.381 150.512 206.431 147.625 207.486V207.486ZM167.256 167.849C163.1 166.989 158.879 166.524 154.682 165.923C152.733 165.648 150.766 165.511 148.827 165.168C147.822 164.994 146.991 165.147 146.132 165.748C142.164 168.525 138.183 171.274 134.173 173.982C133.272 174.589 132.248 174.974 131.234 175.486C131.408 178.637 131.577 181.672 131.76 184.981C130.483 181.266 129.281 177.766 127.994 174.03C128.173 173.84 128.365 173.539 128.628 173.37C131.699 171.412 134.812 169.538 137.845 167.517C140.39 165.822 142.859 163.996 145.324 162.175C146.395 161.384 147.428 161.31 148.709 161.468C154.705 162.223 160.396 164.534 166.307 165.685C168.542 166.123 170.786 166.519 173.467 167.015C171.148 167.743 169.354 168.287 167.256 167.849V167.849ZM188.844 161.811C187.957 162.091 187.079 162.418 186.196 162.724C186.131 162.587 186.065 162.45 185.999 162.312C186.253 162.122 186.501 161.927 186.755 161.742C190.098 159.346 189.417 160.28 188.722 156.016C188.436 154.242 188.013 152.501 187.652 150.748C187.821 150.69 187.994 150.632 188.168 150.58C188.999 153.002 189.797 155.441 190.666 157.847C191.69 160.708 191.596 160.951 188.844 161.811V161.811Z" stroke="white" stroke-width="1.99399" mask="url(#path-1-inside-1_315_29)"/>
<path d="M209.973 233.056C210.385 233.881 210.761 234.725 211.135 235.579C210.637 234.845 210.148 234.113 209.686 233.353C209.686 233.348 209.686 233.342 209.686 233.336C209.685 233.283 209.693 233.21 209.711 233.131C209.721 233.083 209.734 233.039 209.747 233.003C209.779 233.005 209.816 233.01 209.855 233.018C209.905 233.029 209.946 233.044 209.973 233.056Z" stroke="white" stroke-width="0.996995"/>
</g>
<defs>
<clipPath id="clip0_315_29">
<rect width="268.192" height="371.879" fill="white" transform="translate(0.551514)"/>
</clipPath>
</defs>
</svg>
