<?xml version="1.0" encoding="UTF-8"?>
<svg id="Layer_2" data-name="Layer 2" xmlns="http://www.w3.org/2000/svg" viewBox="0 0 1752.98 511.09">
  <defs>
    <style>
      .cls-1 {
        fill: #fff;
      }

      .cls-2 {
        fill: none;
      }
    </style>
  </defs>
  <g id="Layer_2-2" data-name="Layer 2">
    <g>
      <g>
        <path d="m1227.36,280.96c1.51-.34,3.03-.68,4.54-1.02-.7,1.33-1.31,2.73-2.12,3.99-5.63,8.78-14.07,15.64-17.68,25.81-.61,1.7-1.3,3.38-1.82,5.11-.53,1.74-.83,4-2.1.3,0-.03-1.51.16-1.68.54-1.32,3-2.45,6.08-3.69,9.12-.62,1.52-1.13,2.26-2.55.32-3.92-5.36-8.19-10.47-12.05-15.87-.7-.98-4.47-1.92-1.06-4.18-.39-.51-.68-1.16-1.18-1.52-2-1.46-4.09-2.79-6.09-4.25-1.33-.97-2.81-1.89-3.78-3.17-1.17-1.56-2.26-3.39-2.7-5.27-.77-3.29,2.68-2.08,4.03-3.15,2.41-1.9,5.16-3.36,7.81-4.94,1.83-1.09,3.21-8.5,1.62-9.94-.51-.47-1.79-.26-2.67-.12-4.24.7-8.47,1.49-12.7,2.25-.09-.4-.18-.8-.27-1.21,3.89-.9,7.8-1.76,11.68-2.72,1.19-.29,2.3-.88,3.45-1.33-1.2-.2-2.49-.81-3.58-.55-7.11,1.7-14.34,3.1-21.2,5.53-7.81,2.76-15.1,7.02-22.95,9.65-12.25,4.1-20.53,13.23-29.53,21.56-.59.54-1.05,1.22-1.19,2.38,1.77-1.03,3.53-2.05,5.3-3.08.18.21.36.43.54.64-3.83,3.14-7.65,6.29-11.5,9.4-4.38,3.55-8.73,7.14-13.2,10.56-2.08,1.59-4.33,3.02-6.66,4.22-2.48,1.27-4.36.52-5.54-2.2-.46-1.07-.67-1.36.36-2.29,1.77-1.6,3.51-3.43,2.46-6.39-.18-.51,1.28-1.73,2.14-2.44,7.2-5.92,14.45-11.78,21.64-17.71.93-.77,1.59-1.85,2.38-2.79-1.08.55-2.27.95-3.22,1.67-6.85,5.22-13.66,10.5-20.47,15.77-3.16,2.45-3.8,2.16-4.56-1.77-.5-2.57-1.18-5.11-1.96-7.6-.26-.82-1.11-1.46-1.69-2.18-.05.87-.26,1.76-.14,2.61.62,4.25,1.37,8.48,1.93,12.73.08.57-.64,1.25-.98,1.88-.35-.51-.96-.99-1.02-1.53-.77-7.41-1.66-14.81-2.07-22.24-.19-3.46.63-6.88,3.16-9.74.87-.98,1.17-2.75,1.16-4.16,0-1.37-.72-2.75-1.13-4.12-1.02.52-2.05,1.02-3.06,1.55-2.5,1.3-4.96,2.69-7.53,3.84-.69.31-1.72-.16-2.6-.27.4-.64.65-1.52,1.23-1.89,2.11-1.32,4.38-2.4,6.49-3.73.88-.56,1.51-1.52,2.25-2.3-1.18-.31-2.38-.92-3.54-.87-2.3.1-4.58.57-6.86.89-.08-.35-.16-.71-.23-1.06,3.89-.89,7.79-1.79,11.68-2.66.97-.22,1.99-.28,2.94-.54.37-.1.64-.57.96-.87-.4-.22-.82-.66-1.18-.61-3.44.48-6.91.87-10.29,1.62-13.08,2.89-25.02,8.81-37.37,13.73-11.47,4.56-19.69,12.76-28.35,20.72-.65.6-1,1.52-1.49,2.29.87-.28,1.77-.47,2.58-.86.71-.34,1.31-.91,1.96-1.38.23.27.46.53.69.8-1.9,1.55-3.81,3.09-5.7,4.65-1.93,1.58-3.83,3.18-5.78,4.73-.51.41-1.27.56-1.69,1.03-.61.69-1.01,1.55-1.51,2.34.79.19,1.58.5,2.38.55,3.95.25,7.91.35,11.85.68,1.27.11,2.5.73,3.75,1.12,0,0,.11-.15.11-.15-5.3,1.23-10.58,2.6-15.93,3.63-1.86.36-4.07-.68-5.79-.11-4.18,1.4-8.24,3.23-12.21,5.18-2.19,1.08-3.8,1.47-5.76-.47-.79-.78-2.57-1.02-3.8-.83-21.56,3.32-41.86,10.7-61.43,20-13.35,6.34-26.26,13.63-39.29,20.64-2.76,1.49-5.16,3.64-7.78,5.41-4.3,2.91-8.87,5.46-12.88,8.71-3.64,2.95-6.68,6.63-9.45,10.74.86-.35,1.76-.63,2.56-1.07,31.43-17.34,64.94-28.81,100.09-35.71,14.5-2.84,29-5.41,43.86-5.65,8.15-.13,16.27-1.31,24.42-1.61,3.93-.15,7.89.92,11.83.94,5.1.03,10.2-.46,15.3-.68.99-.04,2.1-.2,2.96.16,4.44,1.84,11.1,3.41,14.13,2.06,2.17-.98,3.41-1.23,5.47.11,1.18.77,3.44.7,4.87.14,7.27-2.87,14.81-.53,22.17-1.45,3.28-.41,6.67-.93,9.91-.55,7.21.84,13.98-1.46,20.91-2.42,7.23-1,14.44-2.39,21.52-4.16,13.2-3.3,24.25-10.69,34.49-19.34,3.04-2.56,2.55-4-.53-6.77-5.57-5.01-12.21-7.94-19.11-10.5-1.1-.41-2.66-1.13-2.89-2-.35-1.34,3.4-4.01,4.77-3.32,3.52,1.75,7.51,1.34,11.04,4.1,6.5,5.1,14.04,8.85,21.01,13.37,2.46,1.6,4.52,3.82,6.71,5.81.26.24.19.85.27,1.29-.45-.07-1.02,0-1.33-.24-2.56-2.11-5.04-4.32-7.63-6.39-.5-.4-1.41-.29-2.13-.41.33.51.54,1.19,1,1.49,8.64,5.65,12.16,15.07,15.47,23.82,2.92,7.71,1.61,16.46-3.39,23.86-.33.49-.93.81-1.41,1.2-.29-.55-.71-1.07-.84-1.66-.14-.63-.12-1.34.01-1.97,1.94-9.14.32-18.29-.5-27.32-.7-7.81-6.15-13.39-12.25-18.02-.3-.23-1.4.13-1.78.54-1.45,1.6-2.58,3.53-4.16,4.95-2.83,2.55-5.64,5.28-8.92,7.11-7.67,4.29-15.73,7.9-23.42,12.15-7.79,4.31-16.39,5.29-24.88,6.63-6.84,1.09-13.79,1.62-20.72,2.05-9.66.6-19.37,1.47-29.01,1.09-7.2-.29-14.45.39-21.71-1.2-4.72-1.04-9.92.17-14.9.18-11.14.02-22.3-.55-33.4,0-11.76.57-23.49,1.95-35.18,3.34-24.01,2.84-47.47,8.2-70.49,15.63-18.1,5.84-35.67,12.86-52.39,21.97-2.16,1.18-3.89,2.28-4.22,5.02-.14,1.17-1.15,2.32-1.97,3.3-2.03,2.43-4.08,4.83-6.29,7.09-2.33,2.38-3.8,5.86-7.81,6.26-.46.05-.8,1.31-1.19,2-1.46,1.66-3.73,2.91-2.91,5.73-2.72,4.03-5.44,8.07-8.15,12.1-.46.33-.92.65-1.38.98-1.84,3.12-3.69,6.24-5.51,9.38-1.06,1.84-2.05,3.71-3.35,5.44,1.3-13.09,5.76-25.07,12.33-36.36-.57-.16-.9-.37-1.13-.29-1.36.46-2.7.99-4.05,1.5,1.03-1.08,1.91-2.39,3.12-3.21,7.8-5.29,11.4-13.77,15.95-21.41,1.44-2.42,1.09-6.14.92-9.23-.53-9.27-1.27-18.53-2.16-27.78-.43-4.43-1.9-8.79-2.02-13.21-.2-7.59.27-15.2.52-22.79.03-.79.26-1.77.77-2.31,1.85-1.98,1.22-3.69-.54-5.09-1.57-1.24-1.26-2.49-1.19-4.27.29-8.26.12-16.53.11-24.8,0-.5-.2-1.03-.08-1.49,2-7.99-.27-16.03.29-24.07.58-8.36.61-16.81-.05-25.15-.25-3.15-.17-6.1.12-9.18.4-4.15-1.57-7.05-4.56-7.77-1.68-.4-1.96.09-1.87,1.67.96,16.43,2.71,32.89,1.26,49.33-.84,9.52.3,18.89.16,28.34-.3,19.71-.28,39.42-.34,59.13,0,2.13.37,4.25.44,6.38.03.98-.03,2.12-.49,2.92-.68,1.17-1.77,2.11-2.68,3.14-.33-1.19-.92-2.38-.94-3.57-.08-4.1.32-8.23.04-12.32-1-14.61.76-29.22-.06-43.83-.12-2.11-.1-3.34-2.7-1.84-5.15,2.99-9.89,6.31-13.81,10.96-4.03,4.79-6.77,10.29-10.01,15.52-.7,1.13-1.2,2.5-2.17,3.3-.71.58-2.04.38-3.1.53.29-.81.44-1.71.88-2.43,2.33-3.86,4.17-7.86,3.64-12.53-.33-2.89,1.57-6.39-2.22-8.37-1.41-7.62-7.84-12.3-11.2-18.8-.98-1.9-1.8-3.29-1.21-5.36.16-.55-.1-1.22-.17-1.83-.57.23-1.39.29-1.66.71-3.69,5.68-7.97,11.11-10.78,17.21-4.25,9.25-7.45,18.98-11.12,28.5-.34.88-.88,1.69-1.33,2.53-.64-.92-1.51-1.75-1.88-2.77-1.13-3.07-2.37-6.15-3.01-9.34-1.4-6.94-6.22-11.99-9.49-17.87-2.16-3.88-4.82-7.54-7.7-10.91-1.3-1.52-1-2.17.09-3.17,1.98-1.82,2.32-3.63,1.81-6.51-.89-4.98.29-10.41-1-15.22-1.04-3.9.3-7.25.11-10.83-.04-.67.22-1.56-.11-1.96-2.43-2.91-1.14-6.46-1.58-9.65-.39-2.85.86-5.89.92-8.85.09-4.17-.18-8.36-.45-12.53-.16-2.62-.52-5.23-.93-7.82-.14-.88-.5-2.18-1.12-2.44-4.22-1.75-8.18-4.37-13.28-2.91-2.88.82-4.33,2.1-4.32,5.04.06,9.15.28,18.29.09,27.44-.11,5.03.35,10.06-.98,15.15-.86,3.3.23,7.07.22,10.63-.03,5.86-.26,11.71-.38,17.57-.1,4.52-.12,9.03-.26,13.55-.29,9.69-.8,19.38-.91,29.07-.07,6.12.76,12.25.5,18.35-.16,3.72-1.35,7.48-2.54,11.07-4.49,13.56-9.25,27.03-13.74,40.59-1.03,3.12-1.32,6.48-2.12,9.68-.21.84-1.1,1.52-1.68,2.27-.57-.87-1.28-1.69-1.65-2.65-.2-.53.2-1.29.28-1.94,1.65-13.91,2-27.81.05-41.75-.9-6.4-1.24-12.87-1.9-19.3-.07-.73-.6-1.41-.91-2.11-.27.7-.76,1.4-.77,2.1-.06,5.33.02,10.66-.04,15.99-.01,1.28,0,2.87-.7,3.76-1.15,1.46-2.88,2.47-4.37,3.67-.19-1.56-.55-3.12-.56-4.68-.06-17.28-.04-34.55-.09-51.83-.04-14.62-.16-29.23-.17-43.85-.01-15.96-.07-31.92.17-47.88.06-4.21-.89-7.16-5.25-8.25-1.87-.47-2.2-1.15-.61-2.55,1.49-1.32,2.96-2.73,4.08-4.35.89-1.28,1.72-2.93,1.74-4.43.16-12.6-.05-25.2.23-37.8.15-6.92,1.08-13.81,1.51-20.72.09-1.38-.39-2.84-.82-4.2-.3-.93-.95-1.75-1.5-2.59-1.39-2.15-2.81-4.27-4.22-6.41-2.58,1.8-5.17,3.6-7.73,5.43-.25.18-.36.55-.53.83.39.09.86.37,1.15.24,2.44-1.14,2.43.05,2.19,2-.47,3.82.29,7.88-3.69,10.67-.92.64-.7,3.11-.75,4.75-.29,8.77-.67,17.55-.66,26.32,0,4.81.31,9.69,1.2,14.4.88,4.64-1.63,9.7,1.82,13.96-2.91,6.37-1.01,13.07-1.14,19.58-.31,16.13-.08,32.27-.07,48.41,0,2.75,1.23,4.7,2.79,7.04,3.63,5.42,6.73,11.37,7.29,18.09.09,1.09-1.45,2.44-2.45,3.46-1.03,1.04-2.29,1.86-3.52,2.68-9.32,6.21-14.41,15.92-20.57,24.75-.64.91-1.47,1.89-2.45,2.3-.72.31-1.81-.24-2.74-.4.25-.73.35-1.58.79-2.16,3.83-5.11,5.08-11.26,3.83-17-1.11-5.12-4.45-9.84-7.24-14.47-2.31-3.83-5.26-7.27-7.91-10.9-2.9-3.98-2.86-4.83.43-8.48.66-.74,1.43-1.38,2.14-2.07,1.82-1.77,3.08-3.01,2.47-6.48-1.02-5.79.04-11.94.11-17.94.02-1.94-.49-3.89-.47-5.84.06-5.85.43-11.71.35-17.55-.07-5.26-.37-10.53-.98-15.75-.38-3.25-3.75-4.17-6.2-1.89-7.84,7.28-14.55,15.4-19.76,24.85-3.85,6.98-7.8,13.84-9.99,21.57-.49,1.75-1.14,2.75,1.57,3.44,2.81.72,2.06,3.61,1.11,5.49-4.86,9.68-9.39,19.58-15.08,28.76-2.89,4.67-6.98,8.92-12.22,11.81-2.53,1.4-3.55.96-4.71-1.02-.66-1.13-1.59-2.45-1.5-3.62.31-4.17-3.4-3.25-5.33-4.55-1.09,1.67-2.07.97-3.14-.08-2.64-2.57-5.73-2.22-8.98-1.46-.88.2-2.29-.19-2.91-.84-5.95-6.26-11.98-12.46-17.55-19.05-2.6-3.08-3.22-7.03-2.35-11.3,1.36-6.61,2.58-13.32,3.03-20.04.31-4.64,1.02-9.28.47-14.05-.59-5.16-.21-10.47.14-15.69.3-4.46-.4-5.82-4.91-6.93-2.23-.54-4.47-1-7.95-1.78,3.75-1.56,6.42-2.74,9.15-3.78,2.22-.85,3.38-1.92,3.33-4.72-.19-9.75.04-19.51.08-29.27,0-.42-.23-.83-.35-1.25-.56.3-1.19.52-1.68.91-7.01,5.63-13.88,11.44-21.01,16.9-17.97,13.75-36.06,27.36-54.12,41.01-3.57,2.7-3.86,4.38-1.07,7.69,5.69,6.73,11.42,13.43,17.17,20.1,2.25,2.61,2.64,2.48,4.67-.37,2.48-3.48,5.08-6.87,7.69-10.26.32-.41,1.05-.51,1.58-.75-.03.62.12,1.32-.14,1.83-.36.71-1.07,1.24-1.53,1.91-.65.96-1.22,1.98-1.82,2.98.93-.57,2-1,2.76-1.74,6.36-6.21,12.66-12.49,18.98-18.74l-.16.15c1.95-1.99,3.88-4,5.85-5.97.41-.41.95-.67,1.43-1.01-.06.62-.12,1.25-.19,1.87-.18,1.72,0,3.58-.6,5.14-5.36,13.77-10.73,27.55-16.39,41.2-1.56,3.76-4.46,6.95-6.15,10.67-3.85,8.46-7.3,17.1-10.97,25.63-1.55,3.61-3.33,7.13-4.84,10.76-.47,1.14-.26,2.55-.63,3.76-.19.63-.97,1.08-1.48,1.62-.35-.49-.89-.93-1.02-1.48-1.09-4.5-2.11-9.02-3.13-13.54-.11-.48.05-1.08-.17-1.47-1.84-3.18-2.47-6.42-1.05-9.96.14-.36-.8-1.16-1.25-1.75-2.04,2.2-3.05-.05-3.72-1.17-7.99-13.56-19.4-24.35-29.22-36.43-.42-.51-.94-.94-1.38-1.44-1.93-2.18-3.58-5.72-5.84-6.16-1.94-.38-4.56,2.79-6.89,4.38-4.53,3.1-9.07,6.2-13.61,9.28-3.67,2.48-3.98,2.74-.96,6.22,3.02,3.48,6.66,6.43,10.17,9.45,8.38,7.21,16.21,14.94,21.44,24.79,8.55,16.11,9.59,32.5-.55,48.25-6.86,10.65-16.89,18.24-27.73,24.67-.73.43-1.79.28-2.7.4.33-.74.62-1.5,1.01-2.2,3.1-5.68,6.78-11.11,9.2-17.06,4.93-12.09,3.4-24.04-2.45-35.55-4.68-9.21-11.47-16.71-19.09-23.5-4.85-4.32-9.95-8.35-14.8-12.67-1.43-1.27-2.25-1.27-3.73-.1-17.1,13.47-35.99,23.96-55.69,33.05-3.77,1.74-7.71,3.12-11.59,4.6-.55.21-1.25.05-1.88.05.15-.75.03-1.86.49-2.2,2.11-1.58,4.27-3.14,6.6-4.34,9.77-5.01,19.74-9.63,29.38-14.87,9.78-5.31,19.72-10.47,27.83-18.36.71-.7,1.54-1.29,2.16-2.06.77-.97.65-1.49-.75-2.05-3.45-1.4-6.89-2.63-9.41-5.97-1.52-2.02-4.39-1.05-6.81.35-13.12,7.55-26.22,15.16-39.57,22.29-18.4,9.83-37.96,16.92-57.7,23.49-10.1,3.36-20.23,6.63-30.35,9.92-1.58.51-3.18,1.04-4.81,1.3-.95.15-1.99-.23-2.99-.37.81-.64,1.6-1.31,2.44-1.91,1.42-1.03,2.77-2.21,4.32-2.98,7.28-3.61,14.51-7.35,21.96-10.59,22.27-9.68,44.7-19,66.91-28.82,5.39-2.38,10.32-5.93,15.17-9.35,11.28-7.96,22.35-16.21,33.56-24.27,7.01-5.03,14.05-10.03,21.24-14.79,1.63-1.08,3.97-1.09,5.98-1.59-.87,1.8-1.72,3.61-2.63,5.39-.75,1.46-1.57,2.89-2.36,4.33-5.07,1.31-6.29,4.46-3.25,8.56.36.49,1,.77,1.51,1.14.23-.55.44-1.11.71-1.64.25-.49.56-.94.85-1.41.33.35.74.65.96,1.06,1.48,2.74,2.86,5.54,4.43,8.22.35.6,1.35.82,2.06,1.22.08-.82.41-1.73.18-2.45-.29-.91-1.14-1.62-1.57-2.5-2.04-4.1-4.03-8.23-6.03-12.35,1.99,2.34,4.13,4.58,5.92,7.07,1.53,2.13,2.94,4.44,3.88,6.87.9,2.33,1.36,2.69,3.58,1.04,8.26-6.16,16.71-12.07,25.15-17.98,4.68-3.28,4.94-3.3,2.58-8.37-2.66-5.72-2.9-11.82-3.36-17.88-.29-3.82-1.02-6.92-5.61-7.26-.31-.02-.66-.19-.92-.38-1.04-.77-2.05-1.57-3.07-2.36.97-.75,1.84-1.91,2.93-2.17,4.67-1.12,6.46-3.81,6-8.64-.36-3.77.12-7.62.17-11.43,0-.61-.24-1.22-.36-1.83-.6.43-1.35.75-1.78,1.32-4.41,5.83-8.32,12.11-13.23,17.47-8.97,9.8-18.27,19.32-27.91,28.46-8.07,7.65-16.45,15.09-25.37,21.71-11.47,8.51-23.49,16.31-35.52,24.03-20.43,13.09-42.87,21.83-65.75,29.52-6.6,2.22-13.44,3.74-20.01,6.05-2.21.78-2.91-1.1-4.43-1.25-.15-.02-.43-.98-.32-1.06,1.87-1.35,3.61-3.13,5.71-3.83,13.87-4.64,28-8.55,41.7-13.63,22.66-8.39,44.35-18.74,64.26-32.74,10.12-7.11,19.42-15.11,28.55-23.32,9.01-8.1,17.38-16.9,26.2-25.22,5.14-4.84,7.22-11.48,10.87-17.19,8.71-13.63,14.78-28.51,20.39-43.6.4-1.09.85-2.23.89-3.35.02-.48-1.25-1.53-1.45-1.42-2.26,1.2-3.72-.22-5.42-1.31-4.9-3.13-9.88-6.13-14.8-9.22-.93-.58-1.73-1.36-2.23-2.61,5.08,3.05,10.16,6.1,15.24,9.16.21-.36.43-.72.64-1.08-5.09-3.25-10.17-6.49-15.25-9.75-1.82-1.16-3.52-2.58-5.46-3.47-2.64-1.2-4.37-4.99-8.18-3.08-4.26-2.87-8.63-5.6-12.75-8.68-1.82-1.36-1.11-3.3.29-4.79,3.98-4.24,7.84-8.62,12.04-12.63,6.49-6.19,13.22-12.13,19.86-18.16.44-.4,1-.66,1.88-.56-5.38,5.77-10.87,11.44-16.1,17.35-4.62,5.23-5.23,11.32-2.17,16.56,1.71,2.93,4.17,4.35,7.53,5.06,3.47.74,6.99,1.95,10.07,3.7,5.78,3.27,11.25,7.09,16.9,10.61.57.35,1.45.2,2.19.28-.45-.61-.77-1.42-1.36-1.81-4.33-2.8-8.73-5.5-13.07-8.27-1.4-.89-2.92-1.73-4.02-2.92-1.06-1.15-1.65-2.72-2.45-4.11,1.29.31,2.58.6,3.86.94,7.08,1.88,12.54,6.71,18.61,10.41,2.17,1.32,3.62,1.52,5.55-.45,1.94-2,4.34-3.57,6.61-5.22,2.14-1.56,3.53-.94,4.25,1.76,2.96,11.16,4.4,22.47,3.16,34.02-.02.17-.09.33-.07.49.1.95.23,1.9.34,2.85.89-.59,1.92-1.05,2.64-1.8,2.74-2.9,5.39-5.89,8.05-8.87.41-.46.67-1.05,1-1.59-.62-.13-1.25-.23-1.87-.39-.91-.24-1.82-.51-2.72-.77.64-.84,1.15-1.85,1.95-2.5,3.49-2.84,6.01-6.61,9.21-9.67,5.45-5.2,11.13-10.26,17.24-14.64,6.31-4.52,14.04-4.27,21.28-3.31,9.88,1.31,19.13-1.44,28.6-2.97,1.63-.26,3.22-.8,4.85-1.11,1.09-.21,2.22-.24,3.34-.34-.68,1.18-1.24,2.46-2.07,3.52-.8,1.02-1.82,1.9-2.86,2.68-3.3,2.47-4.82,6.64-9.89,7.69-3.34.69-6.53,4.47-8.79,7.59-7.97,11.05-15.33,22.51-19.93,35.49-.26.73-.86,1.34-1.3,2.01-.36-.75-.53-1.84-1.13-2.2-5.08-3.05-2.12-6.58-.51-9.81,1.84-3.7,4.11-7.2,6.17-10.79.31-.54.52-1.13.78-1.7-.58-.14-1.2-.47-1.75-.38-10.4,1.66-20.86,1.75-31.35,1.28-1.08-.05-2.55.76-3.26,1.63-7.41,9.06-13.77,18.79-18.09,29.72-.83,2.09-.99,4.55-1.02,6.84-.06,4.49.2,8.98.31,13.46.12,5.16.12,5.13,4.81,6.58,1.52.47,2.96,1.19,4.44,1.79-1.4.66-2.73,1.6-4.2,1.93-3.38.75-3.98,2.58-3.38,5.81,1.41,7.6,1.42,7.85,7.51,3.23,23.73-17.99,47.38-36.1,70.98-54.27,2.83-2.18,5.52-4.72,7.65-7.56,3.28-4.37,7.88-6.82,12.15-9.87,6.59-4.71,13.33-9.41,19.04-15.09,7.72-7.67,16.55-13.71,25.27-20.02,16.33-11.82,31.51-25.04,45.9-39.18,4.63-4.55,9.29-9.06,13.91-13.63,3.84-3.8,3.59-9.74-.51-13.54-.28-.26-.72-.81-.63-.96,1.88-3.37-.53-2.39-2.4-2.92-1.52-.43-2.58-2.46-3.85-3.77-5.16-5.31-11.66-8.51-18.4-11.11-5.44-2.1-11.25-3.29-16.74-5.12-5.38-1.79-10.64-.72-15.91-1.66-5.33-.96-10.94-.45-16.43-.43-3.81.01-7.61.29-11.42.39-.6.02-1.21-.3-1.82-.46.49-.57.88-1.47,1.48-1.65,5.89-1.75,11.75-3.75,17.75-4.98,12.1-2.47,24.37-3.43,36.73-3.38,2.35,0,4.72-1.49,7.06-1.44,4.67.1,8.46-2.74,12.83-3.26,2.04-.25,4.28.42,6.32,1.05,12.95,4.02,26.18,6.38,39.71,6.98,2.07.09,4.18-.47,6.26-.84,1.79-.32,3.61-1.27,5.29-1.04,1.37.19,3.09,1.51,3.61,2.76.36.86-.74,3.09-1.77,3.64-4.53,2.43-7.47,6.3-10.14,10.43-2.71,4.19-5.34,8.44-7.7,12.83-1.23,2.29-2,4.88-2.62,7.42-1.76,7.27-5.23,13.74-9.95,19.33-11.57,13.7-24.97,25.31-41.25,33.72.77-1.08,1.48-2.21,2.33-3.22,4.64-5.45,9.49-10.74,13.88-16.38,1.54-1.97,2.04-4.78,2.89-7.24.17-.49-.21-1.18-.33-1.78-.56.31-1.21.52-1.67.94-7.83,7.22-15.57,14.54-23.48,21.68-4.07,3.67-8.36,7.11-12.68,10.49-2.13,1.66-3.32,3.56-3.37,6.29-.09,5.14-.42,10.29-.41,15.43.01,13.23.15,26.45.24,39.68.06,10.41.12,20.82.17,31.23.02,3.14,1.24,5.4,4.44,6.35,1.43.43,2.83,1,4.15,1.69.28.15.14,1.13.14,1.72,0,.1-.24.22-.39.29-8.67,3.72-6.83,11.93-8,18.84-.07.4.23.87.35,1.31.52-.32,1.15-.54,1.56-.96,3.57-3.72,6.95-7.64,10.67-11.2,5.37-5.13,10.46-10.72,17.89-13.11.59-.19,1.33-1.07,1.35-1.65.16-3.39.2-6.78.13-10.17-.19-10.44-.59-20.88-.64-31.32-.03-7.63.38-15.26.57-22.89.1-3.84-.31-4.19-3.8-3.31-5.68,1.43-11.36,2.51-17.77.3,5.91-1.46,11.34-2.72,16.73-4.18,1.55-.42,3.35-1.08,4.34-2.23,3.7-4.29,9.22-6.04,13.17-10.13,3.97-4.11,8.95-7.26,13.67-10.58.96-.68,2.7-.26,4.08-.35-.1,1.21.14,2.6-.38,3.59-1.56,3.02-4.39,5.55-3.39,9.48.15.57.36,1.12.54,1.68.54-.3,1.21-.48,1.62-.91,3.89-4.09,7.82-8.15,11.55-12.39,1.55-1.76,3.19-1.98,3.35.28.23,3.39,1.94,1.91,3.14,1.36,2.39-1.1,4.44-3.79,7.42-1.12.09.08,1.27-.7,1.58-1.28,1-1.87,2.5-2.94,4.42-1.96,1.01.52,1.56,2.06,2.17,3.22,2.24,4.22,4.32,8.54,6.68,12.69,1.03,1.8,2.09,2.13,4.16.24,6.95-6.36,14.44-12.07,23.23-16.11,0,.64.12,1.04-.02,1.19-1.32,1.49-3.56,2.81-3.77,4.42-.18,1.36,2.08,2.96,3.05,4.58,2.98,4.94,6.71,9.05,12.48,11.18-.68-.69-1.4-1.35-2.03-2.08-3.24-3.76-6.52-7.49-9.62-11.36-.56-.7-.69-2.79-.42-2.91,1.23-.55,2.79-1.08,4-.75,1.11.3,2.13,1.58,2.81,2.66,4.12,6.61,10.16,10.78,17.13,13.78,2.84,1.22,5.79,1.58,8.71.18,3.51-1.68,6.99-3.41,10.89-4.44-2.19,1.32-4.38,2.66-6.58,3.97-1.65.99-1.93,1.73.27,2.33,2.58.7,4.04,4.7,7.6,2.56.55-.33,1.6-.36,1.75-.77,1.01-2.88,3.66-3.21,5.87-4.53,3.72-2.23,6.73-5.64,10.06-8.53,3.84-3.34,7.65-6.73,11.63-9.91.68-.54,2.13-.12,3.23-.15-.06,1.19.32,2.72-.27,3.52-2.32,3.17-3.97,6.46-3.4,10.51.08.56.43,1.09.65,1.63.42-.22.92-.35,1.24-.66.84-.81,1.54-1.76,2.39-2.55,3.16-2.9,5.98-6.26,10.88-6.35,2.52-.04,3.75-2.07,4.2-4.3,1.4-6.97,5.25-12.5,9.98-17.54,10.53-11.22,22.73-19.97,37.42-24.95,1.37-.46,2.82-.7,4.42-1.09-1.71,4.38-5.09,6.39-8.7,8.22-3.85,1.96-7.66,4.02-11.39,6.21-14.61,8.57-17.96,26.54-8.94,41.9,1.41,2.4,3.12,2.28,5.08.44,6.03-5.64,12.63-10.51,19.9-14.35l.87,1.1c-3.21,2.7-6.33,5.52-9.66,8.06-3.95,3.01-4.06,2.92-1.31,6.84,1.43,2.04,2.93,4.04,4.5,5.98.35.44,1.13.53,1.71.78-.15-.69-.14-1.48-.49-2.04-.8-1.26-1.94-2.32-2.64-3.63-.82-1.55-3.23-2.68-1.25-5.12,1.61-1.98,2.29-5.21,5.99-3.27.11.06.77-.73,1.02-1.21.33-.62.51-1.33.76-2,.66.43,1.48.73,1.95,1.32,2.37,2.98,4.41,6.26,7.03,8.99,1.85,1.92,4.43,3.13,6.24,4.89-2.58-3.11-5.22-6.18-7.72-9.36-1.43-1.82-2.75-3.76-3.89-5.77-.37-.65-.31-2.22.11-2.48.78-.49,2.21-.77,2.94-.37,1.4.76,2.71,1.91,3.71,3.18,3.94,5.01,8.16,9.65,14.47,11.68,3.13,1.01,6.3,1.91,9.5,2.67,1.6.38,3.35.15,4.95.53,1.01.25,1.88,1.13,2.8,1.72-.6.92-1.01,2.12-1.84,2.71-4.3,3.07-8.8,5.88-13.04,9.04-1.09.82-2.06,2.55-2.11,3.89-.22,6.63-.14,13.27-.13,19.9.02,9.3.07,18.6.11,27.91,0,1.15-.02,2.31.07,3.46.51,6.54.53,6.52,6.98,8.39,2.21.64,4.35,1.55,6.58,2.1,1.03.26,2.3.22,3.29-.15,3.27-1.21,6.4-2.82,9.71-3.91,2.78-.92,3.39-2.86,3.4-5.34.02-9.95-.04-19.91.05-29.86.07-8.23.32-16.47.45-24.7.01-.78-.31-1.56-.48-2.34-.88.24-1.88.29-2.61.76-1.25.8-2.53,1.71-3.45,2.85-3.63,4.48-9.18,5.82-13.81,8.65-.63.38-1.52.34-2.29.49.51-.7.92-1.5,1.54-2.08,1.57-1.48,3.18-2.93,4.88-4.26,6.05-4.73,10.43-10.85,14.73-17.09,2.13-3.09,4.54-5.99,6.83-8.97.9-1.17,1.88-2.3,2.67-3.54.36-.58.34-1.4.5-2.12-.53.33-1.07.67-1.61,1-.41.25-.84.48-1.26.72.11-.57.04-1.29.37-1.68,3.9-4.72,7.83-9.41,11.81-14.07.59-.69,1.41-1.18,2.13-1.77.35.83.89,1.63,1.02,2.5.62,4.01,1.4-1.46,1.79.03.28,1.09.17,2.3.14,3.45-.04,1.25-.17,2.5-.3,3.75-.07.73-.02,1.56-.36,2.16-1.63,2.93-1.51,5.27.33,8.46,1.48,2.55.92,6.38.99,9.64.14,6.6.11,13.2.11,19.8.01,12.69-.18,25.38.11,38.05.09,3.72,1.39,7.45,2.43,11.09.27.94,1.7,2.33,2.42,2.23,3.58-.49,4.42,3.16,6.89,4.24.23.1.1,1.06.13,1.62-3.34.13-4.79,3.94-8.19,4.22-.63.05-1.57,1.95-1.58,3.01-.1,10.8.06,21.61-.1,32.41-.03,2.03-.96,4.12-1.79,6.04-.72,1.65-1.94,3.06-2.85,4.64-.23.41-.25,1.44-.16,1.47,4.9,1.42,2.52,4.81,1.12,6.59-4.33,5.53-3.42,11.77-3.56,17.98-.04,1.62-.73,3.58-1.82,4.71-.97,1.01-1.6,1.16-.5,2.55,2.85,3.59,2.7,3.6,6.09.47,7.42-6.87,14.76-13.67,23.76-18.78,10.28-5.84,20.12-12.66,29.45-19.95,13.75-10.74,23.43-24.42,26.63-42.05.47-2.57,1.25-5.04,4.25-6.14.95-.35,2-1.9,2.06-2.95.2-3.48-.04-6.98-.09-10.47-.02-1.97-.92-1.9-2.11-.9-8.51,7.16-18.8,12.06-26.06,20.84-1.39,1.68-3.75,2.64-5.78,3.71-5.04,2.67-7.44,7.96-11.62,11.5-1.61,1.36-2.85,2.76-5.03,3.59-1.54.58-1.95,1.4-3.35-.15-.38-.42-2.86.68-4.1,1.5-2.13,1.39-3.03,1.1-3.02-1.51.02-4.16-.21-8.34.03-12.48.23-3.9-.34-7.14-4.27-8.95-1.67-.77-1.13-1.14-.25-2.65,1.4-2.37,2-5.51,2.05-8.34.3-16.45.33-32.91.51-49.36.03-2.42.38-4.84.58-7.26-2.25.97-4.49,2-6.77,2.9-1.18.47-2.45.71-4.17.22,2.49-2.08,4.87-4.31,7.48-6.23,11.33-8.33,22.72-16.57,34.09-24.85,3.9-2.84,7.82-5.66,11.68-8.55,2.31-1.73,4.47-1.98,6.6.26,1.71,1.8,3.6,3.45,5.16,5.37,6.09,7.52,12.4,14.8,20.15,20.72,8.1,6.19,17.3,9.04,27.37,9.38.79.03,1.68-.19,2.39-.55,6.63-3.35,13.65-6.16,19.77-10.28,10.97-7.39,21.44-15.53,32.03-23.48,2-1.5,3.69-1.4,5.31.11,1.45,1.35,2.66,2.98,3.91,4.53,5.97,7.4,12.12,14.64,19.86,20.29,8.12,5.93,17.02,9.66,27.34,9.2,1.8-.08,3.67.13,5.42.55,3.71.89,5.68-.69,7.63-3.8,3.21-5.11,7.05-9.83,10.63-14.7.88-1.2,1.85-2.33,2.66-3.57.3-.47.25-1.16.35-1.76-.52.3-1.02.62-1.56.89-.4.2-.83.32-1.24.48.02-.45-.14-1.04.09-1.32,4.15-5.13,8.33-10.24,12.56-15.3,1.04-1.25,2.27-1.55,2.99.35,1.41,3.74,3.49,7.32.54,11.49-1.48,2.08-2.05,4.83.48,7.08.54.48.99,1.38,1,2.09.14,19.68.06,39.37.41,59.05.11,6.37,1.27,12.73,2.16,19.07.11.75,1.48,1.86,2.31,1.89,4.32.2,8.65.09,12.98.12,1.83.01,2.66-.64,2.58-2.65-.25-6.6,1.71-13.12.19-19.84-.74-3.26.13-6.86.05-10.31-.06-2.3,1.33-4.95-1.34-6.84-.22-.16.01-1.56.43-1.94,6.01-5.4,11.32-11.43,19.29-14.63,7.3-2.94,12.6-9.08,17.92-14.96,4.21-4.65,9.26-8.52,13.99-12.69.41-.36,1.15-.34,1.74-.49.04.62.22,1.26.1,1.84-.16.8-.86,1.59-.75,2.3.1.62.99,1.12,1.53,1.67.39-.41.94-.75,1.15-1.24,1.54-3.6,3.16-5.17,7.11-7.4,1.42-.8,1.83-3.73,4.39-1.9.24-.72.48-1.44.72-2.16.77-2.36,2.73-3.07,4.7-2.46.77.24,1.35,2.34,1.37,3.6.1,8.79.03,17.58,0,26.37-.03,9.78-.1,19.57-.08,29.35.03,10.62.24,21.25.16,31.87-.02,2.98.8,4.6,3.87,5.26,2.57.55,4.97,1.83,7.52,2.53,5,1.37,10.65-.02,11.35-7.2.48-4.89-.41-9.5-.52-14.25-.2-8.63-.19-17.28-.11-25.91.07-7.63.41-15.26.55-22.89.07-3.7-.34-3.91-4.01-3.04-5.34,1.26-10.69,2.68-16.75.21,4.86-1.34,9.22-2.7,13.67-3.71,3.35-.76,6.63-1.1,8.24-4.98.43-1.03,2.81-1.08,3.98-1.98,4.58-3.53,9-7.25,13.54-10.83,2.58-2.03,5.18-4.06,7.96-5.78.93-.57,2.45-.18,3.7-.22-.05,1.2.17,2.48-.2,3.57-.97,2.88-4.49,4.7-3.46,8.45.25.89.27,1.85.4,2.78.78-.5,1.69-.87,2.32-1.52,3.68-3.83,7.29-7.73,10.95-11.58,1.99-2.09,1.96-2.05,3.35.92.24.52,1.19,1.18,1.62,1.06,1.26-.34,2.78-.74,3.55-1.66,2.14-2.56,3.96.26,5.68-.02,1.7-.28,2.96-2.72,4.72-3.33,1.62-.57,2.81.57,3.17,2.72.83,5.03,3.3,9.38,6.61,13.22.68.79,2.29,1.91,2.68,1.66,3-1.92,2.74.57,3.37,2.17,1.86,4.8,3.63,9.65,5.84,14.29,1.32,2.78,1.49,4.87-1.69,5.88-5.14,1.65-6.15,4.94-5.98,10.13.47,14.63.21,29.28.19,43.92,0,2.2.66,3.35,3.08,3.53,2.78.21,5.52.82,8.28,1.27.63.1,1.26.24,1.89.36-.4.66-.66,1.53-1.23,1.96-3.2,2.37-6.37,4.81-9.76,6.87-2.17,1.32-2.77,2.96-2.77,5.32-.01,11.47-.06,22.94-.24,34.41-.11,6.53-.63,13.06-.73,19.59-.05,3.02.67,6.06.64,9.08-.05,4.97-.07,9.99-.74,14.9-1.87,13.64-1.89,27.37-.91,40.98.7,9.87-1.9,18.6-5.05,27.52-3.81,10.81-7.45,21.68-10.99,32.58-1.02,3.13-1.34,6.47-2.15,9.67-.22.86-1.08,1.56-1.64,2.33-.58-.86-1.2-1.71-1.72-2.61-.13-.23.04-.65.1-.98,2.43-15.4,1.85-30.81.07-46.21-.76-6.58-2.3-13.1-2.61-19.68-.36-7.83.2-15.7.42-23.56.08-2.83,2.2-5.89-1.4-8.22-.65-.42-.48-2.16-.61-3.29-.12-1.05-.06-.95-1.46-.78-.36.04-1.19-.88-1.2-1.37-.15-5.98-.2-11.96-.24-17.94-.09-15.1-.21-30.19-.23-45.29-.02-9.26.1-18.51.17-27.77.04-5.3-.55-5.76-5.72-4.28-.64.18-1.3.29-1.93.51-7.31,2.57-7.43,2.73-7.43,10.52,0,18.31.04,36.61.02,54.92,0,3.26.08,6.38,3.5,8.15.41.21.82.66.98,1.09,1.81,4.8,3.58,9.61,5.35,14.42.97,2.64-.02,4.54-2.3,5.89-8.08,4.8-13.76,11.89-18.77,19.62-1.8,2.78-3.59,5.58-5.55,8.26-.64.87-1.72,1.49-2.73,1.96-.46.21-1.61-.08-1.76-.43-.25-.57-.19-1.6.19-2.08,3.85-4.89,4.85-10.67,4.12-16.47-.45-3.58-2.26-7.18-4.18-10.34-3.19-5.25-6.88-10.2-10.5-15.18-3.55-4.89-3.57-5.72.66-9.99.35-.35.7-.7,1.07-1.04,2.06-1.88,3.59-3.13,2.81-7.02-1.15-5.74.07-11.94.15-17.95.02-1.94-.58-3.89-.57-5.84.03-5.66.34-11.32.33-16.98-.01-4.09-.21-8.2-.64-12.27-.23-2.25-1.68-1.07-2.36-.26-3.43,4.05-7.28,7.88-10.01,12.38-4.63,7.65-8.62,15.69-12.69,23.66-1.19,2.32-1.81,4.94-2.57,7.47-.26.86-.68,1.84,1.28,1.24,2.87-.88,3.52,1.2,2.9,3.45-.69,2.51-1.57,5.03-2.8,7.31-5.66,10.46-9.94,21.82-18.7,30.33-2.21,2.14-4.94,3.81-7.63,5.34-.64.37-2.36-.44-3.11-1.18-.89-.88-1.81-2.3-1.76-3.45.11-2.99-1.67-3.61-3.9-4.7-1.74-.85-3.53,2.05-4.95-.7-1.18-2.28-3.77-1.55-5.85-1.72-6.47-.55-6.45-.56-11.25-5.79-3.49-3.8-7.2-7.4-10.52-11.33-4.24-5.02-4.96-10.48-3.19-17.1,1.77-6.61,1.64-13.72,2.34-20.61.02-.16-.12-.36-.06-.49,2.15-5.36-.88-10.79.27-16.25.69-3.3.46-6.85.19-10.25-.08-1-1.69-2.61-2.69-2.68-4.13-.32-8.3-.11-12.46-.19-2.6-.05-3.38,1.08-3.34,3.66.16,10.47.26,20.94.02,31.4-.05,2.3-1.61,4.56-2.43,6.86-.37,1.03-.62,2.09-.92,3.14.95-.07,1.91-.1,2.86-.21.49-.06.96-.36,1.44-.38,1.26-.05,2.53,0,3.8,0-1.1.57-2.15,1.32-3.31,1.67-1.92.58-2.83,1.67-3.51,3.63-1.07,3.09-2.88,5.92-4.17,8.94-.63,1.48-1.1,3.15-1.13,4.74-.07,3.12.35,6.25.29,9.37-.02,1.02-.62,2.56-1.4,2.93-2.02.96-1.8,1.63-.59,3.2,2.55,3.3,2.39,3.35,5.37.54,4.24-3.99,8.55-7.9,12.79-11.89.44-.41.6-1.13.89-1.71,0,0-.17.18-.17.18Zm-872.23-5.4c-1.82-1.52-3.65-3.05-5.48-4.55-.03-.02-.24.19-.37.3,1.79,1.59,3.58,3.18,5.37,4.77,1.45,1.29,2.85,2.66,4.39,3.84.53.41,1.43.34,2.16.49-.37-.57-.61-1.31-1.12-1.68-1.59-1.13-3.29-2.12-4.94-3.16Zm721.93-49.62c-.51.02-1.02.04-1.53.05,0-2.78.21-5.59-.1-8.34-.13-1.22-1.03-2.79-2.06-3.37-1.62-.92-4.72-.66-5.23-1.79-.75-1.65.27-4.09.48-6.19.13-1.32.19-2.66.18-3.99-.08-8.64-.23-17.28-.26-25.92-.02-7.65.12-15.31.09-22.96,0-1.03.67-3.25-1.69-2.49-3.73,1.2-7.99,2.02-10.79,4.43-2.84,2.44-5.82,3.45-9.07,4.57-.79.27-1.68,1.62-1.72,2.5-.19,3.96-.25,7.95-.05,11.91.44,8.82,1.15,17.63,1.6,26.45.28,5.44.16,5.44,5.6,7.17.95.3,1.99.53,2.76,1.1.34.25.38,1.69.09,1.87-.96.61-2.13.88-3.22,1.3-4.75,1.84-4.95,2.18-4.85,7.33.06,3.32.16,6.66.05,9.98-.31,9.13-.94,18.26-.95,27.39,0,2.14,1.59,4.55,3.09,6.3.58.68,2.98.08,4.44-.31,13.85-3.73,27.76-7.05,42.27-5.94,3.16.24,5.36-1.3,7.53-3.22,12.38-11,21.51-23.93,24.55-40.62.45-2.46,1.16-5.13,4.33-6.1.88-.27,1.79-1.99,1.86-3.09.21-3.31-.04-6.65,0-9.97.03-2.37-.95-2.08-2.33-1.04-7.83,5.92-15.6,11.91-23.48,17.76-7.86,5.84-15.77,11.62-23.78,17.25-1.33.94-3.29.99-4.95,1.45.88-1.18,1.75-2.36,2.63-3.53.1-.13.35-.29.33-.34-.25-.55-.54-1.09-.82-1.63-3.53,2.44-2.25-.81-2.43-2.13-.18-1.31,0-2.68-.21-3.98-.1-.64-.73-1.19-1.13-1.78-.21.55-.57,1.09-.62,1.66-.24,2.75-.4,5.52-.59,8.28Zm-306.77-53.66c-.16,0-.31,0-.47,0,0-10.32.05-20.63-.02-30.95-.04-5.39-1.22-6.18-6.22-4.62-1.26.39-2.62.44-3.88.82-2.81.86-5.67,1.63-8.34,2.82-2.1.93-3.81,2.83-5.94,3.6-3.25,1.18-4.01,3.3-3.98,6.45.15,17.29.16,34.58.21,51.87.02,5.3.03,5.23,5.12,6.7,1.29.37,2.4,1.36,3.59,2.07-1.17.46-2.33.93-3.5,1.37-.62.23-1.26.43-1.9.58-2.68.65-3.62,2.28-3.6,5.06.13,14.78.16,29.57.09,44.36-.04,8.87.74,17.4,4.98,25.55,1.53,2.93,1.68,1.91,2.98.39,1.94-2.27,4.06-4.39,5.97-6.69,4.63-5.59,9.29-11.17,13.72-16.92,1.67-2.17,2.85-4.47,2.06-7.78-.93-3.92-.74-8.14-.79-12.23-.08-7.82-.28-15.66.14-23.46.24-4.61-1.22-7.6-5.29-9.55-.79-.38-1.31-1.3-1.96-1.97.84-.43,1.66-.92,2.54-1.27,4.63-1.84,4.54-1.83,4.5-6.73-.07-9.81-.02-19.63-.02-29.45Zm420.9-20.62c.09,0,.18,0,.27,0,.1-1.48.29-2.96.27-4.44-.01-1.06-.29-2.13-.45-3.19-1.01.4-2.14.63-3,1.23-4.09,2.85-8.05,5.87-12.17,8.68-2.73,1.87-5.6,3.04-9.18,3.16-3.2.11-6.37,1.71-9.48,2.88-.71.27-1.5,1.42-1.54,2.2-.2,3.96-.36,7.94-.16,11.9.46,8.9,1.09,17.79,1.77,26.68.11,1.4.36,3.42,1.28,4.01,3.13,2.02,6.6,3.52,9.92,5.25.56.29,1.06.71,1.59,1.07-.51.55-.93,1.43-1.54,1.59-2.23.58-4.5,1.05-6.78,1.31-3.37.39-4.39,2.29-4.24,5.44.17,3.48.19,6.97.07,10.45-.31,9.13-.95,18.26-.95,27.38,0,2.13,1.75,4.47,3.23,6.28.46.56,2.69-.25,4.09-.56,7.63-1.68,15.22-3.5,22.87-5.08,3.93-.81,4.43-1.11,4.4-5.09-.08-10.65-.22-21.31-.29-31.96-.03-5.25-.03-5.14-4.64-7.07-2.21-.92-4.19-2.37-6.28-3.58,2.19-.69,4.36-1.49,6.59-2.03,2.71-.65,4.31-1.66,4.22-5.01-.22-7.59.08-15.19.11-22.78.03-9.58,0-19.15,0-28.73Zm-353.9,155.14h-.21c0,9.28-.05,18.57.02,27.86.03,4.26-.86,8.69,1.75,12.59.62.93,1.35,1.79,2.02,2.69.33-.94.56-1.94,1-2.82.42-.83,1.06-1.54,1.61-2.3.42.8,1.2,1.6,1.2,2.4,0,4.49-.21,8.97-.28,13.46,0,.56.36,1.13.56,1.69.52-.33,1.22-.53,1.54-1,2.92-4.23,6.17-8.3,8.58-12.82,7.66-14.31,9.29-30.03,9.65-45.9.05-2.17-1.37-4.62-2.71-6.51-2.62-3.7-2.74-3.54.07-7.45.57-.8.98-2.03.85-2.97-.6-4.33-1.95-8.62-2.08-12.95-.53-18.03-.69-36.07-1.08-54.1-.04-1.74,1.36-4.16-1.65-5.02-2.03-.58-4.16-1.98-6.04-1.69-3.88.59-7.68,1.92-11.4,3.27-.86.31-1.67,1.94-1.73,3.01-.13,2.57.38,5.17.32,7.75-.2,8.25-.6,16.5-.8,24.75-.06,2.35,1.03,5,.27,7.01-2.07,5.44-.88,11.04-1.24,16.49-.71,10.81-.21,21.71-.21,32.57Zm13.39,65.25c.26.24.52.48.77.73.83-.54,1.66-1.07,2.48-1.61,20.9-13.8,43.13-25.18,66.23-34.61,13.01-5.31,27-8.17,40.34-12.75,3.09-1.06,9.18,1.21,8.91-5.66-.01-.31.69-.67,1.07-.98,3.36-2.72,6.73-5.42,10.08-8.14,4.52-3.67,9.05-7.33,13.53-11.05.48-.4.62-1.22.92-1.84-.57.19-1.23.25-1.7.59-2.55,1.85-5.09,3.73-7.57,5.68-4.81,3.78-9.57,7.63-14.39,11.4-2.9,2.27-3.54,1.94-4.35-1.74-.64-2.88-1.44-5.73-2.28-8.56-.16-.53-.84-.9-1.27-1.34-.12.68-.43,1.39-.33,2.03.66,4.24,1.47,8.46,2.07,12.71.1.74-.62,1.6-.96,2.4-.4-.67-1.03-1.3-1.16-2.02-.8-4.58-2-9.16-2.1-13.76-.13-6.17-1.1-12.57,3.43-18.12,1.16-1.42.53-4.38.52-6.62,0-.37-1.36-1.19-1.57-1.05-3.81,2.61-7.74,5.11-11.21,8.13-2.21,1.93-3.6,4.78-5.57,7.03-5.86,6.7-10.82,13.85-12.75,22.75-.11.49-.86.83-1.31,1.25-.2-.4-.34-.85-.61-1.18-.33-.41-.77-.73-1.16-1.09-.3.38-.7.71-.87,1.14-1.23,3.02-2.37,6.08-3.62,9.09-.42,1.01-.73,2.43-2.17.52-4.4-5.84-8.96-11.55-13.43-17.34-.38-.49-.82-1.13-.8-1.69.08-2.52.17-2.55-.3-2.88-2.97-2.09-5.9-4.24-8.96-6.2-.77-.49-2.35-.84-2.84-.42-1.31,1.12-.44,2.11.64,3.2,3.25,3.29,6.34,6.76,9.45,10.19.35.39.45,1,.66,1.52-.61-.16-1.38-.14-1.79-.51-2.91-2.72-5.75-5.53-8.62-8.29-2.82-2.72-2.78-2.68-4.91.51-1.16,1.74-2.68,3.25-3.68,5.06-1,1.81-1.67,3.75-4.08,4.04.11.44.19.9.34,1.33.29.84,1.03,1.76.87,2.49-.87,4.1-1.81,8.19-3.02,12.19-.44,1.46-1.69,2.69-2.57,4.02-.26-1.33-.52-2.67-.78-4-.03-.16-.11-.31-.19-.46-.4-.71-.81-1.41-1.21-2.12-.57.7-1.29,1.32-1.67,2.1-2.17,4.46-3.79,9.27-6.5,13.36-3.93,5.93-8.66,11.33-13,16.99-.49.64-1.06,2.13-.95,2.2,4.23,2.68,1,4.61-.72,6.47-1.64,1.77-3.55,3.28-5.35,4.91Zm-305.1-134.62c-.06,0-.12,0-.17,0,0,1.82.07,3.65-.01,5.47-.54,11.93,3.26,22.23,11.52,30.85,2.35,2.45,2.12,2.3,3.6-.66,5.01-10.03,3.82-20.91,4.4-31.51.36-6.67.03-13.38.06-20.08.02-4.75.88-9.65.01-14.22-1.37-7.26.53-14.27.39-21.4-.11-5.57,1.61-11.5.19-16.64-1.93-7.02.69-13.58-.11-20.33-.42-3.58-.4-7.23-.26-10.84.09-2.35-.71-2.29-2.1-1.14-5.5,4.58-11,9.17-16.36,13.91-.81.71-1.21,2.27-1.22,3.44-.07,8.13.04,16.26.05,24.39.01,19.58,0,39.16,0,58.74Zm248.51,32.3c.55,5.19-2.02,12.17,4.45,16.96.44.33.44,1.23.68,1.85,1.32,3.48,2.62,6.97,4,10.44.14.36.68.64,1.09.79.14.05.61-.34.68-.6.2-.79.38-1.62.38-2.43,0-19.48-.04-38.97-.04-58.45,0-10.09.57-20.18-.28-30.27-.33-3.89.21-7.87-.38-11.7-.34-2.19.96-2.28,1.95-2.58,1.49-.44,2.57.17,2.47,2.05-.13,2.45-.25,4.91-.2,7.36.02,1.01.47,2.01.73,3.02.98-.43,1.98-.82,2.94-1.31,2.77-1.4.17-3.5.63-5.28,1.98-7.6.43-15.4,1.12-23.12.65-7.31.09-14.73.1-22.11,0-1.95.36-3.93.18-5.85-.13-1.33-.66-2.79-1.46-3.85-1.87-2.49-4.21-4.65-5.99-7.2-1.56-2.23-2.62-4.8-3.9-7.22-2.35,1.53-4.71,3.04-7.06,4.58-.69.46-1.44.91-1.96,1.53-.35.41-.34,1.12-.49,1.7.43.03.89.16,1.29.06,3.12-.84,2.21,1.07,1.48,2.38-.44.79-1.58,1.16-2.27,1.84-.13.13.36,1.28.52,1.27,4.05-.27,2.2,2.47,1.25,3.27-3.8,3.22-2.96,7.44-3.07,11.5-.13,4.62-.29,9.25-.37,13.87-.09,4.96-.24,9.93-.08,14.88.13,3.97,1.26,7.97.92,11.86-.37,4.29.33,7.41,4.48,9.25,1.79.79,2.6,1.52.28,3.13-3.01,2.09-4.48,4.58-4.31,9.08.64,16.06.25,32.16.25,49.28Zm91,.56c-.69,6.59,2.42,12.77,4.56,19.17.78,2.32,2.04,1.06,2.78.01,6.23-8.89,16.51-14.43,20.63-25.03.75-1.93,1.83-3.92,1.88-5.9.24-9.35.22-18.7.21-28.05,0-3.92-.35-7.85-.27-11.77.05-2.62-1.15-3.49-3.47-4.45-8.39-3.49-16.48-2.56-24.64.64-1.97.77-2.27,1.95-2.1,3.86.3,3.44.39,6.9.4,10.35.04,13.57.02,27.13.02,41.16Zm377.49-70.01c.21,0,.42.02.63.03.14-2.11.26-4.22.41-6.33.63-8.77,1.25-17.54,1.92-26.3.03-.35.54-.67.82-1,.23.22.62.42.67.68.71,3.85,1.76,7.68,1.97,11.56.48,8.97.71,17.96.74,26.94.05,19.42.01,38.84-.21,58.25-.06,4.96,2.74,7.99,5.87,11.01.24.23,1.58-.08,1.68-.37,1.54-4.72,3.84-9.4,4.23-14.24.84-10.48.85-21.05.89-31.58.03-8.67-.56-17.35-.57-26.02,0-7.45.48-14.9.63-22.35.11-5.6,1-11.19-.53-16.82-.53-1.94.74-4.36,1.07-6.57.14-.92.04-1.89-.11-2.82-.22-1.29-.87-2.57-.84-3.84.12-4.7.51-9.39.64-14.08.02-.83-.73-1.69-1.12-2.53-.8.46-1.74.76-2.36,1.39-5.03,5.07-10.06,10.14-14.93,15.35-.88.94-1.45,2.54-1.47,3.85-.12,8.8-.04,17.6-.04,26.4,0,6.47,0,12.94,0,19.41Zm-163.96-44.6c1.54,8.99,3.23,19.14,5.06,29.26.49,2.7,1.59.79,2.63.24.47-.24,1.83.1,1.87.35.52,2.71.92,5.45,1.24,8.19.23,2,.31,4.03.45,6.04,1.6-1.61,3.2-3.22,4.8-4.84.12-.12.2-.26.3-.4,8.01-11.96,17.73-22.41,28.34-32.07.7-.63,1.14-1.54,1.71-2.32-.94-.29-1.87-.69-2.83-.84-9.83-1.55-18.35-5.87-25.67-12.49-3.94-3.56-7.55-7.49-11.32-11.24-.69-.69-1.46-1.29-2.19-1.94-.5.98-1.29,1.91-1.46,2.94-.99,5.89-1.83,11.81-2.93,19.1Zm-110.47-.12c1.41,8.29,3.13,18.43,4.84,28.57.39,2.34,1.32,2.31,2.86.82.24-.23,1.64.15,1.68.39.56,3.05,1.02,6.12,1.39,9.2.2,1.7.19,3.42.27,5.13,1.43-1.29,2.9-2.55,4.28-3.9.7-.69,1.29-1.53,1.84-2.36,7.64-11.63,17.21-21.53,27.38-30.91.68-.63,1.11-1.54,1.66-2.32-.92-.31-1.81-.75-2.75-.89-10.93-1.68-19.98-7.02-27.92-14.45-2.79-2.61-5.34-5.47-8.05-8.17-1.02-1.01-2.17-1.89-3.26-2.83-.57,1.3-1.42,2.56-1.64,3.92-.87,5.24-1.53,10.51-2.55,17.8Zm-148.36,49.16c-.53,2.15,1.29,2.81,3.06,3.3,4.11,1.14,8.03,2.63,12.6,1.5,3.79-.94,4.66-1.32,4.73-5.36.11-6.4-.89-12.72-.69-19.15.3-9.89-.18-19.8-.29-29.7-.02-2.1-.25-4.3.3-6.27.77-2.77-1.19-3.42-2.68-4.64-1.58-1.29-2.93-1.71-4.86-.39-3.28,2.24-6.86,4.04-10.16,6.25-.91.61-1.76,1.98-1.84,3.06-.26,3.45-.17,6.93-.17,10.4-.01,13.54,0,27.08,0,41Zm518.2-4.57c-.23.06-.46.12-.68.18.6,2.13.59,5.5,1.92,6.15,2.99,1.48,6.62,1.82,10.03,2.26,2.96.38,4.06-1.43,4.06-4.27,0-11.26-.05-22.52.32-33.76.07-2.04-2.58-6.4,3.04-6.1.14,0,.63-1.24.47-1.75-.52-1.68.95-4.3-2.13-4.91-.06-.01.02-1.34.08-1.34,2.62-.15,1.92-2.22,2.17-3.71.24-1.46.16-3.03.67-4.38.71-1.9.12-2.95-1.28-4.28-2.14-2.04-3.97-4.41-5.79-6.76-1.64-2.12-3.07-4.39-4.59-6.59-2.3,1.63-4.62,3.24-6.88,4.92-.47.35-.73.97-1.08,1.47.57-.08,1.26-.38,1.7-.17.66.31,1.69,1.09,1.61,1.48-.76,3.83.88,8.4-3.6,11.2-.85.53-.83,2.76-.86,4.21-.14,6.79-.24,13.58-.2,20.37.04,6.11.24,12.23.45,18.34.09,2.48.38,4.96.58,7.44Zm-661.29-20.78s-.05,0-.07,0c0,8.46.03,16.93-.01,25.39-.02,3.59,3.2,6.2,6.72,5.43,1.57-.35,3.3-.17,4.74-.77,2.39-.99,4.87-2.11,6.79-3.78.87-.76.68-2.96.65-4.51-.1-5.43-.41-10.86-.5-16.29-.1-6.26-.1-12.53-.06-18.79.04-5.87.36-11.74.17-17.6-.05-1.44-1.49-2.96-2.55-4.22-1.42-1.68-2.8-.79-4.32.24-2.88,1.95-5.8,3.92-8.94,5.39-2.24,1.04-2.69,2.36-2.66,4.62.13,8.3.05,16.6.05,24.9Zm327.63,42.47c-.16,0-.32,0-.48,0,.09-1.33.23-2.65.23-3.98,0-.44-.34-.87-.52-1.31-.36.41-.89.76-1.05,1.23-5.31,15.37-14.76,27.77-27.43,37.75-2.65,2.09-3.28,4.18-3.11,7.58.29,5.73,2.33,9.37,8,10.81,1.09.28,2.05,1.08,3.05,1.67,5.13,3.02,10.6,3.55,16.35,2.37,2.78-.57,4.52-1.85,4.57-4.93.09-5.97.34-11.94.37-17.91.06-11.1.02-22.19.02-33.29Zm110.27,27.48c0-10.13.01-20.26-.03-30.39,0-.67-.48-1.34-.73-2.02-.34.52-.74,1.01-1.01,1.57-2.92,5.77-5.51,11.74-8.81,17.29-4.56,7.66-11.09,13.64-17.78,19.45-1.63,1.41-3.3,3.57-3.6,5.59-.99,6.71,1.06,9.91,7.17,12.78,1.2.57,2.37,1.21,3.52,1.87,4.8,2.79,9.9,3.7,15.38,2.69,4.86-.9,5.67-1.37,5.84-6.39.25-7.47.07-14.96.06-22.44Zm-765.7,23.38c.19-.22.39-.44.58-.66-1.63-1.45-3.18-2.99-4.9-4.32-1.77-1.38-2.31-2.07.61-1.99.34,0,1.15-1.34.99-1.76-.88-2.28-1.87-4.56-3.13-6.65-.41-.67-2.09-1.36-2.62-1.05-3.57,2.03-6.99,4.31-10.42,6.57-.44.29-.65.93-.96,1.41.44-.1.89-.21,1.33-.31.74-.17,1.47-.33,2.21-.5-.26.85-.26,2.01-.83,2.5-1.37,1.18-1.07,2.22.31,2.47,2.7.49,5.84,1.42,8.13.49,2.41-.98,3.69-.02,5.22.86,1.3.74,2.33,1.95,3.48,2.95Zm957.81-59.35c-4.68.63-9.42,1.17-14.11,1.98-.88.15-2.1,1.25-2.26,2.08-.79,4.23-1.29,8.51-1.84,12.77-.05.41.23.87.36,1.3.43-.21.97-.31,1.28-.64,5.56-5.84,11.1-11.71,16.57-17.5Zm-247.16-34.16c.08,0,.16,0,.24,0,0-6.64,0-13.28,0-19.92,0-1.16-.05-2.33-.22-3.47-.06-.37-.69-1-.89-.94-.53.16-1.15.53-1.38,1-.28.55-.25,1.29-.25,1.94,0,6.25.23,12.5.01,18.74-.3,8.71,1.63,17.55-1.41,26.13-.27.76.26,1.81.42,2.73,1.05-.78,2.47-1.35,3.04-2.38.58-1.06.42-2.58.43-3.9.03-6.64.02-13.28.02-19.92Zm38.15-66.24c7.53,11.17,15.76,21.61,28.34,27.48-11.11-7.41-19.14-18.07-28.34-27.48Zm-81.44,28.86c.23-.35.46-.7.68-1.06-10.07-6.19-17.97-14.67-25.3-23.74-.73-.9-1.35-1.92-2.19-2.71-.65-.61-1.57-.94-2.38-1.4.25.81.27,1.84.79,2.41,6.02,6.62,11.91,13.37,18.27,19.64,2.86,2.81,6.71,4.6,10.11,6.86Zm100.96,8.97c-5.99-5.05-12-9.76-17.58-14.93-3.64-3.37-6.63-7.43-9.95-11.15-.5-.56-1.22-.94-1.84-1.4.23.84.22,1.88.73,2.5,2.93,3.61,5.77,7.33,9.03,10.63,5.7,5.79,11.79,11.14,19.62,14.35Zm-112.44-.75c.19-.31.39-.62.58-.92-10.98-6.61-19.44-15.83-27.29-25.7-.34-.43-1-.6-1.51-.9.15.71.08,1.58.48,2.1,6.27,8.18,13.05,15.88,21.61,21.79,1.95,1.35,4.08,2.42,6.13,3.62Zm-620.79,147.69c-4.89-6.61-10.71-12.24-17.99-16.22,6,5.41,11.99,10.81,17.99,16.22Zm134.45-7.13c.15-.19.31-.38.46-.56-4.26-4.75-8.52-9.51-12.81-14.24-.21-.23-.71-.2-1.07-.29.08.46.01,1.04.27,1.35,2.77,3.31,5.52,6.65,8.45,9.82,1.37,1.49,3.12,2.63,4.7,3.93ZM645.64,18.22c.07-.31.15-.62.22-.93-7.03-1.85-14.05-3.71-21.08-5.56-.11.46-.22.92-.33,1.38,7.06,1.7,14.13,3.41,21.19,5.11Zm35.22,99.95c-.12.68-.4,1.23-.23,1.5,2.29,3.58,4.63,7.14,7.02,10.65.2.29.86.26,1.3.38-.03-.56.16-1.25-.11-1.65-2.2-3.27-4.48-6.49-6.76-9.71-.27-.38-.67-.66-1.22-1.17Zm31.97,13.88c-.07-.15-.14-.3-.2-.45-1.43-3.51-7.4-5.31-4.06-10.66,0-.01-.6-.49-.65-.45-1.03.95-3.05,2.56-2.88,2.83,1.96,3.21,4.24,6.24,6.48,9.28.14.19.64.26.91.17.19-.06.27-.47.39-.72Zm675.69-14.14c.44,4.94,2.87,8.71,6.2,11.92.46.44,1.34.45,2.02.65-.26-.69-.39-1.48-.82-2.05-1.19-1.57-2.61-2.97-3.74-4.58-1.33-1.9-2.46-3.96-3.67-5.94Zm-604.3,188.93c-3.09-8.99-4.36-10.84-8.2-12.49,2.78,4.23,5.49,8.36,8.2,12.49Zm-11.79-17.14c.33-.24.66-.49.99-.73-2-3.1-4-6.21-6.01-9.31-.3-.46-.64-.88-.97-1.32-.32.66-1.11,1.64-.9,1.93,2.21,3.2,4.57,6.3,6.88,9.43Zm40.25-162.43c.87,4.97,3.38,8.08,6.15,11.02.29.31,1.1.14,1.67.19-.11-.42-.11-.92-.35-1.25-2.3-3.12-4.65-6.21-7.48-9.97Zm34.6-1.52c-.93-.71-1.71-1.36-1.74-1.32-1.17,1.28-2.29,2.6-3.31,4-.08.11.71.83,1.09,1.27,1.22-1.21,2.43-2.43,3.96-3.96Zm399.39,155.06c.04.56-.1,1.12.11,1.35,2.37,2.48,4.79,4.92,7.24,7.31.21.2.82,0,1.24-.02-.17-.41-.23-.92-.52-1.21-2.33-2.31-4.7-4.57-7.07-6.84-.22-.21-.53-.32-1.01-.6Zm-575.95-150.71c-.27.24-.55.49-.82.73,1.71,2.38,3.38,4.79,5.17,7.11.25.33,1.06.23,1.61.33-.13-.44-.14-.96-.4-1.29-1.82-2.31-3.7-4.59-5.55-6.87Zm713.53,7.61c-1.85-2.44-3.72-4.9-5.58-7.36-.2.22-.61.58-.57.65,1.6,2.43,3.23,4.84,4.89,7.22.14.21.61.35.85.28.19-.05.27-.49.41-.8Zm-589.81,155.55c-.38.17-.76.33-1.14.5,1.07,2.4,2.11,4.82,3.23,7.2.13.28.72.33,1.1.49.06-.45.31-.98.15-1.32-1.07-2.31-2.22-4.58-3.34-6.86Zm38.74-162.58c-.05-.36-.02-.57-.11-.67-1.52-1.69-3.06-3.38-4.63-5.03-.05-.05-.48.26-.73.4,1.17,1.73,2.34,3.47,3.54,5.18.18.25.54.51.82.51.39,0,.77-.25,1.11-.39Zm78.12,149.66c-.75-.94-1.09-1.37-1.43-1.8-1.05,1.13-2.09,2.26-3.14,3.39.43.3,1.08.96,1.26.86,1.08-.66,2.06-1.49,3.32-2.45Zm-273.43,21.65c.31-.18.63-.36.94-.54-1.23-1.86-2.44-3.74-3.72-5.56-.19-.27-.7-.31-1.07-.45.06.44-.01.97.21,1.31,1.17,1.78,2.42,3.5,3.64,5.25Zm.09-265.43c.11-.22.22-.44.33-.66-.35-.32-.66-.75-1.07-.93-1.55-.7-3.13-1.31-4.69-1.96,1.28.94,2.55,1.9,3.85,2.8.47.33,1.05.5,1.58.75Z"/>
        <path d="m1433.76,301.88c.86,5.56,1.68,10.59,2.37,15.64.08.56-.64,1.23-.99,1.85-.44-.44-1.24-.85-1.27-1.31-.44-8.73-3.99-17.3-1.59-26.17.5-1.87,1.48-3.6,2.26-5.39.58-1.34,1.62-2.64,1.67-3.99.06-1.53-.75-3.09-1.19-4.64-1.15.51-2.32.99-3.45,1.53-2.69,1.29-5.35,2.65-8.07,3.85-.38.17-1.08-.4-1.62-.63.22-.39.35-.89.67-1.15.65-.51,1.37-.95,2.11-1.32,13.29-6.72,25.47-15.22,36.97-24.52,13.63-11.02,23.66-24.7,26.8-42.56.45-2.54,1.26-5.06,4.42-5.97.87-.25,1.75-2.02,1.82-3.13.19-3.3-.15-6.63-.02-9.94.09-2.25-.59-2.41-2.17-1.21-7.71,5.81-15.54,11.46-23.08,17.48-8.32,6.65-16.17,13.9-25.94,18.48-1.41.66-3.02.88-4.54,1.31.91-1.05,1.81-2.11,2.73-3.14.44-.49,1.01-.89,1.36-1.44.2-.32.06-.84.07-1.27-.43.02-.89-.05-1.28.08-.28.09-.42.51-.69.7-4.19,3.01-5.36,2.54-6.4-2.6-.26-1.3-.51-2.61-.62-3.93-.18-2.21-1.03-3.36-3.38-4.16-2.34-.79-4.25-2.83-6.35-4.32,2.16-1.11,4.28-2.33,6.5-3.31,1.96-.86,4.05-1.43,6.08-2.13-.74-2.12-1.3-4.33-2.25-6.35-5.19-11.06-7.61-22.7-7.01-34.86.28-5.61,1.2-11.22,2.29-16.74.33-1.7,2.2-3.08,3.3-4.65.26-.38.26-.94.39-1.42-.56-.04-1.24-.31-1.67-.09-2.2,1.13-4.32,2.43-6.51,3.58-.53.28-1.23.21-1.86.3.26-.51.38-1.21.79-1.51,5.63-4.11,11.33-8.12,16.93-12.26,2.13-1.57,3.94-3.58,6.12-5.06,6.58-4.48,13.23-8.87,19.93-13.17,7.4-4.75,14.85-9.43,22.35-14.03,2.78-1.71,5.42-3.96,9.11-3.44.49.07,1.59-.66,1.55-.78-.99-3.49,2.27-3.5,3.89-4.45,17.1-9.95,34.29-19.77,51.46-29.6.24-.14.61-.05,2.01-.14-1.92,1.57-3.09,2.75-4.46,3.62-10.39,6.56-21.24,12.47-31.1,19.74-9.73,7.18-19.85,13.69-29.88,20.4-2.43,1.63-4.06,4.5-5.9,6.93-.34.44-.16,1.71.25,2.22,10.65,13.22,21.7,25.99,39.73,29,5.04.84,10.19,1.05,15.3,1.28,1.14.05,2.35-.97,3.48-1.59.88-.47,1.68-1.08,2.52-1.62.49,1.2,1.06,2.38,1.44,3.62.11.37-.17,1.07-.5,1.33-6.35,4.95-12.03,10.94-20.67,12.18-3.57.51-7.06,1.82-10.48,3.05-.74.26-1.5,1.75-1.47,2.65.14,5.07.55,10.13.8,15.19.35,7.23.78,14.45.91,21.68.07,4.16.45,4.63,4.68,5.7,2.7.68,5.25,2.01,7.77,3.25,1.54.76,2.9,1.88,4.35,2.84-1.57.52-3.12,1.14-4.73,1.55-2.58.65-5.17,1.51-7.79,1.66-3.81.21-4,2.42-4.05,5.39-.21,11.96-.32,23.94-1.09,35.88-.24,3.66,2.3,5.24,3.47,7.8.14.3,1.81,0,2.74-.2,8.27-1.85,16.51-3.88,24.82-5.54,2.99-.6,3.77-2.08,3.69-4.8-.03-1.09.61-2.21.94-3.31.51,1.29,1.51,2.6,1.44,3.86-.39,6.85-7.7,15.07-14.32,16.22-11.23,1.94-21.75,6.01-32.15,10.46-4.41,1.89-9.07,3.34-13.22,5.68-4.75,2.68-9.24,5.91-13.51,9.32-4.02,3.21-7.62,6.95-11.36,10.5-.38.36-.45,1.04-.67,1.57.59-.13,1.24-.15,1.74-.42.96-.53,1.85-1.2,2.76-1.81.21.26.41.52.62.78-3.73,3.04-7.45,6.08-11.2,9.1-4.38,3.53-8.74,7.09-13.19,10.54-2.33,1.81-4.78,3.48-7.28,5.05-1.58.99-3.25.88-4.35-.86-1.14-1.8-2.24-3.63-3.11-5.56-.2-.45.57-1.35.9-2.04.33.56.69,1.11.98,1.69.19.38.29.81.43,1.22.42-.21.97-.32,1.22-.65.39-.52.93-1.28.79-1.78-1.15-4.33,2.43-5.56,4.83-7.53,6.94-5.7,13.93-11.36,20.86-17.08.51-.42.73-1.22,1.08-1.84-.69.28-1.48.41-2.05.85-7.23,5.56-14.45,11.13-21.63,16.75-3.5,2.74-3.59,2.72-4.51-1.84-.67-3.33-.17-7.07-3.89-10.09Zm25.07-145.66c1.54,8.74,3.28,18.55,5,28.37.32,1.85.9,2.36,2.41.77,1.38-1.45,1.99-1.35,2.06.97.13,4.07.64,8.14,1.14,12.19.03.27,1.54.77,1.82.53,1.12-.97,2.1-2.14,3-3.33,3.3-4.39,6.24-9.1,9.89-13.17,6.1-6.8,12.66-13.2,19-19.79.78-.81,1.42-1.74,2.12-2.61-1.1-.32-2.18-.75-3.31-.94-6.84-1.13-13.39-3.32-18.82-7.58-5.99-4.7-11.4-10.15-17.07-15.27-.95-.86-1.93-1.68-2.89-2.52-.56,1.29-1.42,2.53-1.64,3.87-.94,5.74-1.7,11.5-2.7,18.51Zm4.38,107.76c-1.36,5.32,1.74,7.96,6.57,9.55,1.55.51,2.95,1.51,4.4,2.32,5.21,2.92,10.73,3.27,16.45,2,2.38-.53,3.85-1.82,3.92-4.42.16-5.64.5-11.28.52-16.92.04-12.6-.07-25.2-.16-37.8,0-.73-.38-1.46-.58-2.19-.42.61-.99,1.17-1.24,1.85-5.3,14.62-14.16,26.68-26.26,36.33-3.02,2.41-4.82,5-3.61,9.28Zm44.16-122.82c-9.8-6.73-17.92-15.25-25.3-24.54-.31-.39-.62-.82-1.03-1.08-.35-.22-.84-.23-1.27-.33-.03.44-.26,1.02-.06,1.29,1.28,1.74,2.61,3.44,4.01,5.1,6.68,7.91,13.73,15.4,23.65,19.56Zm-11.84,8.86c.21-.33.42-.65.64-.98-10.94-6.41-19.28-15.52-27.03-25.26-.39-.49-1.21-.62-1.83-.92.25.73.33,1.58.78,2.16,6.21,8.02,12.89,15.59,21.32,21.39,1.95,1.34,4.09,2.42,6.14,3.62Z"/>
        <path d="m62.11,258.48c9.4,8.13,20.74,12.64,32.38,15.88,14.51,4.04,29.34,6.89,44.04,10.23.8.18,1.7.3,2.48.11,2.53-.61.52-.68-.13-.9.33-.27.69-.8.99-.76,6.58.75,13.14,1.68,19.73,2.33,4.56.45,9.15.54,13.78-.07-7.79-.75-15.61-1.3-23.36-2.29-20.96-2.68-41.64-6.78-61.35-14.54-8.14-3.2-15.81-7.63-23.56-11.74-1.41-.74-4.16-1.49-2.61-4.36l-.11.1c13.32,9.84,28.41,15.8,44.28,19.95,21.46,5.61,43.26,9.36,65.42,10.44,19.8.97,39.62.38,59.33-1.91,13.47-1.57,26.13-6.35,38.89-10.66,2.09-.71,4.38-.83,6.58-1.23.23,3.01-2.29,4.09-3.99,5.81-15.49,15.6-35.32,18.79-55.97,19.64-15.08.62-30.16,1.74-45.23,1.63-11.06-.07-22.1-1.95-33.18-2.67-9.49-.62-18.67-2.59-27.78-5.11-1.74-.48-3.45-1.06-5.15-1.65-2.58-.89.19-1.61.09-2.42h-.02c5.73,1.4,11.4,3.16,17.2,4.17,19.65,3.43,39.43,5.5,59.49,4.39-3.35-.3-6.7-.77-10.05-.87-27.54-.81-54.55-4.86-80.8-13.36-11.7-3.79-23.2-8.27-33.19-15.62-4.18-3.08-7.59-7.22-11.25-10.97-.43-.44-.25-1.47-.36-2.23.72.18,1.82.13,2.11.58,2.72,4.35,7.46,5.81,11.5,8.27l-.18-.18Z"/>
        <path d="m1454.73,369.33c.89-6.19,3.76-11.56,6.82-16.78,7.24-12.34,17.04-22.48,27.72-31.87,30.55-26.84,65.83-45.4,103.54-59.89,27.2-10.45,55.14-18.53,83.06-26.71,6.85-2.01,13.81-3.63,20.71-5.44.8-.21,1.6-.63,2.4-.65,1.21-.02,2.43.23,3.65.37-.81.73-1.59,1.49-2.44,2.17-.38.3-1.12.32-1.3.67-.68,1.35-1.2,2.78-1.78,4.18,1.23-.26,2.83-.11,3.62-.84,2.64-2.45,4.96-5.24,7.47-7.84.36-.37,1.05-.42,1.59-.62-.08.58.04,1.31-.27,1.72-4.4,5.77-8.56,11.23-16.67,12.92-30.28,6.33-60.13,14.4-89.49,24.18-26.85,8.94-53.41,18.66-77.61,33.65-17.74,10.99-35.13,22.88-46.68,40.67-7.13,10.98-16.88,19.53-24.32,30.12Z"/>
        <path d="m936.25,87.87c-8.48-1.31-16.5-4.24-23.65-9.38-1.75-1.26-3.4-2.67-5.04-4.07-2.11-1.8-4.06-3.72-6.52-.29-.41.56-2.08.21-3.17.28.27-.87.34-1.88.85-2.57,1.53-2.09,2.47-3.85,1.19-6.75-.56-1.27,1.12-4.24,2.57-5.57,7.6-6.92,15.1-14.05,24.8-18.12.61-.26,1.22-.65,1.85-.72,1.59-.18,3.19-.21,4.78-.3-.67,1.57-.94,3.61-2.09,4.62-4.4,3.84-3.67,4.34.08,8.32,7.6,8.08,16.78,13.46,27.82,15.49,1.3.24,2.94,1.04,3.49,2.08.42.78-.65,3.41-1.08,3.41-3.08.04-3.77,2.96-5.71,4.28-2.33,1.58-4.57,3.29-6.88,4.89-3.93,2.72-8.38,3.83-13.29,4.38Zm-6.02-8.82c-6.1-4.98-11.21-9.17-16.35-13.31-.42-.34-1.08-.4-1.63-.59.09.57-.03,1.33.3,1.69,4.71,5.19,10.31,9.1,17.68,12.21Zm10.36-10.06c-5.4-4.78-10.32-9.18-15.31-13.5-.6-.52-1.55-.65-2.34-.95.35.85.49,1.88,1.07,2.51,4.55,4.92,9.76,8.97,16.58,11.95Z"/>
        <path d="m1199.82,86.51c-.65-.28-1.72-.47-2.41-1.08-2.56-2.28-4.84-4.89-7.51-7.01-4.4-3.5-7.1-8.16-9.53-13.04-1.14-2.3,1.99-6.71,5.44-7.17,1.45-.2,1.68-.28,2.53-1.68,1.4-2.3,2.76-5.82,6.77-5.16.31.05.89.04.91-.04,1.13-4.7,2.82-2.04,4.44-.36.22-.48.76-1.15.61-1.42-1.31-2.22-.21-3.67,1.68-4.3,1.93-.64,3.74-.29,4.93,1.97,3.44,6.52,7.59,12.45,14.03,16.52,2.34,1.48,4.15,2.16,6.7.51,2.06-1.34,4.46-2.35,6.84-2.95,1.39-.35,3.06.39,4.6.63-.7,1.23-1.12,2.87-2.16,3.64-5.9,4.33-11.75,8.77-18,12.53-5.09,3.06-10.71,5.24-16.15,7.71-1.03.47-2.27.45-3.73.71Zm3.99-31.99c0,.86-.22,1.62.03,2.14,2.79,5.71,7.67,9.36,12.81,12.73.27.18.85-.1,1.28-.17-.19-.43-.29-.94-.6-1.26-4.07-4.28-8.17-8.53-12.28-12.77-.22-.22-.57-.31-1.25-.67Zm-9.97,13.02c.23,1.13.14,2.01.53,2.36,2.88,2.65,5.84,5.23,8.83,7.77.52.44,1.31.56,1.98.83-.25-.67-.33-1.53-.79-1.97-2.86-2.7-5.81-5.31-8.75-7.93-.35-.31-.81-.48-1.8-1.06Z"/>
        <path d="m1615.73,285.82c-1.26-.53-2.64-1.03-3.96-1.67-1.36-.66-2.66-1.45-3.98-2.19,1.28-.99,2.46-2.16,3.86-2.94,25.36-14.14,52.93-22.19,80.87-29.18,4.19-1.05,8.4-2.06,12.64-2.9.93-.18,2.03.44,3.05.7-.5.79-.87,1.72-1.52,2.35-4.44,4.31-8.59,9.04-14.28,11.75-3.1,1.48-6.39,2.72-9.72,3.54-20.84,5.11-41.51,10.77-61.46,18.82-1.68.68-3.47,1.09-5.5,1.72Z"/>
        <path d="m1560.18,121.22c2.89.45,5.78.89,8.66,1.34.06-.25.13-.5.19-.75-1.01-.37-2.03-.71-3.03-1.12-10.18-4.21-18.32-10.63-22.63-21.12-.26-.64-.15-1.42-.21-2.14.59.44,1.38.76,1.73,1.34,3.66,6.02,9.52,9.71,14.96,13.72,2.55,1.88,6.07,2.41,9.06,3.75,2.7,1.22,3.67-2.51,6.2-1.74-8.57-2.31-14.55-8.12-20.57-13.86-.48-.46-.54-1.37-.8-2.07.65.37,1.38.64,1.93,1.11,16.39,14.18,17.89,13.7,38.38,9.81.94-.18,1.87-.45,3.1-.01-2.48,1.41-5.01,2.75-7.44,4.24-5.73,3.52-11.25,7.45-17.2,10.53-2.59,1.34-6.04,1.23-9.11,1.36-2.46.1-3.49-1.55-3.11-3.99l-.11-.39Z"/>
        <path d="m1717.58,271.48c-9.17,5.59-18.23,11.38-27.55,16.7-4.71,2.69-9.76,4.94-14.9,6.66-3.34,1.12-7.12.94-10.7,1.34,2.92-2.09,5.62-4.67,8.82-6.18,13.32-6.28,26.79-12.23,40.21-18.29,1.17-.53,2.36-.99,3.54-1.49.19.42.39.84.58,1.25Z"/>
        <path d="m1743.52,203.16c-.5,1.71-1.06,3.61-1.62,5.52-.28-1.9-.67-3.79-.81-5.7-.62-8.56-2.28-16.75-8.62-23.12-1.72-1.73-3.79-3.16-5.84-4.51-1.87-1.22-5.02-.9-4.79-4.47.02-.33-1.38-.66-2.01-1.13-1.28-.96-2.61-1.92-3.69-3.09-.59-.64-.71-1.71-1.04-2.59.95-.05,1.98-.38,2.83-.12,5.66,1.77,11.51,3.21,16.8,5.79,1.75.85,2.01,4.75,2.94,7.26-.85-.12-1.82-.02-2.52-.41-2.99-1.69-5.87-3.58-8.87-5.24-.46-.25-1.39.36-2.1.57.41.4.75.95,1.25,1.16,13.21,5.57,16.26,17.18,18.09,30.08Z"/>
        <path d="m607.68,33.22c-26.92-6.9-53.83-7.79-80.72-.24-.09-.31-.18-.62-.27-.93,1.71-.8,3.34-1.91,5.14-2.35,18.46-4.47,37.13-5.29,55.91-2.64,5.72.81,11.33,2.45,16.98,3.79,1.07.25,2.07.85,3.1,1.28-.05.36-.09.73-.14,1.09Z"/>
        <path d="m1727.85,257.21c-1.77-.35-2.53-.5-3.29-.65.39-.69.71-1.42,1.17-2.07,2.78-3.91,5.58-7.8,8.37-11.71,1.29-1.8,7.64-3.64,9.52-2.64.4.21.85,1.2.68,1.45-2.8,4.25-5.25,8.86-8.73,12.48-1.93,2-5.6,2.33-7.73,3.12Z"/>
        <path d="m299.88,219.04c-.61-.13-1.21-.25-1.82-.38.4-.58.74-1.22,1.23-1.72,1.79-1.84,3.57-3.7,5.5-5.37.31-.27,1.91.2,2.02.59.95,3.24,2.67,2.63,4.72,1.17.46-.33,1.06-.46,1.6-.68.03.61.31,1.36.06,1.8-1.32,2.28-2.52,4.71-4.23,6.68-4.43,5.12-9.08,10.06-13.71,15-.45.48-1.38.51-2.08.74.26-.73.37-1.58.82-2.18,2.79-3.72,5.73-7.32,8.45-11.09.81-1.12,1.05-2.65,1.56-3.99-1.31-.39-2.63-.78-3.94-1.18-.05.2-.11.41-.16.61Z"/>
        <path d="m0,325.15c.15-1.8.22-3.61.47-5.39.51-3.59,4.27-5.21,7.14-3.17,1.57,1.12,3.33,2,4.76,3.28.79.7,1.33,1.94,1.51,3.02.36,2.23-.91,2.52-2.64,1.71-1.79-.83-3.51-1.84-5.34-2.57-.61-.24-1.46.13-2.19.22.44.46.84.95,1.32,1.36.24.2.65.19.91.37,1.29.88,2.56,1.79,3.84,2.69-1.42,1.7-2.52,4-4.32,5-4.19,2.31-5.3,1.4-5.34-3.52,0-.99,0-1.98,0-2.98-.03,0-.07,0-.1-.01Z"/>
        <path d="m1751.23,227.4c-1.09,2.63-2.52,6.19-4.08,9.7-.21.47-1.36,1.04-1.51.91-.54-.46-1.13-1.21-1.14-1.85-.02-1.13.43-2.27.6-3.41.24-1.62.27-3.03-2.13-2.77-1.51.17-2.01-.68-1.6-2.21,1.39-5.18,2.65-10.39,4.11-15.55.22-.78,1.26-1.34,1.92-2,.21.72.48,1.44.63,2.17,1,4.62,1.98,9.25,3.2,15.01Z"/>
        <path d="m803.66,453.44c-.95,2.56-1.9,5.11-2.86,7.67-2.47,6.57-4.41,13.21-3.25,20.37.16.97.11,2.01-.07,2.98-.2,1.12-.66,2.19-1,3.28-.62-1.09-1.65-2.14-1.78-3.29-.27-2.25-.19-4.57.02-6.84.71-7.72,4.75-18.99,8.94-24.17Z"/>
        <path d="m1690.43,291.17c12.55-8.18,25.11-16.35,37.66-24.53-11.16,10.32-23.84,18.35-37.66,24.53Z"/>
        <path d="m793.99,493.36c.08-1.22.1-2.44.27-3.64.04-.26.56-.45.86-.68.67,1.17,1.71,2.27,1.96,3.53,1.05,5.3,1.89,10.65,2.72,15.99.13.81-.2,1.69-.31,2.53-.86-.58-2.3-1.01-2.48-1.75-1.27-5.28-2.28-10.62-3.37-15.94.12-.01.23-.03.35-.04Z"/>
        <path d="m707.35,248.22c0,5.15.07,9.78-.03,14.4-.05,1.97-.42,3.94-.76,5.9-.06.33-.67.56-1.02.84-.22-.4-.63-.8-.63-1.21,0-1.32.21-2.64.2-3.96-.06-5.58-.29-11.16-.18-16.74.03-1.83.89-3.64,1.37-5.46.38,1.76.79,3.51,1.12,5.27.09.47-.07.99-.06.96Z"/>
        <path d="m1712.61,161.61c6.73-2.24,12.75-1.07,17.94,4.1-5.98-1.37-11.96-2.73-17.94-4.1Z"/>
        <path d="m1716.37,245.23c-.26.46-.38.79-.6,1.02-4.53,4.78-9.04,9.59-13.65,14.28-.59.6-1.75.62-2.65.91.44-.75.76-1.61,1.34-2.22,3.94-4.16,7.92-8.27,11.93-12.37.68-.7,1.5-1.29,2.34-1.8.27-.16.8.1,1.29.18Z"/>
        <path d="m1317.8,132.28c-1.93-.45-3.47-.82-5-1.18,1.34-.75,2.69-1.48,4.02-2.24,3.74-2.14,7.47-4.3,11.24-6.39.49-.27,1.19-.15,1.79-.21-.3.49-.48,1.13-.91,1.45-1.85,1.42-3.8,2.69-5.64,4.12-1.41,1.09-4.17.86-3.82,3.82.02.17-1.28.49-1.69.64Z"/>
        <path d="m1171.7,298.19c.69.33,1.23.43,1.56.76,3.77,3.86,7.52,7.74,11.25,11.64.17.18.17.53.25.79-.3.08-.75.33-.87.22-4.24-4.11-8.45-8.24-12.62-12.41-.09-.09.27-.64.43-1.01Z"/>
        <path d="m962.49,332.93c-7.74,1.82-15.18,3.58-22.64,5.31-.57.13-1.2.07-1.79.1.48-.49.87-1.22,1.46-1.45,7.3-2.88,14.9-4.03,22.97-3.97Z"/>
        <path d="m606.68,131.95c-.38-.17-.96-.42-1.54-.68.33-.46.55-1.12,1-1.35,4.76-2.54,9.55-5.03,14.36-7.47.49-.25,1.17-.12,1.77-.17-.3.49-.48,1.15-.91,1.44-3.66,2.47-7.33,4.94-11.09,7.26-.93.58-2.19.62-3.58.97Z"/>
        <path d="m1716.18,257.9c3.14-3.56,6.28-7.12,9.42-10.68,1.09-1.24,2.17-2.48,3.29-3.69.15-.16.67-.24.79-.12.19.18.35.71.24.84-3.88,4.62-7.78,9.23-11.76,13.76-.22.25-1.19-.17-1.81-.28,0,0-.17.17-.17.17Z"/>
        <path d="m195.35,318.15c3.13-3.94,7.58-4.4,12.12-4.55.55-.02,1.12.47,1.68.72-.49.36-.93.92-1.48,1.05-4.12.95-8.26,1.82-12.4,2.72l.08.06Z"/>
        <path d="m16.21,378.44c1.2-1.21,2.24-2.66,3.63-3.57,1.13-.73,2.66-.98,4.04-1.09.55-.04,1.18.88,1.77,1.37-.49.52-.88,1.3-1.48,1.51-2.55.9-5.17,1.63-7.76,2.42-.07-.21-.14-.43-.21-.64Z"/>
        <path d="m107.68,284.29c-5.29,2.78-9.91-.44-14.75-1.67-.17-.04-.42-.5-.36-.6.16-.26.49-.63.72-.61,1.11.09,2.23.25,3.33.48,3.69.78,7.37,1.59,11.05,2.39,0,0,.02,0,.02,0Z"/>
        <path d="m1716.35,257.73c-.61.17-1.21.39-1.83.51-.43.08-.89.02-1.34.02.04-.44-.1-1.03.14-1.31,2.41-2.85,4.85-5.68,7.37-8.44.32-.35,1.16-.23,1.76-.33-.13.54-.12,1.18-.42,1.6-1.91,2.73-3.9,5.42-5.85,8.12l.17-.17Z"/>
        <path d="m1006.42,321.03c2-1.98,3.99-3.98,6.03-5.92.28-.27.88-.2,1.34-.29-.04.41.06.92-.15,1.21-1.54,2.15-2.96,4.43-4.78,6.33-2.46,2.57-1.81-.55-2.33-1.48,0,0-.11.15-.11.15Z"/>
        <path d="m1544.07,79.23c-.46-.2-.84-.26-1.01-.48-.11-.14-.02-.67.15-.77,3.05-1.92,6.13-3.82,9.22-5.67.13-.08.61.23.76.47.12.19.09.7-.05.79-3.04,1.93-6.11,3.82-9.08,5.67Z"/>
        <path d="m1478.23,323.27c-.06-.49-.31-1.05-.12-1.3,1.7-2.36,3.45-4.68,5.25-6.96.18-.23.86-.07,1.3-.09-.02.28.06.64-.08.84-1.76,2.35-3.55,4.69-5.35,7-.17.22-.54.29-.99.52Z"/>
        <path d="m291.46,399.76c.9.29,1.98.37,2.7.92,1.48,1.14,2.77,2.54,4.14,3.83-1.58-.63-3.17-1.23-4.74-1.9-.89-.38-1.75-.85-2.61-1.29-.54-.28-1.07-.58-1.61-.88.67-.22,1.33-.43,2.12-.68Z"/>
        <path d="m1118.02,323.25c-.09-.47-.38-1.04-.21-1.29,1.61-2.25,3.27-4.46,4.99-6.63.18-.23.82-.09,1.25-.12-.09.42-.06.93-.3,1.24-1.55,2.11-3.15,4.18-4.76,6.25-.18.23-.55.31-.97.54Z"/>
        <path d="m347.96,432.19c-1.5-.91-2.97-1.8-4.44-2.7.15-.25.32-.71.45-.7,1.65.16,3.33.26,4.94.66.64.16,1.11,1.01,1.66,1.54-.76.35-1.52.7-2.6,1.19Z"/>
        <path d="m1560.18,121.22l.11.39c-3.64.34-6.3-1.01-7.73-4.49,0,0-.14.13-.14.13,2.59,1.33,5.18,2.65,7.76,3.98Z"/>
        <path d="m1227.53,280.78c-1.07.37-2.12.81-3.21,1.08-.88.22-1.81.23-2.73.34.57-.77,1.1-1.59,1.74-2.31.43-.49.96-.98,1.55-1.21.71-.28,1.52-.28,2.28-.4.06.89.13,1.78.19,2.67l.17-.18Z"/>
        <path d="m1363.24,276.62c0,.67.09,1.5-.04,2.3-.06.37-.52.93-.8.94-.35,0-.99-.47-1.01-.76-.12-1.96-.14-3.93-.09-5.89,0-.26.58-.59.94-.71.17-.05.66.33.69.55.15,1.13.21,2.27.31,3.57Z"/>
        <path d="m181.29,321.04c4.15-3.59,9.12-3.17,14.06-2.89l-.08-.06c-4.7.96-9.39,1.91-14.09,2.87,0,0,.11.08.11.08Z"/>
        <path d="m945.88,283.19c-.37-.81-.71-1.2-.62-1.42.17-.43.51-.88.9-1.11,1.47-.85,2.99-1.61,4.49-2.4.19.4.61,1.1.54,1.15-1.65,1.24-3.35,2.42-5.31,3.79Z"/>
        <path d="m655.54,276.73c.02.33.15.7.04.98-.29.75-.69,1.45-1.04,2.17-.32-.68-.68-1.35-.95-2.06-.11-.29-.06-.66,0-.98.26-1.49.55-2.97.83-4.46.54,1.39,1.08,2.78,1.61,4.17-.16.06-.33.12-.49.18Z"/>
        <path d="m62.11,258.48l.18.18c-.35-.91-.7-1.82-1.05-2.73.97.33,2.01.53,2.88,1.03,1.55.89,3,1.97,4.15,3.73-2.06-.74-4.11-1.48-6.17-2.21Z"/>
        <path d="m181.18,320.96c-2.97.64-5.94,1.28-8.92,1.92-.06-.45-.12-.9-.17-1.34,3.07-.17,6.13-.33,9.2-.5l-.11-.08Z"/>
        <path d="m489.97,232.8c-.61-.78-1.51-1.49-1.72-2.36-.14-.58.69-1.42,1.14-2.1.6-.9,1.26-1.77,1.89-2.65-.13,1.2-.18,2.43-.42,3.61-.25,1.24-.69,2.44-1.05,3.66l.16-.15Z"/>
        <path d="m64.49,252.37c-3.86,1.12-4.72-2.59-6.64-4.56,2.18,1.56,4.35,3.11,6.53,4.67l.11-.1Z"/>
        <path d="m514.09,216.7c-1.32,1.23-2.34,2.19-3.37,3.16-.28-.33-.85-.91-.8-.96.86-1,1.77-1.96,2.74-2.84.11-.1.67.29,1.43.65Z"/>
        <path d="m1531.43,6.02l-7.31-5.16c.18-.29.37-.57.55-.86l7.4,5.03c-.22.33-.43.66-.65.99Z"/>
        <path d="m809.62,424.75c-.82-2.82,1.45-4.07,2.91-5.73.41.41,1.21,1.14,1.18,1.17-1.32,1.56-2.71,3.05-4.09,4.55Z"/>
        <path d="m1739.03,197.06c-.23.33-.43.73-.74.98-.09.07-.67-.22-.75-.44-.33-.9-.63-1.82-.8-2.76-.19-1.03-.23-2.09-.33-3.14.54,1.01,1.1,2.02,1.61,3.05.36.72.65,1.47,1.01,2.31Z"/>
        <path d="m1231.72,217.58c-1.51.94-2.62,1.67-3.79,2.26-.08.04-1.03-1.22-.95-1.31.83-.9,1.76-1.7,2.73-2.45.08-.06.59.43,2,1.5Z"/>
        <path d="m558.04,39.27c-2.89.5-5.77,1-8.66,1.5-.03-.2-.06-.4-.1-.61l8.56-1.24c.07.11.13.23.2.34Z"/>
        <path d="m1752.64,234.72c.12.23.38.49.34.7-.09.46-.25.95-.52,1.33-.82,1.16-1.69,2.27-2.58,3.38-.03.04-.44-.24-.67-.37,1.01-1.6,2.01-3.21,3.03-4.8.07-.12.26-.16.4-.24Z"/>
        <path d="m1552.42,117.24s.14-.13.14-.13c-1.74-1.03-3.49-2.06-5.23-3.09.31-.4.62-.8.92-1.2,1.39,1.47,2.78,2.95,4.17,4.42Z"/>
        <path d="m786.4,426.88c1.72-1.61,3.44-3.23,5.15-4.84.19.19.37.38.56.57-1.73,1.6-3.47,3.19-5.2,4.79-.17-.17-.34-.35-.51-.52Z"/>
        <path d="m800.09,437.82c.46-.33.92-.65,1.38-.98-.88,2.54-1.77,5.07-2.65,7.61-.28-.1-.55-.2-.83-.3.7-2.11,1.4-4.22,2.1-6.33Z"/>
        <path d="m1736.13,188.93c-.9-.33-1.14-.34-1.19-.44-.65-1.24-1.27-2.49-1.9-3.74.28-.08.78-.29.81-.23.71,1.3,1.38,2.63,2.29,4.41Z"/>
        <path d="m1382.92,415.93c-.6.54-1.25,1.33-1.41,1.24-.59-.33-1.36-.91-1.42-1.47-.06-.51.71-1.11,1.11-1.68.51.56,1.01,1.13,1.71,1.91Z"/>
        <path d="m850.88,245.82c-.45.69-.81,1.26-1.18,1.83-.25-.72-.66-1.44-.68-2.17-.01-.52.51-1.05.8-1.58.33.6.67,1.19,1.07,1.91Z"/>
        <path d="m807.97,161.84c0,9.65,0,19.31-.02,28.96,0,.43-.23.86-.36,1.3-.48-.32-1.33-.6-1.39-.98-.37-2.72-.83-5.47-.8-8.21.08-6.28.39-12.55.67-18.82.04-.79.45-1.56.68-2.34.4.03.8.06,1.2.09Z"/>
      </g>
      <g id="Layer_1-2" data-name="Layer 1-2">
        <g>
          <path class="cls-2" d="m939.9,424.47h.01s0-.01,0-.01m407.69-51.76h.02s-.02,0-.02,0h0Zm-203.32,33.47l-.02.02s.01,0,.02-.01h0Zm-18.25,1.64s0,.01,0,.02h0v-.02Zm-3.27,14.83h0s0,0,.01,0h0Zm-144.28,16.48h0v.02s0-.01,0-.02Z"/>
          <path d="m1111.48,399.06c-1.81.29-3.61.58-5.41.88-1.86.3-3.71.68-5.59.88-1.62.18-3.22.44-4.9.38-1.58-.05-3.19.37-4.79.61-3.09.45-6.18.9-9.25,1.38-7.02,1.1-14.04,2.18-21.05,3.34-5.32.88-10.62,1.84-15.92,2.8-8.21,1.49-16.41,3.01-24.61,4.53-2.3.43-4.59.88-7.21,1.38,1.41-1.11,2.55-2.01,3.7-2.89,2.93-2.24,5.93-4.42,8.79-6.72,2.55-2.05,5.11-4.07,8.11-5.66.48-.26.89-.6,1.33-.91-.05-.09-.11-.19-.16-.28-.92.17-1.86.29-2.76.51-3.16.79-6.46,1.35-9.44,2.5-6.31,2.42-12.43,5.18-18.65,7.76-6.32,2.63-12.63,5.27-19.02,7.79-5.35,2.11-10.8,4.03-16.19,6.08-1.67.64-3.25,1.45-4.9,2.12-1.07.43-2.17.84-3.31,1.12-5.49,1.34-11.03,2.59-16.52,3.96-2.84.71-5.62,1.6-8.41,2.46-.94.29-1.82.73-2.73,1.11l.04.04-.06-.03h.01s0,0,0,0c-.99-.12-1.94-.15-2.36.85-.26-.09-.51-.17-.58-.19-.59.35-1.02.75-1.56.9-2.73.8-5.49,1.52-8.24,2.29-3.27.91-6.54,1.83-9.78,2.78-.45.14-.81.5-1.21.77,2.45-.49,4.92-.95,7.36-1.46,6.67-1.39,13.33-2.85,20.01-4.19,9.37-1.89,18.77-3.68,28.16-5.52,5.58-1.1,11.17-2.19,16.73-3.35,3.71-.78,7.38-1.69,11.23-2.57-2.15,2.13-4.21,4.17-6.26,6.22-2.37,2.37-4.75,4.75-7.08,7.15-.32.33-.97.67-.5,1.27h0c-.24.2-.7.42-.68.59.09.72-.54,1.05-.95,1.5-.76.86-1.52,1.72-2.27,2.58h0c.53-.31,1.09-.58,1.57-.94.84-.65,1.49-1.52,2.45-1.98,1.91-.93,3.46-2.16,4.98-3.45,2.59-2.21,5.17-4.43,7.76-6.64,1.25-1.07,2.45-2.21,3.82-3.16,2.43-1.67,4.95-3.25,7.48-4.81.77-.48,1.64-.95,2.55-1.13,8.32-1.69,16.67-3.28,25-4.95,9.59-1.92,19.18-3.88,28.76-5.85,7-1.44,14-2.9,20.99-4.4,1.93-.41,3.79-1.1,5.73-1.42,1.29-.21,2.55-.29,3.24-.8,1.59-.39,2.78-.68,3.96-.96,1.76-.42,3.51-.9,5.29-1.26,4.26-.87,8.54-1.67,12.81-2.52.25-.05.47-.21.77-.36-.19-.08-.24-.12-.28-.12h0Zm-111.43,18.5c-.27.21-.63.37-.98.44-.78.15-1.55.3-2.33.46-1.28.24-2.55.49-3.83.73-.76.14-1.51.29-2.27.43h0c1.06-.44,2.12-.89,3.18-1.34,3.01-1.26,6.01-2.53,9.01-3.8.69-.29,1.37-.58,2.05-.87.21-.09.42-.18.64-.27-1.81,1.4-3.62,2.82-5.45,4.21h0Zm5.49-4.24l-.03.02s.02-.01.04-.02h0Zm-14.98,6.3l-.05.06.07-.05.05-.02h0s-.05,0-.07.01h0Zm-52.36,5.68v.1s.13-.04.13-.04l-.13-.06Zm-29.39,8.86l.02.02s.03-.02.04-.03c-.02,0-.04,0-.06.01h0Z"/>
          <path d="m1348.38,371.98h-.02.01s0,0,0,0h0Z"/>
          <path d="m1307.77,445.66l-.04.28c-.4,0-.8.06-1.18,0-4.51-.75-9.01-1.57-13.53-2.27-6.44-1-12.91-1.92-19.36-2.89-3.79-.57-7.56-1.2-11.35-1.78-4.42-.68-8.85-1.34-13.27-2.01-7.41-1.12-14.82-2.23-22.22-3.37-2.93-.45-5.84-1.02-8.77-1.45-2.67-.38-5.37-.61-8.04-.96-1.12-.14-2.22-.42-3.33-.61-1.9-.33-3.8-.65-5.72-.95-2.18-.33-4.37-.61-6.55-.94-5.38-.83-10.76-1.67-16.15-2.52-.52-.08-1.02-.23-1.66-.37.53-.55.95-.99,1.37-1.43-.06-.08-.13-.15-.19-.23,3.02-.73,5.95-1.73,9.4-2.24-.27.47-.37.65-.5.87.81.5,1.65.33,2.55.14,3.36-.7,6.72-1.37,10.1-1.99,4.5-.82,9.02-1.57,13.54-2.36.14-.02.26-.12.62-.29-1.27-.2-2.32-.38-3.38-.53-4.44-.63-8.85-1.38-13.32-1.83-2.06-.21-4.19.17-6.3.29-.68.04-1.35.08-2.08-.02,2.28-2.14,4.2-4.5,7.88-5.12,5.52-.94,11-2.04,16.5-3.09,2.91-.55,5.8-1.14,8.7-1.69,5.44-1.05,10.89-2.07,16.33-3.12,6.65-1.29,13.29-2.62,19.94-3.89,2.31-.44,4.65-.73,6.98-1.14,1.17-.2,2.3-.53,3.46-.74,6.14-1.11,12.29-2.2,18.45-3.27.61-.11,1.26-.05,1.9-.07-.21.18-.42.37-.63.54h-.01s0,.01,0,.01c-1.69.55-3.33,1.16-5.18,1.32-1.21.11-2.38.47-3.56.75-1.73.42-3.44.88-5.16,1.31-1.94.5-3.89.93-5.72,1.75-2.94,1.31-6.13,2.06-9.36,2.69-4.16.82-8.32,1.66-12.45,2.6-2.18.5-4.25,1.36-6.43,1.88-5.31,1.28-10.65,2.45-15.98,3.65-1.09.25-2.24.33-3.31.65-1.16.34-2.25.85-3.56,1.37.51.16.87.28,1.23.39,2.59.8,5.19,1.58,7.77,2.41,1.38.44,2.71.58,4.08.02.18-.07.4-.08.8.11-1.01.76-1.97,1.56-3.04,2.24-.9.58-1.95.99-2.9,1.52-1.75.98-3.69,1.42-5.74,1.8-2.9.53-5.72,1.36-8.58,2.05-2.18.53-4.36,1.05-6.56,1.72.4.05.83.2,1.18.12,2.12-.5,4.06.29,6.05.6,2.34.36,4.61,1,6.93,1.44,3.11.58,6.28.94,9.35,1.65,7.15,1.64,14.41,2.92,21.66,4.18,5.73,1,11.45,2.01,17.25,3.03.22.33.45.67.85,1.28,13.26,2.79,26.75,5.63,40.23,8.47h0Z"/>
          <path d="m1097.85,428.96c-1.4-.4-2.92-.76-4.36-1.27-1.74-.62-3.43-1.35-5.12-2.05-1.15-.48-2.25-1.03-3.4-1.5-1.59-.63-3.22-1.21-4.83-1.81.35-.22.61-.24.88-.24,3.61-.08,7.23-.1,10.84-.25,2.84-.12,5.08-1.31,7.04-3.06-.25-.14-.36-.26-.5-.28-3-.57-5.98-1.28-9.02-1.65-9.38-1.14-18.79-2.17-28.18-3.21-2.63-.29-5.29-.37-7.93-.09-.39.04-.76.21-1.22.35,1.46,2.43,3.88,3.06,6.68,3.19,1.7-1.25,3.57-.78,5.58-.39-.39.95-.7,1.77-1.07,2.58-.85,1.9-1.62,3.8-.29,5.77-.42,1-.86,1.94-1.21,2.89-.43,1.17-1.04,2.33-.31,3.47-.35,1.11-.66,2.12-.97,3.13.11.03.22.06.33.09l.89-1.28c.32-.47.61-.97.97-1.42.77-.93,1.68-1.78,2.34-2.75,1.12-1.62,2.08-3.31,3.13-4.96.19-.3.44-.58.69-.89,1.69.68,3.19,1.47,4.81,1.92,2.87.8,5.8,1.49,8.75,2.06,3.26.64,6.61.92,9.84,1.76,2.45.64,4.95,1.16,7.7,1.8-.78-.72-1.38-1.27-2.06-1.9h0Zm-26.78-9.68c.37-.69.64-1.17,1.02-1.87,4.22.49,8.32.96,12.42,1.44-4.41.61-8.83.44-13.44.43Z"/>
          <path d="m1140.69,439.13s0,0,0,0c0,0,0,.01,0,.02h-.01Z"/>
          <path d="m1167.41,397.66c1.41-1.45,2.81-2.9,4.21-4.35-.33,1.13-.69,2.25-.98,3.39-.48,1.87-.96,3.75-1.38,5.64-.31,1.38-.43,2.79-.79,4.16-.29,1.1-.74,2.17-1.23,3.22-.51,1.08-1.1,2.15-1.75,3.18-.25.41-.74.7-1,1.1-.49.73-.95,1.48-1.47,2.19-.63.85-1.48,1.61-1.94,2.52-1.66,3.3-4.41,5.94-7.14,8.6-.57.55-1.09,1.13-1.67,1.67-.67.61-1.48,1.07-2.28,1.55-.84.51-1.45,1.31-2.09,2.02-.57.65-1.05,1.37-1.57,2.05-.11-.03-.22-.06-.33-.09.18-.58.36-1.17.53-1.75-.06-.03-.12-.06-.18-.09-1.89,2.15-3.77,4.31-5.66,6.46-.11-.18-.22-.35-.32-.53-.81.87-1.62,1.73-2.43,2.59-.1-.06-.2-.12-.31-.18,1.51-2.56,4.01-4.68,4.79-7.58-.22.2-.44.41-.66.61.17-1.42.75-2.69,1.58-3.88.6-.85,1.31-1.66,1.87-2.54.74-1.15,1.38-2.35,2.08-3.52,1-1.67,2.05-3.29,3.54-4.72.91-.88,1.42-2.04,2.2-3.03,1.12-1.45,2.25-2.87,3.15-4.44,1.19-2.08,2.68-4.05,4.05-6.06,1.1-1.61,2.18-3.24,3.33-4.83.35-.48.92-.84,1.36-1.28.28-.27.51-.58.73-.89.38-.54.73-1.1,1.19-1.79.28.29.42.44.57.59-.02.04-.04.08-.07.12.02-.04.05-.08.07-.12h0Z"/>
          <path d="m1213.05,370.91s-.03.03-.04.04c0-.02.01-.04.02-.06l.02.02Z"/>
          <path d="m1028.7,430c2.18-2.81,4.39-5.61,6.64-8.47-.19-.72-.42-1.56-.65-2.43-.23-.09-.46-.24-.72-.28-1.49-.22-2.98-.42-4.62-.64-3.71,2.99-7.49,5.97-11.91,8.26-.49-.52-.68-1.48-.58-2.89-.35-.53-.74-1.12-1.24-1.87-2.84.61-5.61,1.19-8.37,1.81-.39.09-.75.35-1.06.6-4.42,3.52-8.59,7.24-12.41,11.23-.94.98-1.78,2.02-2.66,3.03.09.28.16.52.23.72-1.37,1.5-3.08,2.65-4.13,4.24.14.1.28.21.41.31,1.34-1.31,2.69-2.61,4.04-3.91.09.08.17.15.26.23.25.04.49.08.57.09,3.64-2.59,6.74-5.47,10.9-7.3,1.89-.83,3.47-2.19,5.16-3.33.96-.64,1.86-1.33,2.76-1.97.72.76,1.24,1.47,1.94,2.02.74.58,1.66,1,2.4,1.44,2.34.35,4.25-.41,6.21-1.28.39.26.75.51.9.62-.14,2.74-.28,5.29-.41,7.83.08.02.16.05.24.08.82-1.36,1.49-2.81,2.49-4.07,1.02-1.3,2.36-2.43,3.69-3.76-.04-.03-.13-.19-.08-.26h0Zm-12.1.36s-.03-.02-.04-.03c-.22-.08-.44-.15-.67-.23.04-.06.09-.12.14-.17.18.13.35.27.53.4.02,0,.04.01.05.02,0,0,.02.02.03.02-.01,0-.03,0-.04-.01Z"/>
          <path d="m1121.16,440.25s-.02,0-.03,0v-.02s.03.02.03.02Z"/>
          <path d="m1151.91,405.38c-.23-.09-.5-.2-.77-.31.39-1.25,1.86-2.09,1.96-3.5-.21.03-.35.01-.41.06-.19.16-.36.34-.51.52-1.56,1.9-3.65,3.09-6.41,3.41-.51.06-.98.4-1.47.61h0c-1.35.24-1.63,1.36-2.38,2.09-.63.61-1.11,1.38-1.86,1.84-1.09.67-1.68,1.57-2.5,2.66.46-.14.67-.2.85-.26-.12.24-.22.5-.38.73-1.47,2.11-2.89,4.23-4.56,6.25-2.56,3.1-4.7,6.43-7.45,9.45-2.62,2.88-5.21,5.82-6.5,9.38-.3.23-.61.47-1.03.79.37.16.54.24.7.31-1.58,2.56-3.08,5.16-5.59,7.26.28.05.53.06.64-.04,2.15-1.85,4.3-3.7,6.42-5.57.24-.21.32-.53.48-.81-.31.08-.62.16-.93.24.18-.27.29-.62.56-.77,1.67-.9,2.75-2.29,4.05-3.49,1.86-1.7,3.74-3.39,5.58-5.06,1.43.26,2.35-.26,3.21-.94.31-.25.65-.49,1.03-.64,1.24-.47,1.93-1.34,2.31-2.36.55-1.47,1.56-2.69,2.67-3.85,1.44-1.52,3.05-2.92,4.5-4.44,1.17-1.23,2.34-2.51,3.28-3.87,1.03-1.48,1.79-3.09,2.83-4.9-.07-.3-.2-.92-.33-1.57.82-.99,2.17-1.73,2.02-3.23h0Zm-33.71,37.08s-.08-.1-.12-.15c.14-.05.29-.09.43-.14-.1.09-.21.19-.32.28Zm1.03-3.08c.05-.14.1-.27.15-.4.06.03.13.06.19.09-.12.11-.23.21-.34.31h0Z"/>
          <path d="m1096.4,440.5s.02-.02.04-.02c0,.01-.01.03-.02.04l-.02-.02h0Z"/>
          <path d="m1126.05,407.83c.39.73-.11,1.29-.56,1.84-.43.52-.93,1.01-1.47,1.6.46.95-.2,1.61-.97,2.33-2.75,2.58-5.45,5.2-8.12,7.84-.47.47-.73,1.1-1.11,1.7-.43.21-.89.43-1.22.59-1.44,1.79-2.75,3.46-4.78,4.68-1.03.61-1.8,1.57-2.56,2.45-1.56,1.79-3.03,3.65-4.56,5.46-.94,1.11-1.91,2.22-2.93,3.28-.35.36-.89.59-1.35.88.7-1.41,1.4-2.82,2.12-4.26-.13-.26-.27-.55-.4-.8.11-.17.17-.29.26-.41.45-.62,1.05-1.19,1.34-1.86.57-1.33,1.3-2.56,2.3-3.71.71-.82.98-1.89,1.61-2.77,1.65-2.33,3.4-4.61,5.08-6.93.32-.45.47-.99.7-1.49,1.12-1.17,2.22-2.33,3.43-3.59-5.13,1.39-9.99,1.12-14.96-.88-.13-.35-.37-.97-.68-1.77-1.36-.36-2.87-.76-4.37-1.16,0-.07.01-.14.02-.21.32,0,.64-.03.95,0,2.03.2,4.07.62,6.09.56,2.55-.08,5.13-.2,7.6-.98,1.85-.59,3.81-.93,5.7-1.45,1.94-.53,3.84-1.16,6-1.81.69.34,1.66.81,2.76,1.35,1.48-.61,2.95-1.21,4.44-1.83-.13.47-.25.89-.37,1.32h0Z"/>
          <path d="m1053.29,417.79c-.84-.25-1.58-.21-2.34.13-5.74,2.57-11.72,4.8-16.88,8.19-1.34.88-2.38,2.08-3.54,3.15-.08.07,0,.25,0,.45h1.05c1.47,1.46,3.17,2.49,5.49,2.63,1.13.07,2.26.2,3.4.28,1.6.12,3.2.22,4.86.33-.32,1.24-1.27,2.35-.4,3.64-.98,1.46-1.95,2.91-2.93,4.35.12.07.24.15.36.22.38-.39.88-.74,1.12-1.18,1.22-2.28,3.92-3.29,5.69-5.08.31.23.49.36.69.5,1.5-2.3,2.92-4.5,4.37-6.69.95-1.43,1.93-2.85,2.88-4.28.61-.91,1.28-1.81,1.75-2.78.33-.68.36-1.46.54-2.23-2.2-.59-4.16-1.08-6.1-1.64h0Zm-3.74,7.97c-3.47,2.86-7.72,2.51-11.97,2.23,4.39-1.83,8.57-3.97,13.05-5.65.09.09.18.18.27.28-.45,1.06-.91,2.13-1.34,3.14Z"/>
          <path d="m1121.16,424.3l-.07.05.08-.04.05-.07-.07.06Zm3.84-3.56c-.65.33-1.31.65-2.01,1-.06.25-.13.58-.2.91h0c-.31-.09-.67-.32-.92-.24-.55.15-1.05.46-1.48.66-.51-.02-.97-.04-1.41-.06-1.04.99-2.06,1.88-2.95,2.84-1.52,1.63-2.95,3.32-4.44,4.97-1.34,1.48-2.78,2.91-4.06,4.42-1.48,1.74-2.86,3.54-4.23,5.34-.47.62-.77,1.32-1.15,1.98-4.6,7.16-9.69,14.1-13.26,21.77.41-.12.75-.3.93-.56,1.01-1.4,2.03-2.78,3.66-3.75h.02c.34-.27.73-.5,1-.8,2.18-2.44,4.35-4.89,6.51-7.35,1.32-1.5,2.68-2.98,3.91-4.54,1.58-2,3-4.09,4.57-6.1.5-.65,1.25-1.16,1.83-1.77,1.48-1.56,2.9-3.17,4.41-4.71,1.38-1.41,2.53-2.93,3.6-4.52,1.49-2.22,3.23-4.31,4.74-6.51.59-.86.83-1.89,1.22-2.84-.09-.05-.19-.1-.28-.15h0Zm-2.75,2.63c-.06-.04-.13-.07-.2-.11.13-.1.25-.2.38-.29-.06.14-.12.27-.18.4Z"/>
          <path d="m1188.54,394.03c-.37.79-.69,1.52-1.05,2.24-.26.53-.53,1-.54,1.65,0,.72-.54,1.47-.99,2.13-1.48,2.16-1.52,4.54-1.49,6.9.02,1.66-.67,3.11-1.48,4.51-.51.87-1.44,1.58-2.26,2.31-.37.32-.93.49-1.4.73-.08-.06-.16-.13-.24-.19-.47.91-.95,1.82-1.41,2.74-.73,1.42-1.74,2.67-2.84,3.93-2.46,2.81-6.12,4.48-8.87,6.98-1.85.44-2.99,1.65-4.22,2.77-.02.02-.1,0-.47,0,.37-.49.66-.87.95-1.25.82-1.09,1.65-2.18,2.44-3.29.07-.11-.1-.33-.16-.5.22-.18.44-.36.66-.54,0-.02.01-.04.02-.05-.01.01-.02.02-.04.04-.21.18-.43.37-.64.55-.84.67-1.69,1.35-2.53,2.02-.06-.02-.12-.05-.18-.07,1.12-1.48,2.23-2.95,3.35-4.43h.01s.06-.05.06-.05l-.08.05c-.51-.51-.39-.7.66-1.1.47-.7.94-1.4,1.41-2.1.6-.9,1.17-1.82,1.79-2.71.57-.82,1.18-1.63,1.78-2.44.93-1.28,1.88-2.55,2.82-3.83-.22-.43-.4-.8-.57-1.15.05-.11.06-.22.13-.27,1.81-1.32,3.32-2.81,4.53-4.57.72-1.04,1.85-1.88,2.74-2.85,1.02-1.11,1.97-2.27,2.97-3.38.28-.31.64-.58.96-.86.14-.28.2-.62.44-.82,1.19-1.02,2.42-1.99,3.77-3.09h0Z"/>
          <path d="m1114.51,398.5c-.5.39-1.11.5-1.83.33.54-.1,1.08-.2,1.83-.33Z"/>
          <path d="m1124.78,420.46c.46-.57.75-.93,1.04-1.29.32.74.12,1.16-1.04,1.29Z"/>
          <path d="m994.91,437.05c-.46.57-.93,1.14-1.39,1.71-.17-.13-.34-.26-.51-.39.63-.44,1.26-.88,1.89-1.32h0Z"/>
          <path d="m1149.24,377.65c-.35.12-.68.24-1.02.35-.05-.15-.09-.29-.13-.44.36-.06.71-.13,1.07-.2l.09.28Z"/>
          <path d="m1109.41,418.25c-.32.08-.64.17-1.24.32.53-.61.87-.61,1.24-.32Z"/>
          <path d="m1109.45,418.25h0s-.01.02-.01.02c0,0-.01,0-.02-.01,0,0,.02,0,.03,0Z"/>
          <path d="m1112.74,447.88l-.33.21s-.08-.08-.12-.12c.11-.08.22-.15.33-.22.04.05.08.09.12.13h0Z"/>
          <path d="m1127.03,418.27c-.09.15-.18.29-.26.43l-.21-.15c.15-.1.3-.2.45-.3,0,0,.03.02.03.02Z"/>
          <path d="m1140.3,439.42c.12-.09.25-.17.37-.26-.06.12-.12.26-.19.38-.06-.04-.12-.08-.19-.12h0Z"/>
          <path d="m1140.71,439.14s-.02.02-.03.02c0-.01.01-.02.02-.03h.01Z"/>
          <path d="m1349.63,371.55c.07.13.15.26.23.39-.15-.07-.3-.13-.46-.2.08-.07.15-.13.23-.2Z"/>
          <path d="m1349.89,371.96h-.02s-.02-.01-.02-.01h.03s0,.01,0,.01Z"/>
          <path d="m1121.15,440.23s.03-.02.05-.02c0,.01-.02.03-.03.04l-.02-.02h0Z"/>
          <path d="m1121.64,440c-.15.07-.29.14-.44.21l.29-.35s.1.09.15.14Z"/>
          <path d="m908.13,434.29c.21-.03.42-.06.62-.09-.18.11-.35.22-.52.32-.04-.07-.07-.15-.1-.23h0Z"/>
          <path d="m908.82,434.18s-.04,0-.06,0l.05-.03.02.02Z"/>
          <path d="m1372.48,440.14c-.1.02-.21.05-.3.08-.02-.03-.04-.06-.05-.09.1-.05.2-.09.29-.14.02.05.04.1.07.15Z"/>
          <path d="m1152.01,376.98s-.07.06-.11.09c-.03-.07-.05-.14-.07-.21.05,0,.1,0,.15-.01.01.04.05.1.03.14Z"/>
          <path d="m1088.16,465.67c-.09,0-.19.02-.28.02.01-.07.01-.14.04-.21,0-.02.13-.04.14-.03.04.07.07.14.1.21Z"/>
          <path d="m930.33,426.65s-.04.09-.07.14c-.06,0-.12,0-.18.01.03-.08.06-.16.1-.24.05.02.14.04.15.08Z"/>
          <path d="m1213.07,370.84l-.02.07-.02-.02s.03-.04.04-.05Z"/>
          <path d="m933.79,425.81c-.02.05-.05.11-.08.2-.03-.08-.05-.13-.06-.17.05,0,.1-.02.15-.03Z"/>
          <polygon points="1091.58 410.44 1091.47 410.46 1091.49 410.39 1091.58 410.44"/>
          <path d="m1348.45,371.84s-.05.09-.07.14h0s.04-.09.07-.14Z"/>
          <polygon points="1349.94 372.02 1349.87 371.98 1349.89 371.96 1349.94 372.02"/>
          <polygon points="1096.42 440.52 1096.35 440.57 1096.4 440.5 1096.42 440.52"/>
          <path d="m1127.07,418.17s-.03.07-.04.1l-.03-.02.07-.08Z"/>
          <polyline class="cls-2" points="939.92 424.46 939.92 424.46 939.9 424.47"/>
          <polygon class="cls-1" points="1347.63 372.69 1347.62 372.7 1347.61 372.7 1347.57 372.63 1347.63 372.69"/>
          <line class="cls-2" x1="1118.56" y1="442.17" x2="1118.55" y2="442.15"/>
          <path class="cls-2" d="m1118.56,442.17v-.02s-.05.03-.05.03c0,0,.03-.01.05-.02"/>
          <polygon class="cls-1" points="1151.11 405.07 1151.06 405.13 1151.13 405.08 1151.11 405.07"/>
          <polygon class="cls-1" points="1126.05 407.83 1126.05 407.83 1125.96 407.89 1126.04 407.82 1126.05 407.83"/>
          <path class="cls-2" d="m1165.8,422.14h0s0,.03.01.03,0,.02,0,.02"/>
          <path class="cls-2" d="m1165.82,422.2s0,0,0,0c0,0,0-.02,0-.02s0-.02,0-.03h0s0,0,0,0c0,0,.03.02.03.03s0,.01.01.02,0,0,0,0"/>
        </g>
      </g>
    </g>
  </g>
</svg>