<svg width="25" height="22" viewBox="0 0 25 22" fill="none" xmlns="http://www.w3.org/2000/svg">
<path d="M23.8645 20.1482L22.0986 17.943L15.8043 9.79745C15.5961 9.52439 15.2675 9.36703 14.925 9.36703C14.5825 9.36703 14.2585 9.52439 14.0457 9.79745L10.2043 14.7681L8.79272 12.7919C8.58445 12.5003 8.25123 12.329 7.89023 12.329C7.52924 12.329 7.19601 12.5003 6.98775 12.7965L3.28524 17.98L3.07697 18.2669L1.58201 20.1947M3.81747 0.481018C2.18374 0.481018 0.855469 1.80929 0.855469 3.44302V18.2531C0.855469 19.8868 2.18374 21.2151 3.81747 21.2151H21.5895C23.2232 21.2151 24.5515 19.8868 24.5515 18.2531V3.44302C24.5515 1.80929 23.2232 0.481018 21.5895 0.481018H3.81747ZM9.71509 7.44846C9.71509 8.67573 8.72019 9.67063 7.49292 9.67063C6.26565 9.67063 5.27075 8.67573 5.27075 7.44846C5.27075 6.22119 6.26565 5.22629 7.49292 5.22629C8.72019 5.22629 9.71509 6.22119 9.71509 7.44846Z" stroke="#E3E3E3" stroke-width="0.75"/>
</svg>
