<svg width="27" height="28" viewBox="0 0 27 28" fill="none" xmlns="http://www.w3.org/2000/svg">
<path d="M20.9122 12.3819L20.9114 12.3827L19.7646 13.5346L19.7638 13.5354L9.64893 23.6503C9.18101 24.1182 8.59916 24.4616 7.96137 24.6517C7.96109 24.6518 7.96081 24.6519 7.96052 24.652L1.85692 26.448C1.85638 26.4482 1.85585 26.4484 1.85532 26.4485C1.60383 26.5197 1.33363 26.4518 1.14148 26.2627C0.95415 26.0783 0.885737 25.8084 0.960226 25.5582L0.960692 25.5566L2.75785 19.4442C2.75793 19.4439 2.75802 19.4436 2.75811 19.4433C2.94824 18.8055 3.29164 18.2237 3.75955 17.7558L13.8752 7.64017L15.0228 6.49252L15.2431 6.27224L16.611 7.64017L19.7646 10.7937L21.1325 12.1616L20.9122 12.3819ZM22.9872 10.3018L21.6193 8.93385L18.4658 5.78033L17.0994 4.41396L17.3217 4.19369L17.3232 4.19213L18.4709 3.04447L18.4721 3.04325L19.0567 2.45459H19.0608L19.2072 2.30814C20.2815 1.23387 22.0215 1.23387 23.0958 2.30814L25.0911 4.30848L25.0915 4.30892C26.1658 5.38319 26.1658 7.12325 25.0915 8.19752L24.3552 8.93385L23.2075 10.0815L22.9872 10.3018Z" stroke="white"/>
</svg>
