<svg width="25" height="22" viewBox="0 0 25 22" fill="none" xmlns="http://www.w3.org/2000/svg">
<g clip-path="url(#clip0_407_13)">
<path d="M21.474 0.807217L21.4746 0.806761C22.0694 0.359027 22.8973 0.403562 23.4414 0.912448C23.9865 1.42226 24.0882 2.2488 23.6855 2.87218C23.6855 2.87222 23.6855 2.87226 23.6855 2.8723L16.8264 13.4812C16.8262 13.4814 16.8261 13.4816 16.826 13.4818C16.2983 14.292 15.4739 14.8466 14.5482 15.0396L10.011 10.955C10.0812 9.92198 10.5971 8.96804 11.432 8.34186L11.4321 8.3418L21.474 0.807217ZM8.46262 12.734L13.0747 16.8849C13.0753 16.9135 13.0757 16.9417 13.0757 16.9698C13.0757 19.3197 11.1741 21.2213 8.82412 21.2213H2.715C2.24023 21.2213 1.85742 20.8385 1.85742 20.3637C1.85742 19.889 2.24023 19.5062 2.715 19.5062H2.91864C3.4861 19.5062 3.93907 19.1987 4.2228 18.8045C4.50372 18.4142 4.64641 17.9065 4.59542 17.4107L4.59529 17.4096C4.58021 17.2663 4.57259 17.1183 4.57259 16.9698C4.57259 14.7439 6.28664 12.9152 8.46262 12.734Z" stroke="#E3E3E3"/>
</g>
<defs>
<clipPath id="clip0_407_13">
<rect width="24.4365" height="21.7213" fill="white"/>
</clipPath>
</defs>
</svg>
