<svg width="269" height="366" viewBox="0 0 269 366" fill="none" xmlns="http://www.w3.org/2000/svg">
<g opacity="0.2" clip-path="url(#clip0_315_29)">
<mask id="path-1-inside-1_315_29" fill="white">
<path d="M256.795 44.1708C260.734 43.358 264.678 42.5452 268.622 41.7324C267.899 41.5583 267.2 41.5108 266.509 41.5688C260.133 42.1124 253.757 42.6402 247.381 43.2366C240.197 43.9122 233.014 44.5772 225.839 45.3689C218.928 46.1342 212.026 47.0315 205.129 47.9129C198.419 48.7679 191.71 49.6229 185.014 50.5835C177.812 51.6233 170.633 52.795 163.44 53.8875C162.43 54.0406 161.411 54.067 160.364 54.1514C161.35 52.6208 162.195 51.2486 163.097 49.9132C166.722 44.5614 169.759 38.7504 173.572 33.5199C177.394 28.2789 180.723 22.5787 184.235 17.0527C186.179 13.9968 188.052 10.8934 189.949 7.80575C191.625 5.07705 193.212 2.26391 195.644 0.168559C195.414 0.084112 195.278 -0.0267249 195.184 0.00494276C191.527 1.24526 187.615 1.57777 184.31 4.06896C183.225 4.88705 181.976 5.44651 180.76 6.02708C176.995 7.83214 173.201 9.55803 169.44 11.3684C166.595 12.7354 163.782 14.171 160.965 15.596C156.599 17.8022 152.185 19.8975 147.903 22.2832C144.56 24.141 141.381 26.363 138.132 28.432C131.09 32.9182 124.037 37.3834 117.018 41.9224C115.774 42.7299 114.562 43.7064 113.553 44.8517C108.397 50.726 103.176 56.5054 97.3543 61.5775C94.0676 64.4434 90.9547 67.5627 87.7901 70.5975C86.5412 71.7956 85.3862 73.1257 84.1372 74.3238C79.4044 78.847 75.1271 83.8768 71.1314 89.2128C70.4553 90.1154 69.9107 91.1498 69.305 92.121C69.366 92.1685 69.4271 92.216 69.4928 92.2582C71.9015 90.0468 74.3101 87.8353 76.7235 85.6238C76.8221 85.7558 76.9254 85.8877 77.024 86.0197C74.0002 89.9834 70.3286 93.1713 66.8306 96.5861C63.281 100.043 59.8112 103.585 55.8156 106.461C61.9429 104.894 67.3048 101.41 72.8687 98.1009C71.8686 101.901 70.9155 105.675 69.413 109.148C67.4316 113.713 64.9431 118.004 62.8162 122.496C61.3278 125.636 60.2573 129.03 58.6656 132.096C57.6139 134.128 57.7641 135.701 58.7595 137.564C60.5155 140.858 62.1495 144.235 63.8585 147.561C64.4266 148.664 64.8633 150.057 65.7225 150.717C66.8353 151.567 66.7179 152.4 66.5724 153.847C59.6798 148.516 51.8528 147.028 44.0165 145.138C46.0777 143.433 48.2938 142.272 50.0452 140.166C48.646 139.074 47.4863 139.718 46.3594 139.997C42.9647 140.826 39.5889 141.744 36.1895 142.557C34.2363 143.022 33.8654 143.349 34.4382 145.581C36.0909 152.01 37.861 158.407 39.664 164.783C39.833 165.384 40.5185 166.028 41.0773 166.213C42.5234 166.693 44.0728 166.783 45.5049 167.3C47.7633 168.118 50.2658 168.05 52.3223 169.644C52.7261 169.955 53.2567 170.071 53.7309 170.261C57.0317 171.581 60.3559 172.821 63.6238 174.235C65.577 175.085 67.441 176.199 69.3472 177.191C69.2862 177.407 69.2299 177.624 69.1735 177.84C68.3988 177.756 67.6006 177.777 66.8541 177.571C63.9712 176.769 61.1071 175.872 58.2289 175.048C54.9845 174.119 51.7307 173.217 48.4769 172.33C47.6365 172.103 46.7773 171.976 46.3453 171.892C45.7396 172.779 45.4532 173.465 44.979 173.834C43.1338 175.27 41.2275 176.61 39.0818 178.173C42.2558 180.352 44.3311 183.287 46.1528 186.354C48.599 186.865 51.0405 187.161 53.36 187.926C55.6841 188.692 58.2994 188.824 60.1305 191.035C57.7594 191.035 55.4353 190.908 53.1158 190.639C51.003 190.391 48.9089 189.853 46.7914 189.673C44.7489 189.504 42.8474 188.966 40.9599 188.079C39.9551 187.604 38.8048 187.013 37.476 187.678C37.476 189.483 37.5042 191.257 37.4619 193.025C37.4432 193.632 37.4009 194.35 37.1145 194.819C35.4852 197.49 33.6541 200.008 32.1375 202.752C30.574 205.581 29.0434 208.5 27.9588 211.587C27.0479 214.168 25.7098 216.148 23.8317 217.789C23.4795 218.1 23.0804 218.364 22.7987 218.734C22.3057 219.393 21.8785 220.122 21.2446 221.104C19.1036 221.521 17.3006 223.289 15.4836 225.083C13.0655 227.469 10.455 229.242 6.98988 229.026C4.81599 228.889 2.61862 229.3 0.430644 229.469C3.12571 230.567 5.83016 231.396 8.68955 231.432C10.577 231.459 12.5584 231.227 14.3191 231.797C15.7934 232.277 17.0658 232.398 18.4744 231.939C19.0003 231.77 19.5496 231.691 20.4182 231.496C19.7374 233.227 19.1787 234.652 18.5777 236.172C21.7376 235.475 24.9304 234.89 27.9776 233.486C30.2641 232.43 32.5319 231.021 35.1754 231.876C34.9547 232.763 34.8279 233.697 34.5039 234.525C33.9358 235.966 34.4241 236.811 35.5275 237.476C37.476 238.658 39.3823 239.93 41.3496 241.07C47.1904 244.458 53.1628 247.588 58.8816 251.225C64.713 254.93 70.3051 259.115 76.0051 263.084C76.3244 263.306 76.6906 263.433 77.0333 263.602C77.1085 263.475 77.1883 263.354 77.2634 263.227C73.8312 259.168 70.4271 255.072 66.948 251.066C62.5298 245.979 58.1679 240.817 53.5478 235.961C50.2236 232.472 48.5849 227.764 45.8805 223.859C45.7678 223.695 45.6927 223.468 45.6739 223.262C45.4485 221.119 44.5611 219.235 43.9179 217.245C42.8333 213.889 41.8238 210.532 41.2604 206.916C40.6547 203.016 40.65 199.216 40.6594 195.305C41.5186 196.967 42.1806 198.709 42.9037 200.414C44.4578 204.093 44.4672 204.087 45.688 204.895C45.425 203.818 45.1856 202.831 44.9273 201.776C45.8194 201.295 46.5425 200.91 46.9275 200.699C49.092 202.172 50.9372 203.491 52.8388 204.694C53.9844 205.417 55.2005 206.03 56.4213 206.584C61.4499 208.864 66.4597 211.186 70.9295 214.712C75.1552 218.048 79.3528 221.436 83.5503 224.819C84.3156 225.437 85.0199 226.244 85.804 225.321C87.9122 229.754 90.0156 234.172 92.1191 238.589C93.0722 240.595 93.9878 242.622 95.002 244.585C97.9835 250.349 101.017 256.081 104.003 261.839C106.43 266.51 108.825 271.197 111.215 275.889C111.848 277.129 112.435 278.401 113.046 279.662C112.886 279.773 112.726 279.884 112.567 280C110.332 276.696 108.097 273.387 105.857 270.083C105.759 270.157 105.66 270.231 105.562 270.305L105.562 272.199C104.209 270.78 102.74 269.439 101.481 267.877C97.3825 262.794 93.3868 257.606 89.2973 252.513C87.5319 250.317 85.696 248.211 83.3672 246.68C81.9633 245.757 80.8834 244.189 79.4608 243.318C74.4275 240.252 70.7135 235.592 67.0935 230.804C64.4501 227.3 61.8583 223.737 59.2384 220.212C59.0553 219.964 58.8064 219.779 58.5905 219.562C58.4872 219.663 58.3839 219.763 58.2853 219.868C60.9944 224.761 63.6848 229.675 66.4315 234.541C67.2626 236.014 68.3847 237.291 69.1406 238.801C70.1642 240.843 70.9577 243.028 71.8639 245.145C73.0283 247.852 74.4557 250.354 76.3713 252.497C77.8456 254.144 79.2917 255.843 80.5829 257.664C83.5081 261.791 86.344 265.993 89.1893 270.183C91.5087 273.603 93.9831 276.781 97.6877 278.396C98.3778 278.702 98.9413 279.351 99.6127 279.736C101.04 280.549 102.355 282.037 104.294 280.734C107.609 284.613 110.914 288.498 114.252 292.356C114.774 292.958 115.426 293.422 116.037 293.923C116.539 294.34 117.154 294.636 117.572 295.137C119.727 297.745 121.835 300.399 123.962 303.028C124.385 303.556 124.779 304.147 125.291 304.537C128.948 307.345 132.399 310.523 136.55 312.665C136.376 311.879 136.212 311.145 136.048 310.417C136.146 310.37 136.25 310.327 136.353 310.28C137.973 312.354 139.593 314.434 141.264 316.571C141.504 315.832 141.635 315.436 141.762 315.035C142.048 315.225 142.363 315.378 142.616 315.605C142.804 315.779 142.959 316.038 143.062 316.291C144.527 319.859 147.495 321.363 150.27 323.169C150.875 322.741 151.392 322.382 152.011 321.944C154.162 325.285 156.031 328.784 159.801 330.647C158.96 329.043 158.275 327.729 157.589 326.42C157.669 326.32 157.754 326.225 157.834 326.124C158.05 326.225 158.284 326.298 158.481 326.43C163.66 329.845 168.844 333.26 174.013 336.696C177.662 339.119 181.296 341.567 184.93 344.016C189.329 346.972 193.733 349.912 198.105 352.92C204.368 357.227 210.584 361.624 217.252 365.134C221.149 367.187 225.022 369.298 228.905 371.388C229.023 371.446 229.131 371.53 229.253 371.562C229.614 371.662 229.98 371.742 230.549 371.879C229.37 370.369 228.379 369.103 227.379 367.825C229.145 366.374 228.868 366.432 228.051 364.447C227.365 362.79 226.093 363.656 225.365 362.785C225.079 363.466 224.853 363.994 224.562 364.685C223.623 363.54 222.82 362.568 221.952 361.508C222.581 360.969 223.05 360.51 223.571 360.135C224.295 359.618 224.257 358.995 223.797 358.351C223.257 357.591 222.661 356.889 222.027 356.087C221.416 357.148 220.815 358.188 220.041 359.528C218.148 357.486 216.313 355.665 214.655 353.654C213.42 352.155 212.491 350.345 211.298 348.793C209.406 346.339 207.345 344.048 205.476 341.573C201.349 336.105 197.335 330.521 193.198 325.058C189.432 320.076 185.535 315.225 181.751 310.259C177.605 304.822 173.915 298.943 169.304 293.955C169.032 293.66 168.675 293.311 168.628 292.947C168.327 290.493 166.905 288.508 166.454 286.112C166.168 284.587 165.632 283.125 165.21 281.631C165.365 281.531 165.52 281.431 165.67 281.33C167.013 283.051 168.351 284.771 169.689 286.492C169.666 285.98 169.534 285.521 169.309 285.13C168.393 283.521 167.299 282.011 166.539 280.312C165.351 277.657 163.928 274.976 163.454 272.131C163.017 269.545 162.224 267.238 161.247 264.953C160.134 262.351 158.89 259.812 157.697 257.252C157.049 255.864 156.387 254.492 155.744 253.104C155.575 252.734 155.467 252.333 155.27 251.779C155.754 251.747 156.261 251.547 156.43 251.732C157.557 253.003 159.111 253.88 159.247 256.059C159.298 256.904 159.81 257.78 160.27 258.514C161.679 260.773 163.191 262.952 164.623 265.19C167.06 268.996 169.393 272.896 171.919 276.622C174.126 279.884 176.582 282.935 178.859 286.133C180.986 289.12 183.028 292.187 185.103 295.217C186.183 296.795 187.273 298.362 188.329 299.951C188.85 300.743 189.278 301.613 189.817 302.384C190.31 303.086 190.897 303.698 191.677 304.632C191.592 305.799 191.813 306.559 193.376 307.108C195.114 307.709 196.226 309.087 197.499 310.322C198.527 311.32 199.255 312.46 199.166 313.637C199.748 313.747 200.274 313.663 200.523 313.922C203.438 316.951 206.349 319.991 209.181 323.116C211.077 325.206 212.838 327.454 214.669 329.613C216.759 332.072 218.965 334.421 220.942 336.992C223.637 340.491 226.163 344.154 228.75 347.759C228.994 348.107 229.14 348.54 229.333 348.936C229.483 348.777 229.633 348.624 229.783 348.471C228.3 345.025 226.821 341.573 225.327 338.126C222.726 332.136 220.088 326.172 217.524 320.16C215.829 316.186 214.251 312.143 212.594 308.142C210.538 303.192 208.443 298.267 206.382 293.316C206.101 292.641 205.927 291.902 205.701 291.195L206.124 290.894C209.476 295.47 212.406 300.421 215.759 304.997C219.149 309.631 222.543 314.254 225.938 318.883C226.036 318.835 226.135 318.783 226.234 318.735C223.689 312.122 221.149 305.514 218.604 298.901C218.717 298.837 218.825 298.774 218.937 298.711C219.181 299.154 219.458 299.581 219.67 300.046C220.853 302.648 222.107 305.208 223.158 307.873C224.825 312.095 227.375 315.769 228.919 320.076C229.783 322.482 231.093 324.678 232.183 326.985C232.69 328.045 233.117 329.154 233.647 330.199C234.427 331.745 235.3 333.234 236.07 334.785C237.399 337.456 238.671 340.169 239.991 342.845C240.211 343.288 240.564 343.652 241.113 344.407C241.08 343.636 241.132 343.346 241.052 343.109C240.047 340.079 239.202 336.97 237.976 334.062C235.051 327.138 231.934 320.313 228.919 313.431C226.201 307.24 223.543 301.022 220.792 294.852C220.379 293.918 219.604 293.185 218.881 292.203C218.89 292.171 219.036 291.765 219.2 291.295C218.59 291.084 218.116 290.926 217.651 290.767C217.751 289.43 217.194 288.73 215.979 288.667C214.374 288.577 214.219 288.45 213.876 286.624C213.585 285.099 213.326 283.563 213.092 282.027C212.575 278.58 211.965 275.208 210.209 272.184C208.739 269.645 207.486 266.943 206.204 264.272C202.429 256.397 198.579 248.57 194.982 240.595C193.076 236.367 190.944 232.277 189.461 227.759C187.794 222.682 186.324 217.467 183.305 212.975C181.127 209.73 179.685 205.856 177.939 202.251C177.248 200.826 176.624 199.364 175.967 197.912C177.239 197.274 178.953 197.522 179.319 195.453C177.643 194.719 175.76 191.22 176.136 189.124C181.188 196.292 186.104 203.264 191.048 210.273C191.569 210.11 192.038 209.967 192.527 209.814C192.456 208.985 192.395 208.268 192.301 207.191C194.818 211.894 197.142 216.248 199.466 220.597C199.593 220.534 199.72 220.465 199.842 220.396C199.776 220.08 199.743 219.742 199.64 219.441C199.236 218.322 198.757 217.235 198.429 216.095C198.325 215.731 198.602 215.229 198.701 214.796C199.039 215.118 199.49 215.377 199.673 215.789C199.832 216.142 199.518 216.929 199.696 217.076C201.617 218.633 202.011 221.272 203.265 223.299C204.396 225.141 205.1 227.31 206.138 229.242C206.608 230.118 207.378 230.826 208.11 231.464C208.364 231.686 209.04 231.649 209.303 231.417C209.533 231.211 209.636 230.477 209.495 230.139C209.232 229.527 208.81 228.957 208.35 228.498C207.18 227.337 207.082 226.535 208.195 224.835C209.289 227.115 210.481 229.216 211.35 231.48C212.829 235.328 214.04 239.302 215.482 243.171C217.008 247.266 218.665 251.299 220.266 255.357C220.613 254.983 220.656 254.724 220.609 254.487C219.862 250.75 219.13 247.018 218.346 243.297C217.679 240.115 217.003 236.927 216.242 233.771C214.092 224.856 211.894 215.958 209.725 207.048C208.824 203.343 207.716 199.691 207.678 195.775C207.664 194.429 207.631 193.014 207.279 191.753C206.326 188.37 206.392 184.881 206.227 181.419C206.204 180.907 206.655 180.368 206.885 179.841C208.706 184.538 209.758 189.299 211.655 193.584C213.599 197.981 214.322 202.8 216.167 207.217C216.04 204.737 215.693 202.325 215.327 199.918C214.96 197.469 214.575 195.02 214.2 192.571C213.838 190.201 213.477 187.826 213.115 185.456C212.749 183.007 212.378 180.553 212.012 178.104C211.664 175.74 211.106 173.391 211.284 170.609C211.66 171.074 211.815 171.195 211.894 171.369C213.547 174.974 215.195 178.584 216.843 182.195C217.477 183.588 218.13 184.95 219.435 185.757C219.914 186.058 220.266 186.623 220.656 187.082C225.266 192.455 229.872 197.833 234.488 203.201C234.535 203.254 234.694 203.18 234.831 203.164C233.92 200.947 233.009 198.73 232.098 196.519C232.201 196.461 232.305 196.397 232.408 196.339C235.3 200.72 238.192 205.101 241.085 209.482C241.207 209.387 241.329 209.297 241.446 209.202C241.352 208.964 241.273 208.716 241.155 208.495C238.92 204.272 236.699 200.039 234.427 195.843C232.417 192.138 230.596 188.333 229.295 184.248C227.886 179.819 226.699 175.302 225.182 170.926C222.374 162.824 220.51 154.406 218.388 146.077C217.27 141.697 216.529 137.2 215.655 132.745C215.252 130.676 214.932 128.586 214.519 126.201C216.223 127.188 217.623 127.948 218.98 128.787C220.628 129.811 222.28 130.835 223.858 131.98C225.393 133.099 226.811 134.408 228.318 135.569C230.187 136.999 232.422 137.68 234.155 139.48C235.051 140.409 236.502 140.673 237.596 141.185C234.047 136.582 230.459 132.006 226.966 127.346C225.713 125.678 224.727 123.752 223.525 122.026C221.792 119.529 219.9 117.17 218.205 114.647C216.524 112.146 214.998 109.517 213.416 106.936C213.153 106.514 212.951 106.05 212.721 105.606C212.768 105.585 212.815 105.559 212.862 105.538C216.679 109.459 220.491 113.375 224.309 117.297L224.435 117.123C217.468 106.609 210.495 96.09 203.462 85.4708C205.068 84.4891 206.434 83.6499 207.899 82.7526C207.284 81.5862 207.819 80.9423 208.612 80.2984C212.66 77.0208 216.67 73.6904 220.707 70.4022C225.558 66.4491 230.506 62.67 235.76 59.4188C239.244 57.2549 242.709 55.0592 246.179 52.8636C248.874 51.1536 251.569 49.4488 254.241 47.6965C255.555 46.8362 256.823 45.8756 258.373 44.7725C257.546 44.5984 257.156 44.5139 256.767 44.4295C256.776 44.345 256.786 44.2606 256.795 44.1708ZM159.144 271.197C159.416 271.582 159.566 272.147 159.909 272.389C162.43 274.184 162.693 277.282 163.477 280.079C163.778 281.145 164.102 282.201 164.416 283.257C162.092 280.692 156.397 271.682 156.359 267.782C157.744 268.721 158.341 270.067 159.144 271.197ZM149.476 135.595C150.495 134.74 151.359 133.458 151.946 132.165C152.922 130.022 153.584 127.694 154.453 125.483C154.993 124.095 155.664 122.77 156.42 121.097C157.341 121.904 158.073 122.337 158.552 123.002C161.383 126.897 164.374 130.661 166.276 135.305C166.811 136.619 166.773 137.802 165.736 138.683C163.055 140.979 160.13 142.494 156.627 142.045C153.303 141.618 149.974 141.264 146.65 140.836C145.335 140.668 144.034 140.383 143.011 139.031C145.692 138.984 147.579 137.189 149.476 135.595ZM126.53 98.0059C129.272 100.165 131.982 102.371 134.681 104.598C135.949 105.648 137.142 106.815 138.395 107.881C139.114 108.488 139.245 109.19 138.987 110.124C138.391 112.288 137.813 114.457 137.301 116.648C137.128 117.392 137.203 118.205 137.114 118.98C136.926 120.585 136.635 122.179 136.517 123.794C136.442 124.765 136.597 125.763 136.667 126.744C136.771 128.111 137.311 129.505 136.348 131.093C135.897 130.434 135.423 129.953 135.188 129.357C133.536 125.129 131.662 120.981 131.86 116.125C131.892 115.296 131.216 114.304 130.653 113.608C128.747 111.259 126.732 109.016 124.784 106.715C124.455 106.329 124.225 105.844 123.953 105.406C124.033 105.274 124.112 105.136 124.192 105.004C127.3 105.506 129.784 107.76 132.611 109.19C130.282 104.419 127.136 100.439 123.929 96.4014C124.798 96.9292 125.723 97.3726 126.53 98.0059ZM65.469 134.102C65.7178 140.361 68.3425 145.439 69.5867 150.949C69.7369 151.619 69.9811 152.263 70.2253 153.071C64.7647 149.017 61.9053 143.069 65.469 134.102ZM76.3056 176.61C75.8971 176.447 75.2867 176.141 75.0519 176.331C73.4931 177.619 72.155 176.494 70.8262 175.898C68.3753 174.795 65.9573 173.591 63.5627 172.346C59.0976 170.024 54.6746 167.606 50.2001 165.3C49.3033 164.835 48.2563 164.434 47.2984 164.492C46.0589 164.571 45.4579 163.891 44.7959 162.925C45.3405 162.455 45.8382 162.054 46.3031 161.61C46.7538 161.178 47.1717 160.703 47.7069 160.138C48.4112 160.439 49.2704 160.803 50.2283 161.209C50.7166 158.813 48.275 159.848 47.9792 158.655C48.6413 158.322 49.247 158.011 49.8573 157.705C49.9278 157.457 50.571 158.349 51.6181 157.335C51.8857 157.077 52.6134 157.367 53.1158 157.483C53.5901 157.594 54.0643 157.995 54.5056 157.942C57.1631 157.61 59.1633 159.019 61.2245 160.66C63.0087 162.075 65.037 163.157 67.0513 164.144C70.7511 165.96 74.512 167.606 78.2588 169.29C79.0241 169.633 79.8411 169.818 80.7801 170.124C77.2728 164.703 73.1363 160.439 69.0561 156.116C69.1219 155.979 69.1923 155.847 69.258 155.715C70.5633 156.443 71.8686 157.166 73.1786 157.895C73.2302 157.805 73.2865 157.721 73.3429 157.631C73.0799 157.309 72.817 156.982 72.3099 156.354C73.2959 156.718 74.0096 156.934 74.6904 157.246C80.5407 159.906 86.4614 162.402 92.1989 165.342C95.218 166.888 97.9177 169.211 100.758 171.185C102.195 172.187 103.66 173.153 105.045 174.241C105.867 174.885 106.595 175.703 107.318 176.494C109.886 179.323 112.459 182.147 114.98 185.023C116.177 186.396 117.262 187.889 118.539 189.51C115.731 194.629 112.069 198.994 108.407 203.897C107.444 202.034 106.472 200.562 105.876 198.91C103.716 192.94 100.063 188.375 95.603 184.501C92.9689 182.21 90.396 179.83 87.6211 177.65C88.8371 179.466 90.0485 181.281 91.3538 183.229C90.2645 183.846 89.4757 183.319 88.8371 182.395C87.6352 180.659 86.3862 178.949 85.3251 177.112C83.6959 174.304 81.3483 172.853 78.564 172.082C78.0757 171.945 77.6109 171.654 77.1179 171.596C76.7516 171.549 76.1647 171.628 76.0333 171.881C75.8877 172.172 76.0145 172.826 76.2351 173.138C76.93 174.135 77.747 175.022 78.456 176.009C78.6532 176.283 78.6297 176.758 78.7095 177.138C78.3668 177.202 77.9959 177.392 77.686 177.307C77.2071 177.17 76.7798 176.8 76.3056 176.61ZM94.9832 190.549C94.8564 190.634 94.725 190.724 94.5935 190.813C93.8704 189.663 93.1474 188.512 92.368 187.272C92.7389 186.823 92.9455 186.565 93.2084 186.248C93.8094 187.699 94.3963 189.124 94.9832 190.549ZM89.6119 195.067C86.1421 194.92 82.893 194.17 79.7096 192.756C83.2733 191.721 86.9168 191.436 89.6119 195.067ZM143.264 301.645C142.729 300.838 142.123 300.083 141.677 299.217C140.729 297.391 139.865 295.507 138.968 293.644C136.47 288.455 133.86 283.331 131.521 278.047C130.099 274.833 129.028 271.424 127.178 268.447C125.944 266.457 124.709 264.457 123.596 262.382C122.239 259.849 120.995 257.242 119.736 254.645C118.046 251.172 116.389 247.678 114.708 244.195C114.628 244.031 114.445 243.931 114.083 243.915C115.375 248.021 116.67 252.127 117.962 256.234C117.882 256.292 117.802 256.344 117.722 256.402C116.985 255.051 116.248 253.7 115.506 252.349C115.356 252.433 115.206 252.523 115.055 252.608C116.83 257.595 119.328 262.229 121.253 267.148C121.117 267.228 120.985 267.312 120.849 267.396C119.896 265.723 119.009 264.003 117.98 262.393C114.572 257.031 111.135 251.689 107.66 246.38C107.059 245.461 106.782 244.606 106.839 243.445C107.008 240.062 107.9 236.7 107.111 233.259C106.989 232.715 107.327 231.913 107.656 231.385C108.421 230.134 108.402 229.179 107.172 228.714C105.731 228.165 105.256 227.078 105.111 225.595C104.885 223.336 103.862 221.895 102.162 220.528C99.9179 218.728 98.1008 216.264 96.1101 214.068C95.6311 213.546 95.2743 212.96 95.988 212.205C98.9741 213.477 100.43 216.95 103.477 218.723C103.139 218.026 102.979 217.557 102.716 217.182C102.453 216.802 102.05 216.549 101.777 216.179C100.641 214.649 99.4202 213.176 98.4342 211.529C96.7721 208.743 94.2367 207.502 91.6261 206.436C88.2549 205.053 84.8274 203.834 81.414 202.567C80.2402 202.135 79.0429 201.77 77.902 200.973C79.9866 201.174 82.1042 201.195 84.156 201.617C88.4474 202.499 92.7389 203.449 96.9599 204.684C98.406 205.111 99.6315 206.484 100.974 207.402C101.378 207.676 101.876 208.157 102.242 208.067C103.514 207.756 104.27 208.6 105.101 209.365C106.562 210.722 108.031 212.062 109.402 213.582C109.219 212.659 109.651 211.471 108.782 210.199C108.214 209.365 108.238 208.173 108.97 207.233C110.956 204.684 112.938 202.124 114.933 199.585C116.107 198.097 117.314 196.64 118.497 195.157C119.126 194.371 119.732 193.563 120.347 192.761C120.544 192.872 120.737 192.983 120.934 193.093C120.896 193.537 121.004 194.117 120.798 194.402C118.868 197.036 116.938 199.68 114.882 202.193C114.299 202.9 113.299 203.174 112.074 203.887C115.013 204.626 117.581 205.275 119.99 205.882C118.84 210.579 117.694 215.198 116.581 219.826C115.468 224.434 114.393 229.057 113.262 233.855C114.022 233.918 114.755 233.982 115.647 234.056C116.023 235.539 116.304 237.133 116.83 238.616C118.398 243.039 120.018 247.446 121.708 251.816C122.643 254.223 123.746 256.545 124.798 258.894C127.93 265.861 131.151 272.78 134.179 279.805C135.212 282.206 136.353 284.518 137.442 286.877C139.64 291.638 141.649 296.504 143.734 301.328C143.579 301.434 143.419 301.54 143.264 301.645ZM140.71 224.149C141.241 225.157 140.766 225.722 140.527 226.44C139.536 229.4 137.48 231.116 135.132 232.467C134.982 232.377 134.836 232.288 134.686 232.193C135.052 231.116 135.292 229.949 135.808 228.968C137.165 226.403 137.414 223.816 136.503 220.998C136.212 220.101 136.203 219.024 136.273 218.053C136.32 217.404 136.583 216.533 137.01 216.206C138.287 215.245 138.099 213.804 137.705 212.764C136.362 209.218 136.203 205.37 135.221 201.739C134.451 198.894 134.001 195.944 133.428 193.035C133.339 192.576 133.343 192.096 133.301 191.626C133.404 191.605 133.512 191.579 133.616 191.552C134.282 194.197 134.907 196.851 135.625 199.48C136.329 202.05 137.184 204.573 137.874 207.149C138.311 208.78 138.536 210.479 138.921 212.131C139.217 213.424 139.71 214.664 139.94 215.968C140.241 217.646 140.4 219.357 140.55 221.061C140.644 222.101 140.292 223.363 140.71 224.149ZM147.504 207.486C147.429 207.354 147.349 207.223 147.274 207.091C147.992 206.536 148.668 205.898 149.438 205.454C150.8 204.668 151.054 204.246 150.443 202.625C149.208 199.369 147.884 196.149 146.612 192.909C146.161 191.748 145.748 190.565 145.579 189.225C146.767 191.394 147.997 193.537 149.129 195.743C150.284 197.986 151.345 200.293 152.598 202.884C152.04 200.198 151.514 197.796 151.049 195.379C150.922 194.698 150.974 193.98 151.148 193.236C153.655 196.033 154.176 199.87 155.824 203.306C153.284 205.381 150.392 206.431 147.504 207.486ZM167.135 167.849C162.98 166.989 158.759 166.524 154.561 165.923C152.612 165.648 150.645 165.511 148.706 165.168C147.701 164.994 146.87 165.147 146.011 165.748C142.044 168.525 138.062 171.274 134.052 173.982C133.151 174.589 132.127 174.974 131.113 175.486C131.287 178.637 131.456 181.672 131.639 184.981C130.362 181.266 129.16 177.766 127.873 174.03C128.052 173.84 128.244 173.539 128.507 173.37C131.578 171.412 134.691 169.538 137.724 167.517C140.269 165.822 142.738 163.996 145.203 162.175C146.274 161.384 147.307 161.31 148.589 161.468C154.584 162.223 160.275 164.534 166.186 165.685C168.421 166.123 170.666 166.519 173.347 167.015C171.027 167.743 169.234 168.287 167.135 167.849ZM188.723 161.811C187.836 162.091 186.958 162.418 186.075 162.724C186.01 162.587 185.944 162.45 185.878 162.312C186.132 162.122 186.381 161.927 186.634 161.742C189.977 159.346 189.296 160.28 188.601 156.016C188.315 154.242 187.892 152.501 187.531 150.748C187.7 150.69 187.874 150.632 188.047 150.58C188.878 153.002 189.677 155.441 190.545 157.847C191.569 160.708 191.475 160.951 188.723 161.811Z"/>
</mask>
<path d="M256.795 44.1708C260.734 43.358 264.678 42.5452 268.622 41.7324C267.899 41.5583 267.2 41.5108 266.509 41.5688C260.133 42.1124 253.757 42.6402 247.381 43.2366C240.197 43.9122 233.014 44.5772 225.839 45.3689C218.928 46.1342 212.026 47.0315 205.129 47.9129C198.419 48.7679 191.71 49.6229 185.014 50.5835C177.812 51.6233 170.633 52.795 163.44 53.8875C162.43 54.0406 161.411 54.067 160.364 54.1514C161.35 52.6208 162.195 51.2486 163.097 49.9132C166.722 44.5614 169.759 38.7504 173.572 33.5199C177.394 28.2789 180.723 22.5787 184.235 17.0527C186.179 13.9968 188.052 10.8934 189.949 7.80575C191.625 5.07705 193.212 2.26391 195.644 0.168559C195.414 0.084112 195.278 -0.0267249 195.184 0.00494276C191.527 1.24526 187.615 1.57777 184.31 4.06896C183.225 4.88705 181.976 5.44651 180.76 6.02708C176.995 7.83214 173.201 9.55803 169.44 11.3684C166.595 12.7354 163.782 14.171 160.965 15.596C156.599 17.8022 152.185 19.8975 147.903 22.2832C144.56 24.141 141.381 26.363 138.132 28.432C131.09 32.9182 124.037 37.3834 117.018 41.9224C115.774 42.7299 114.562 43.7064 113.553 44.8517C108.397 50.726 103.176 56.5054 97.3543 61.5775C94.0676 64.4434 90.9547 67.5627 87.7901 70.5975C86.5412 71.7956 85.3862 73.1257 84.1372 74.3238C79.4044 78.847 75.1271 83.8768 71.1314 89.2128C70.4553 90.1154 69.9107 91.1498 69.305 92.121C69.366 92.1685 69.4271 92.216 69.4928 92.2582C71.9015 90.0468 74.3101 87.8353 76.7235 85.6238C76.8221 85.7558 76.9254 85.8877 77.024 86.0197C74.0002 89.9834 70.3286 93.1713 66.8306 96.5861C63.281 100.043 59.8112 103.585 55.8156 106.461C61.9429 104.894 67.3048 101.41 72.8687 98.1009C71.8686 101.901 70.9155 105.675 69.413 109.148C67.4316 113.713 64.9431 118.004 62.8162 122.496C61.3278 125.636 60.2573 129.03 58.6656 132.096C57.6139 134.128 57.7641 135.701 58.7595 137.564C60.5155 140.858 62.1495 144.235 63.8585 147.561C64.4266 148.664 64.8633 150.057 65.7225 150.717C66.8353 151.567 66.7179 152.4 66.5724 153.847C59.6798 148.516 51.8528 147.028 44.0165 145.138C46.0777 143.433 48.2938 142.272 50.0452 140.166C48.646 139.074 47.4863 139.718 46.3594 139.997C42.9647 140.826 39.5889 141.744 36.1895 142.557C34.2363 143.022 33.8654 143.349 34.4382 145.581C36.0909 152.01 37.861 158.407 39.664 164.783C39.833 165.384 40.5185 166.028 41.0773 166.213C42.5234 166.693 44.0728 166.783 45.5049 167.3C47.7633 168.118 50.2658 168.05 52.3223 169.644C52.7261 169.955 53.2567 170.071 53.7309 170.261C57.0317 171.581 60.3559 172.821 63.6238 174.235C65.577 175.085 67.441 176.199 69.3472 177.191C69.2862 177.407 69.2299 177.624 69.1735 177.84C68.3988 177.756 67.6006 177.777 66.8541 177.571C63.9712 176.769 61.1071 175.872 58.2289 175.048C54.9845 174.119 51.7307 173.217 48.4769 172.33C47.6365 172.103 46.7773 171.976 46.3453 171.892C45.7396 172.779 45.4532 173.465 44.979 173.834C43.1338 175.27 41.2275 176.61 39.0818 178.173C42.2558 180.352 44.3311 183.287 46.1528 186.354C48.599 186.865 51.0405 187.161 53.36 187.926C55.6841 188.692 58.2994 188.824 60.1305 191.035C57.7594 191.035 55.4353 190.908 53.1158 190.639C51.003 190.391 48.9089 189.853 46.7914 189.673C44.7489 189.504 42.8474 188.966 40.9599 188.079C39.9551 187.604 38.8048 187.013 37.476 187.678C37.476 189.483 37.5042 191.257 37.4619 193.025C37.4432 193.632 37.4009 194.35 37.1145 194.819C35.4852 197.49 33.6541 200.008 32.1375 202.752C30.574 205.581 29.0434 208.5 27.9588 211.587C27.0479 214.168 25.7098 216.148 23.8317 217.789C23.4795 218.1 23.0804 218.364 22.7987 218.734C22.3057 219.393 21.8785 220.122 21.2446 221.104C19.1036 221.521 17.3006 223.289 15.4836 225.083C13.0655 227.469 10.455 229.242 6.98988 229.026C4.81599 228.889 2.61862 229.3 0.430644 229.469C3.12571 230.567 5.83016 231.396 8.68955 231.432C10.577 231.459 12.5584 231.227 14.3191 231.797C15.7934 232.277 17.0658 232.398 18.4744 231.939C19.0003 231.77 19.5496 231.691 20.4182 231.496C19.7374 233.227 19.1787 234.652 18.5777 236.172C21.7376 235.475 24.9304 234.89 27.9776 233.486C30.2641 232.43 32.5319 231.021 35.1754 231.876C34.9547 232.763 34.8279 233.697 34.5039 234.525C33.9358 235.966 34.4241 236.811 35.5275 237.476C37.476 238.658 39.3823 239.93 41.3496 241.07C47.1904 244.458 53.1628 247.588 58.8816 251.225C64.713 254.93 70.3051 259.115 76.0051 263.084C76.3244 263.306 76.6906 263.433 77.0333 263.602C77.1085 263.475 77.1883 263.354 77.2634 263.227C73.8312 259.168 70.4271 255.072 66.948 251.066C62.5298 245.979 58.1679 240.817 53.5478 235.961C50.2236 232.472 48.5849 227.764 45.8805 223.859C45.7678 223.695 45.6927 223.468 45.6739 223.262C45.4485 221.119 44.5611 219.235 43.9179 217.245C42.8333 213.889 41.8238 210.532 41.2604 206.916C40.6547 203.016 40.65 199.216 40.6594 195.305C41.5186 196.967 42.1806 198.709 42.9037 200.414C44.4578 204.093 44.4672 204.087 45.688 204.895C45.425 203.818 45.1856 202.831 44.9273 201.776C45.8194 201.295 46.5425 200.91 46.9275 200.699C49.092 202.172 50.9372 203.491 52.8388 204.694C53.9844 205.417 55.2005 206.03 56.4213 206.584C61.4499 208.864 66.4597 211.186 70.9295 214.712C75.1552 218.048 79.3528 221.436 83.5503 224.819C84.3156 225.437 85.0199 226.244 85.804 225.321C87.9122 229.754 90.0156 234.172 92.1191 238.589C93.0722 240.595 93.9878 242.622 95.002 244.585C97.9835 250.349 101.017 256.081 104.003 261.839C106.43 266.51 108.825 271.197 111.215 275.889C111.848 277.129 112.435 278.401 113.046 279.662C112.886 279.773 112.726 279.884 112.567 280C110.332 276.696 108.097 273.387 105.857 270.083C105.759 270.157 105.66 270.231 105.562 270.305L105.562 272.199C104.209 270.78 102.74 269.439 101.481 267.877C97.3825 262.794 93.3868 257.606 89.2973 252.513C87.5319 250.317 85.696 248.211 83.3672 246.68C81.9633 245.757 80.8834 244.189 79.4608 243.318C74.4275 240.252 70.7135 235.592 67.0935 230.804C64.4501 227.3 61.8583 223.737 59.2384 220.212C59.0553 219.964 58.8064 219.779 58.5905 219.562C58.4872 219.663 58.3839 219.763 58.2853 219.868C60.9944 224.761 63.6848 229.675 66.4315 234.541C67.2626 236.014 68.3847 237.291 69.1406 238.801C70.1642 240.843 70.9577 243.028 71.8639 245.145C73.0283 247.852 74.4557 250.354 76.3713 252.497C77.8456 254.144 79.2917 255.843 80.5829 257.664C83.5081 261.791 86.344 265.993 89.1893 270.183C91.5087 273.603 93.9831 276.781 97.6877 278.396C98.3778 278.702 98.9413 279.351 99.6127 279.736C101.04 280.549 102.355 282.037 104.294 280.734C107.609 284.613 110.914 288.498 114.252 292.356C114.774 292.958 115.426 293.422 116.037 293.923C116.539 294.34 117.154 294.636 117.572 295.137C119.727 297.745 121.835 300.399 123.962 303.028C124.385 303.556 124.779 304.147 125.291 304.537C128.948 307.345 132.399 310.523 136.55 312.665C136.376 311.879 136.212 311.145 136.048 310.417C136.146 310.37 136.25 310.327 136.353 310.28C137.973 312.354 139.593 314.434 141.264 316.571C141.504 315.832 141.635 315.436 141.762 315.035C142.048 315.225 142.363 315.378 142.616 315.605C142.804 315.779 142.959 316.038 143.062 316.291C144.527 319.859 147.495 321.363 150.27 323.169C150.875 322.741 151.392 322.382 152.011 321.944C154.162 325.285 156.031 328.784 159.801 330.647C158.96 329.043 158.275 327.729 157.589 326.42C157.669 326.32 157.754 326.225 157.834 326.124C158.05 326.225 158.284 326.298 158.481 326.43C163.66 329.845 168.844 333.26 174.013 336.696C177.662 339.119 181.296 341.567 184.93 344.016C189.329 346.972 193.733 349.912 198.105 352.92C204.368 357.227 210.584 361.624 217.252 365.134C221.149 367.187 225.022 369.298 228.905 371.388C229.023 371.446 229.131 371.53 229.253 371.562C229.614 371.662 229.98 371.742 230.549 371.879C229.37 370.369 228.379 369.103 227.379 367.825C229.145 366.374 228.868 366.432 228.051 364.447C227.365 362.79 226.093 363.656 225.365 362.785C225.079 363.466 224.853 363.994 224.562 364.685C223.623 363.54 222.82 362.568 221.952 361.508C222.581 360.969 223.05 360.51 223.571 360.135C224.295 359.618 224.257 358.995 223.797 358.351C223.257 357.591 222.661 356.889 222.027 356.087C221.416 357.148 220.815 358.188 220.041 359.528C218.148 357.486 216.313 355.665 214.655 353.654C213.42 352.155 212.491 350.345 211.298 348.793C209.406 346.339 207.345 344.048 205.476 341.573C201.349 336.105 197.335 330.521 193.198 325.058C189.432 320.076 185.535 315.225 181.751 310.259C177.605 304.822 173.915 298.943 169.304 293.955C169.032 293.66 168.675 293.311 168.628 292.947C168.327 290.493 166.905 288.508 166.454 286.112C166.168 284.587 165.632 283.125 165.21 281.631C165.365 281.531 165.52 281.431 165.67 281.33C167.013 283.051 168.351 284.771 169.689 286.492C169.666 285.98 169.534 285.521 169.309 285.13C168.393 283.521 167.299 282.011 166.539 280.312C165.351 277.657 163.928 274.976 163.454 272.131C163.017 269.545 162.224 267.238 161.247 264.953C160.134 262.351 158.89 259.812 157.697 257.252C157.049 255.864 156.387 254.492 155.744 253.104C155.575 252.734 155.467 252.333 155.27 251.779C155.754 251.747 156.261 251.547 156.43 251.732C157.557 253.003 159.111 253.88 159.247 256.059C159.298 256.904 159.81 257.78 160.27 258.514C161.679 260.773 163.191 262.952 164.623 265.19C167.06 268.996 169.393 272.896 171.919 276.622C174.126 279.884 176.582 282.935 178.859 286.133C180.986 289.12 183.028 292.187 185.103 295.217C186.183 296.795 187.273 298.362 188.329 299.951C188.85 300.743 189.278 301.613 189.817 302.384C190.31 303.086 190.897 303.698 191.677 304.632C191.592 305.799 191.813 306.559 193.376 307.108C195.114 307.709 196.226 309.087 197.499 310.322C198.527 311.32 199.255 312.46 199.166 313.637C199.748 313.747 200.274 313.663 200.523 313.922C203.438 316.951 206.349 319.991 209.181 323.116C211.077 325.206 212.838 327.454 214.669 329.613C216.759 332.072 218.965 334.421 220.942 336.992C223.637 340.491 226.163 344.154 228.75 347.759C228.994 348.107 229.14 348.54 229.333 348.936C229.483 348.777 229.633 348.624 229.783 348.471C228.3 345.025 226.821 341.573 225.327 338.126C222.726 332.136 220.088 326.172 217.524 320.16C215.829 316.186 214.251 312.143 212.594 308.142C210.538 303.192 208.443 298.267 206.382 293.316C206.101 292.641 205.927 291.902 205.701 291.195L206.124 290.894C209.476 295.47 212.406 300.421 215.759 304.997C219.149 309.631 222.543 314.254 225.938 318.883C226.036 318.835 226.135 318.783 226.234 318.735C223.689 312.122 221.149 305.514 218.604 298.901C218.717 298.837 218.825 298.774 218.937 298.711C219.181 299.154 219.458 299.581 219.67 300.046C220.853 302.648 222.107 305.208 223.158 307.873C224.825 312.095 227.375 315.769 228.919 320.076C229.783 322.482 231.093 324.678 232.183 326.985C232.69 328.045 233.117 329.154 233.647 330.199C234.427 331.745 235.3 333.234 236.07 334.785C237.399 337.456 238.671 340.169 239.991 342.845C240.211 343.288 240.564 343.652 241.113 344.407C241.08 343.636 241.132 343.346 241.052 343.109C240.047 340.079 239.202 336.97 237.976 334.062C235.051 327.138 231.934 320.313 228.919 313.431C226.201 307.24 223.543 301.022 220.792 294.852C220.379 293.918 219.604 293.185 218.881 292.203C218.89 292.171 219.036 291.765 219.2 291.295C218.59 291.084 218.116 290.926 217.651 290.767C217.751 289.43 217.194 288.73 215.979 288.667C214.374 288.577 214.219 288.45 213.876 286.624C213.585 285.099 213.326 283.563 213.092 282.027C212.575 278.58 211.965 275.208 210.209 272.184C208.739 269.645 207.486 266.943 206.204 264.272C202.429 256.397 198.579 248.57 194.982 240.595C193.076 236.367 190.944 232.277 189.461 227.759C187.794 222.682 186.324 217.467 183.305 212.975C181.127 209.73 179.685 205.856 177.939 202.251C177.248 200.826 176.624 199.364 175.967 197.912C177.239 197.274 178.953 197.522 179.319 195.453C177.643 194.719 175.76 191.22 176.136 189.124C181.188 196.292 186.104 203.264 191.048 210.273C191.569 210.11 192.038 209.967 192.527 209.814C192.456 208.985 192.395 208.268 192.301 207.191C194.818 211.894 197.142 216.248 199.466 220.597C199.593 220.534 199.72 220.465 199.842 220.396C199.776 220.08 199.743 219.742 199.64 219.441C199.236 218.322 198.757 217.235 198.429 216.095C198.325 215.731 198.602 215.229 198.701 214.796C199.039 215.118 199.49 215.377 199.673 215.789C199.832 216.142 199.518 216.929 199.696 217.076C201.617 218.633 202.011 221.272 203.265 223.299C204.396 225.141 205.1 227.31 206.138 229.242C206.608 230.118 207.378 230.826 208.11 231.464C208.364 231.686 209.04 231.649 209.303 231.417C209.533 231.211 209.636 230.477 209.495 230.139C209.232 229.527 208.81 228.957 208.35 228.498C207.18 227.337 207.082 226.535 208.195 224.835C209.289 227.115 210.481 229.216 211.35 231.48C212.829 235.328 214.04 239.302 215.482 243.171C217.008 247.266 218.665 251.299 220.266 255.357C220.613 254.983 220.656 254.724 220.609 254.487C219.862 250.75 219.13 247.018 218.346 243.297C217.679 240.115 217.003 236.927 216.242 233.771C214.092 224.856 211.894 215.958 209.725 207.048C208.824 203.343 207.716 199.691 207.678 195.775C207.664 194.429 207.631 193.014 207.279 191.753C206.326 188.37 206.392 184.881 206.227 181.419C206.204 180.907 206.655 180.368 206.885 179.841C208.706 184.538 209.758 189.299 211.655 193.584C213.599 197.981 214.322 202.8 216.167 207.217C216.04 204.737 215.693 202.325 215.327 199.918C214.96 197.469 214.575 195.02 214.2 192.571C213.838 190.201 213.477 187.826 213.115 185.456C212.749 183.007 212.378 180.553 212.012 178.104C211.664 175.74 211.106 173.391 211.284 170.609C211.66 171.074 211.815 171.195 211.894 171.369C213.547 174.974 215.195 178.584 216.843 182.195C217.477 183.588 218.13 184.95 219.435 185.757C219.914 186.058 220.266 186.623 220.656 187.082C225.266 192.455 229.872 197.833 234.488 203.201C234.535 203.254 234.694 203.18 234.831 203.164C233.92 200.947 233.009 198.73 232.098 196.519C232.201 196.461 232.305 196.397 232.408 196.339C235.3 200.72 238.192 205.101 241.085 209.482C241.207 209.387 241.329 209.297 241.446 209.202C241.352 208.964 241.273 208.716 241.155 208.495C238.92 204.272 236.699 200.039 234.427 195.843C232.417 192.138 230.596 188.333 229.295 184.248C227.886 179.819 226.699 175.302 225.182 170.926C222.374 162.824 220.51 154.406 218.388 146.077C217.27 141.697 216.529 137.2 215.655 132.745C215.252 130.676 214.932 128.586 214.519 126.201C216.223 127.188 217.623 127.948 218.98 128.787C220.628 129.811 222.28 130.835 223.858 131.98C225.393 133.099 226.811 134.408 228.318 135.569C230.187 136.999 232.422 137.68 234.155 139.48C235.051 140.409 236.502 140.673 237.596 141.185C234.047 136.582 230.459 132.006 226.966 127.346C225.713 125.678 224.727 123.752 223.525 122.026C221.792 119.529 219.9 117.17 218.205 114.647C216.524 112.146 214.998 109.517 213.416 106.936C213.153 106.514 212.951 106.05 212.721 105.606C212.768 105.585 212.815 105.559 212.862 105.538C216.679 109.459 220.491 113.375 224.309 117.297L224.435 117.123C217.468 106.609 210.495 96.09 203.462 85.4708C205.068 84.4891 206.434 83.6499 207.899 82.7526C207.284 81.5862 207.819 80.9423 208.612 80.2984C212.66 77.0208 216.67 73.6904 220.707 70.4022C225.558 66.4491 230.506 62.67 235.76 59.4188C239.244 57.2549 242.709 55.0592 246.179 52.8636C248.874 51.1536 251.569 49.4488 254.241 47.6965C255.555 46.8362 256.823 45.8756 258.373 44.7725C257.546 44.5984 257.156 44.5139 256.767 44.4295C256.776 44.345 256.786 44.2606 256.795 44.1708ZM159.144 271.197C159.416 271.582 159.566 272.147 159.909 272.389C162.43 274.184 162.693 277.282 163.477 280.079C163.778 281.145 164.102 282.201 164.416 283.257C162.092 280.692 156.397 271.682 156.359 267.782C157.744 268.721 158.341 270.067 159.144 271.197ZM149.476 135.595C150.495 134.74 151.359 133.458 151.946 132.165C152.922 130.022 153.584 127.694 154.453 125.483C154.993 124.095 155.664 122.77 156.42 121.097C157.341 121.904 158.073 122.337 158.552 123.002C161.383 126.897 164.374 130.661 166.276 135.305C166.811 136.619 166.773 137.802 165.736 138.683C163.055 140.979 160.13 142.494 156.627 142.045C153.303 141.618 149.974 141.264 146.65 140.836C145.335 140.668 144.034 140.383 143.011 139.031C145.692 138.984 147.579 137.189 149.476 135.595ZM126.53 98.0059C129.272 100.165 131.982 102.371 134.681 104.598C135.949 105.648 137.142 106.815 138.395 107.881C139.114 108.488 139.245 109.19 138.987 110.124C138.391 112.288 137.813 114.457 137.301 116.648C137.128 117.392 137.203 118.205 137.114 118.98C136.926 120.585 136.635 122.179 136.517 123.794C136.442 124.765 136.597 125.763 136.667 126.744C136.771 128.111 137.311 129.505 136.348 131.093C135.897 130.434 135.423 129.953 135.188 129.357C133.536 125.129 131.662 120.981 131.86 116.125C131.892 115.296 131.216 114.304 130.653 113.608C128.747 111.259 126.732 109.016 124.784 106.715C124.455 106.329 124.225 105.844 123.953 105.406C124.033 105.274 124.112 105.136 124.192 105.004C127.3 105.506 129.784 107.76 132.611 109.19C130.282 104.419 127.136 100.439 123.929 96.4014C124.798 96.9292 125.723 97.3726 126.53 98.0059ZM65.469 134.102C65.7178 140.361 68.3425 145.439 69.5867 150.949C69.7369 151.619 69.9811 152.263 70.2253 153.071C64.7647 149.017 61.9053 143.069 65.469 134.102ZM76.3056 176.61C75.8971 176.447 75.2867 176.141 75.0519 176.331C73.4931 177.619 72.155 176.494 70.8262 175.898C68.3753 174.795 65.9573 173.591 63.5627 172.346C59.0976 170.024 54.6746 167.606 50.2001 165.3C49.3033 164.835 48.2563 164.434 47.2984 164.492C46.0589 164.571 45.4579 163.891 44.7959 162.925C45.3405 162.455 45.8382 162.054 46.3031 161.61C46.7538 161.178 47.1717 160.703 47.7069 160.138C48.4112 160.439 49.2704 160.803 50.2283 161.209C50.7166 158.813 48.275 159.848 47.9792 158.655C48.6413 158.322 49.247 158.011 49.8573 157.705C49.9278 157.457 50.571 158.349 51.6181 157.335C51.8857 157.077 52.6134 157.367 53.1158 157.483C53.5901 157.594 54.0643 157.995 54.5056 157.942C57.1631 157.61 59.1633 159.019 61.2245 160.66C63.0087 162.075 65.037 163.157 67.0513 164.144C70.7511 165.96 74.512 167.606 78.2588 169.29C79.0241 169.633 79.8411 169.818 80.7801 170.124C77.2728 164.703 73.1363 160.439 69.0561 156.116C69.1219 155.979 69.1923 155.847 69.258 155.715C70.5633 156.443 71.8686 157.166 73.1786 157.895C73.2302 157.805 73.2865 157.721 73.3429 157.631C73.0799 157.309 72.817 156.982 72.3099 156.354C73.2959 156.718 74.0096 156.934 74.6904 157.246C80.5407 159.906 86.4614 162.402 92.1989 165.342C95.218 166.888 97.9177 169.211 100.758 171.185C102.195 172.187 103.66 173.153 105.045 174.241C105.867 174.885 106.595 175.703 107.318 176.494C109.886 179.323 112.459 182.147 114.98 185.023C116.177 186.396 117.262 187.889 118.539 189.51C115.731 194.629 112.069 198.994 108.407 203.897C107.444 202.034 106.472 200.562 105.876 198.91C103.716 192.94 100.063 188.375 95.603 184.501C92.9689 182.21 90.396 179.83 87.6211 177.65C88.8371 179.466 90.0485 181.281 91.3538 183.229C90.2645 183.846 89.4757 183.319 88.8371 182.395C87.6352 180.659 86.3862 178.949 85.3251 177.112C83.6959 174.304 81.3483 172.853 78.564 172.082C78.0757 171.945 77.6109 171.654 77.1179 171.596C76.7516 171.549 76.1647 171.628 76.0333 171.881C75.8877 172.172 76.0145 172.826 76.2351 173.138C76.93 174.135 77.747 175.022 78.456 176.009C78.6532 176.283 78.6297 176.758 78.7095 177.138C78.3668 177.202 77.9959 177.392 77.686 177.307C77.2071 177.17 76.7798 176.8 76.3056 176.61ZM94.9832 190.549C94.8564 190.634 94.725 190.724 94.5935 190.813C93.8704 189.663 93.1474 188.512 92.368 187.272C92.7389 186.823 92.9455 186.565 93.2084 186.248C93.8094 187.699 94.3963 189.124 94.9832 190.549ZM89.6119 195.067C86.1421 194.92 82.893 194.17 79.7096 192.756C83.2733 191.721 86.9168 191.436 89.6119 195.067ZM143.264 301.645C142.729 300.838 142.123 300.083 141.677 299.217C140.729 297.391 139.865 295.507 138.968 293.644C136.47 288.455 133.86 283.331 131.521 278.047C130.099 274.833 129.028 271.424 127.178 268.447C125.944 266.457 124.709 264.457 123.596 262.382C122.239 259.849 120.995 257.242 119.736 254.645C118.046 251.172 116.389 247.678 114.708 244.195C114.628 244.031 114.445 243.931 114.083 243.915C115.375 248.021 116.67 252.127 117.962 256.234C117.882 256.292 117.802 256.344 117.722 256.402C116.985 255.051 116.248 253.7 115.506 252.349C115.356 252.433 115.206 252.523 115.055 252.608C116.83 257.595 119.328 262.229 121.253 267.148C121.117 267.228 120.985 267.312 120.849 267.396C119.896 265.723 119.009 264.003 117.98 262.393C114.572 257.031 111.135 251.689 107.66 246.38C107.059 245.461 106.782 244.606 106.839 243.445C107.008 240.062 107.9 236.7 107.111 233.259C106.989 232.715 107.327 231.913 107.656 231.385C108.421 230.134 108.402 229.179 107.172 228.714C105.731 228.165 105.256 227.078 105.111 225.595C104.885 223.336 103.862 221.895 102.162 220.528C99.9179 218.728 98.1008 216.264 96.1101 214.068C95.6311 213.546 95.2743 212.96 95.988 212.205C98.9741 213.477 100.43 216.95 103.477 218.723C103.139 218.026 102.979 217.557 102.716 217.182C102.453 216.802 102.05 216.549 101.777 216.179C100.641 214.649 99.4202 213.176 98.4342 211.529C96.7721 208.743 94.2367 207.502 91.6261 206.436C88.2549 205.053 84.8274 203.834 81.414 202.567C80.2402 202.135 79.0429 201.77 77.902 200.973C79.9866 201.174 82.1042 201.195 84.156 201.617C88.4474 202.499 92.7389 203.449 96.9599 204.684C98.406 205.111 99.6315 206.484 100.974 207.402C101.378 207.676 101.876 208.157 102.242 208.067C103.514 207.756 104.27 208.6 105.101 209.365C106.562 210.722 108.031 212.062 109.402 213.582C109.219 212.659 109.651 211.471 108.782 210.199C108.214 209.365 108.238 208.173 108.97 207.233C110.956 204.684 112.938 202.124 114.933 199.585C116.107 198.097 117.314 196.64 118.497 195.157C119.126 194.371 119.732 193.563 120.347 192.761C120.544 192.872 120.737 192.983 120.934 193.093C120.896 193.537 121.004 194.117 120.798 194.402C118.868 197.036 116.938 199.68 114.882 202.193C114.299 202.9 113.299 203.174 112.074 203.887C115.013 204.626 117.581 205.275 119.99 205.882C118.84 210.579 117.694 215.198 116.581 219.826C115.468 224.434 114.393 229.057 113.262 233.855C114.022 233.918 114.755 233.982 115.647 234.056C116.023 235.539 116.304 237.133 116.83 238.616C118.398 243.039 120.018 247.446 121.708 251.816C122.643 254.223 123.746 256.545 124.798 258.894C127.93 265.861 131.151 272.78 134.179 279.805C135.212 282.206 136.353 284.518 137.442 286.877C139.64 291.638 141.649 296.504 143.734 301.328C143.579 301.434 143.419 301.54 143.264 301.645ZM140.71 224.149C141.241 225.157 140.766 225.722 140.527 226.44C139.536 229.4 137.48 231.116 135.132 232.467C134.982 232.377 134.836 232.288 134.686 232.193C135.052 231.116 135.292 229.949 135.808 228.968C137.165 226.403 137.414 223.816 136.503 220.998C136.212 220.101 136.203 219.024 136.273 218.053C136.32 217.404 136.583 216.533 137.01 216.206C138.287 215.245 138.099 213.804 137.705 212.764C136.362 209.218 136.203 205.37 135.221 201.739C134.451 198.894 134.001 195.944 133.428 193.035C133.339 192.576 133.343 192.096 133.301 191.626C133.404 191.605 133.512 191.579 133.616 191.552C134.282 194.197 134.907 196.851 135.625 199.48C136.329 202.05 137.184 204.573 137.874 207.149C138.311 208.78 138.536 210.479 138.921 212.131C139.217 213.424 139.71 214.664 139.94 215.968C140.241 217.646 140.4 219.357 140.55 221.061C140.644 222.101 140.292 223.363 140.71 224.149ZM147.504 207.486C147.429 207.354 147.349 207.223 147.274 207.091C147.992 206.536 148.668 205.898 149.438 205.454C150.8 204.668 151.054 204.246 150.443 202.625C149.208 199.369 147.884 196.149 146.612 192.909C146.161 191.748 145.748 190.565 145.579 189.225C146.767 191.394 147.997 193.537 149.129 195.743C150.284 197.986 151.345 200.293 152.598 202.884C152.04 200.198 151.514 197.796 151.049 195.379C150.922 194.698 150.974 193.98 151.148 193.236C153.655 196.033 154.176 199.87 155.824 203.306C153.284 205.381 150.392 206.431 147.504 207.486ZM167.135 167.849C162.98 166.989 158.759 166.524 154.561 165.923C152.612 165.648 150.645 165.511 148.706 165.168C147.701 164.994 146.87 165.147 146.011 165.748C142.044 168.525 138.062 171.274 134.052 173.982C133.151 174.589 132.127 174.974 131.113 175.486C131.287 178.637 131.456 181.672 131.639 184.981C130.362 181.266 129.16 177.766 127.873 174.03C128.052 173.84 128.244 173.539 128.507 173.37C131.578 171.412 134.691 169.538 137.724 167.517C140.269 165.822 142.738 163.996 145.203 162.175C146.274 161.384 147.307 161.31 148.589 161.468C154.584 162.223 160.275 164.534 166.186 165.685C168.421 166.123 170.666 166.519 173.347 167.015C171.027 167.743 169.234 168.287 167.135 167.849ZM188.723 161.811C187.836 162.091 186.958 162.418 186.075 162.724C186.01 162.587 185.944 162.45 185.878 162.312C186.132 162.122 186.381 161.927 186.634 161.742C189.977 159.346 189.296 160.28 188.601 156.016C188.315 154.242 187.892 152.501 187.531 150.748C187.7 150.69 187.874 150.632 188.047 150.58C188.878 153.002 189.677 155.441 190.545 157.847C191.569 160.708 191.475 160.951 188.723 161.811Z" stroke="white" stroke-width="1.99399" mask="url(#path-1-inside-1_315_29)"/>
<path d="M209.852 233.056C210.264 233.881 210.64 234.725 211.015 235.579C210.516 234.845 210.027 234.113 209.565 233.353C209.565 233.348 209.565 233.342 209.565 233.336C209.565 233.283 209.572 233.21 209.59 233.131C209.6 233.083 209.613 233.039 209.626 233.003C209.658 233.005 209.696 233.01 209.734 233.018C209.784 233.029 209.825 233.044 209.852 233.056Z" stroke="white" stroke-width="0.996995"/>
</g>
<defs>
<clipPath id="clip0_315_29">
<rect width="268.192" height="371.879" fill="white" transform="translate(0.430664)"/>
</clipPath>
</defs>
</svg>
