<svg width="26" height="31" viewBox="0 0 26 31" fill="none" xmlns="http://www.w3.org/2000/svg">
<path d="M13.5437 12.4562C13.1559 12.8317 12.5401 12.8317 12.1523 12.4562L3.8402 4.40653C3.20576 3.79212 2.14453 4.2417 2.14453 5.12489V17.889C2.14453 18.1598 2.25434 18.419 2.44886 18.6073L12.1523 28.0044C12.5401 28.3799 13.1559 28.3799 13.5437 28.0044L23.2472 18.6073C23.4417 18.419 23.5515 18.1598 23.5515 17.889V5.12489C23.5515 4.2417 22.4903 3.79212 21.8558 4.40653L13.5437 12.4562ZM10.2465 18.0609C10.2465 18.9438 9.1858 19.3935 8.55121 18.7797L5.92269 16.237C5.72793 16.0486 5.61796 15.7892 5.61796 15.5183V15.0426C5.61796 14.1594 6.67919 13.7099 7.31363 14.3243L9.94215 16.8698C10.1367 17.0582 10.2465 17.3174 10.2465 17.5881V18.0609ZM20.0781 15.5185C20.0781 15.7893 19.9682 16.0486 19.7736 16.237L17.1451 18.7813C16.5105 19.3954 15.4496 18.9458 15.4496 18.0627V17.5881C15.4496 17.3174 15.5594 17.0582 15.7539 16.8698L18.3824 14.3243C19.0168 13.7099 20.0781 14.1594 20.0781 15.0426V15.5185Z" stroke="white"/>
</svg>
